<svg width="239" height="218" viewBox="0 0 239 218" fill="none" xmlns="http://www.w3.org/2000/svg">
<path d="M83.5117 5.35339C85.8062 9.41814 88.3148 14.9959 90.0839 19.3037C90.6394 20.6532 89.8831 20.2074 90.2473 21.1486C90.9602 22.9891 91.9882 24.5219 92.659 26.3576C92.8792 26.967 91.845 26.5885 92.0914 27.2197C93.4464 30.6765 95.1831 33.7194 96.7147 37.1418C104.258 53.9997 112.115 70.3491 120.16 87.2085C121.182 89.3499 122.216 91.7056 123.279 94.1103L115.617 92.8669C118.721 90.0438 121.92 87.111 124.554 84.2155C125.054 83.6652 124.272 83.5092 124.333 83.3707C125.309 81.212 125.734 82.6799 126.883 81.7826C131.44 78.2189 135.999 73.7469 139.725 69.6582C141.31 67.9174 138.711 68.6526 140.908 67.5016C141.059 67.4207 141.136 68.3406 141.645 67.9378C142.798 67.0234 144.671 64.9728 145.511 64.2109C147.134 62.7452 147.385 62.4847 148.851 61.0296C150.86 59.0449 153.483 56.9175 155.512 54.6622C155.944 54.1793 154.828 54.2741 155.471 53.458C156.114 52.6412 158.088 50.7534 158.86 50.2227C159.631 49.6919 159.755 50.3705 159.962 50.3473C161.687 50.1756 162.845 46.8665 163.106 46.5526C166.971 41.9563 171.043 38.5411 175.057 34.8066C177.255 32.5202 180.301 33.3069 181.364 36.2955C181.732 37.5511 182.119 38.8118 182.544 40.0835C184.217 45.0925 186.274 50.3592 187.826 55.1387C189.672 60.8338 190.906 65.7711 192.809 71.2673C193.009 71.8476 193.587 70.8968 193.832 71.605C196.445 79.1297 198.858 86.6624 200.822 94.367C201.018 95.1399 199.987 94.4032 200.141 95.1895C201.098 99.9984 202.136 107.766 206.129 109.481C207.051 112.647 208.192 116.484 208.503 119.488C208.705 121.424 207.351 119.929 208.418 122.035C208.658 122.51 209.116 121.636 209.424 122.365C210.723 125.437 211.652 128.957 213.041 131.961C213.325 132.572 213.872 132.197 214.041 132.34C215.426 133.558 214.807 136.56 214.884 137.144C215.487 141.584 216.814 144.531 218.092 148.428C218.388 149.333 218.845 147.995 219.159 148.855C220.777 153.323 222.263 158.014 223.374 162.547C223.619 163.556 222.626 162.884 222.708 163.377C223.077 165.552 224.536 165.575 224.915 167.653C224.997 168.09 224.326 168.052 224.286 168.15C223.663 169.684 225.456 170.239 225.59 170.536C227.321 174.274 226.638 177.26 228.103 180.941C228.28 181.381 228.691 180.119 229.142 181.37C232.151 189.708 234.909 198.667 237.083 207.187C237.422 208.512 236.552 207.776 236.509 207.88C235.868 209.568 237.606 209.943 237.802 210.346C238.213 211.222 238.499 212.122 238.747 213.001C239.345 214.678 238.28 216.081 236.5 216.119C234.081 216.006 231.88 215.692 230.149 217.016C215.293 216.383 200.505 217.407 185.771 215.773C185.584 215.754 185.92 215 185.546 214.966C181.046 214.542 181.91 215.714 178.933 217.148C178.182 217.508 175.901 215.777 175.699 215.65C174.963 215.183 175.726 214.061 175.48 213.971C173.442 213.26 173.774 216.97 171.024 216.971C170.938 216.965 171.299 216.282 171.069 216.214C170.352 216.001 169.641 216.272 168.939 216.037C167.334 215.493 166.762 213.69 164.309 214.74C163.999 214.876 164.473 216.98 162.018 216.881C161.039 216.839 156.707 216.875 155.493 216.739C154.281 216.603 155.113 215.925 155.027 215.895C151.76 214.999 152.998 214.627 151.361 213.299C149.725 211.977 150.179 215.131 149.511 215.483C148.843 215.834 146.447 215.095 145.859 214.837C145.27 214.58 146.004 214.149 145.481 214.003C142.012 213.052 143.958 215.569 142.815 216.07C140.12 217.256 138.021 214.916 135.554 214.687C134.887 214.625 135.432 215.158 134.837 215.208C132.483 215.398 131.067 214.668 128.389 215.337C127.951 215.446 125.785 216.853 124.384 215.821C124.185 215.672 124.749 215.089 123.746 214.958C122.247 214.762 119.546 214.635 117.935 214.83C116.746 214.974 118.109 215.934 116.612 215.636C115.947 215.503 117.18 214.941 115.93 214.737C114.686 214.534 111.507 214.559 110.297 214.578C109.089 214.598 109.75 215.327 109.652 215.376C109.062 215.657 106.744 216.008 106.539 216.007C96.2083 216.096 86.6816 214.868 76.623 215.275C75.8336 215.305 76.3595 216.074 76.239 216.086C73.5367 216.408 75.6673 214.365 73.7796 213.682C74.0524 215.241 72.9381 214.959 71.0345 215.13C70.1172 215.213 70.6168 215.817 70.5331 215.879C69.1728 216.796 68.2256 215.611 67.9816 215.369C67.0807 214.478 66.1004 215.531 65.4873 214.935C64.8746 214.344 66.2847 213.467 64.4591 213.478C63.9472 214.037 65.3025 215.495 63.9164 215.732C58.6868 216.626 48.9249 215.481 44.7201 215.362C40.5237 215.244 39.1682 215.347 36.723 215.145C32.306 214.78 33.9247 215.862 31.1821 216.358C28.4315 216.853 29.7686 214.19 29.3732 213.618C28.9851 213.046 28.5612 213.635 28.0784 213.32C27.5973 213.006 28.639 212.616 27.5072 212.498C26.3747 212.38 23.2785 213.398 22.8771 213.997C22.0285 215.265 23.4237 216.596 20.4272 216.128C20.2549 216.1 20.8141 215.4 20.1543 215.33C14.9129 214.79 9.46789 214.757 4.23295 214.28C3.51319 214.214 4.1568 213.435 3.7379 213.387C2.7023 213.269 2.00029 213.253 1.5 213.316L1.91147 213.887C2.22601 212.297 1.10076 212.422 0.621889 210.34C2.29406 211.464 3.8392 210.585 4.89726 207.447C5.53394 205.561 4.62108 205.618 4.46122 204.207C4.41244 203.784 5.41027 202.632 5.11264 202.263C4.14206 201.053 2.33805 201.85 3.96899 198.795C4.04255 198.661 4.5687 199.339 4.77337 198.862C6.09972 195.778 4.9327 194.967 5.91967 191.483C6.69316 188.753 9.07627 184.233 10.2253 181.214C12.2747 181.969 12.7646 178.918 11.7278 177.269C12.4487 175.301 13.0834 173.128 13.921 171.273C14.2086 170.635 14.6635 171.269 14.756 171.207C16.1984 170.268 15.0972 168.941 15.1857 168.493C16.206 163.668 18.5214 160.231 18.9714 155.452C18.9868 155.282 17.6333 154.547 19.079 153.711C19.177 153.659 19.3431 155.342 20.0894 153.272C20.8359 151.201 22.9188 147.523 23.2182 144.403C23.2914 143.648 22.7149 141.485 24.1019 140.366C24.289 140.217 24.6324 140.563 24.9532 140.365C25.9798 139.724 24.6869 138.756 26.2689 138.128C27.8508 137.499 29.4971 135.644 29.6191 132.437C29.6253 132.336 28.7035 131.26 29.0281 130.347C29.5472 128.89 30.4816 126.887 30.9847 125.352C31.2252 124.618 30.3531 124.849 30.3825 124.717C31.6254 119.651 33.4334 116.354 35.4714 111.163C35.8465 110.212 35.7984 107.103 37.1949 105.485C38.7257 103.708 41.5337 106.994 42.2741 101.983C42.5756 99.9629 38.924 96.0607 42.3766 93.4003C44.0219 86.5571 47.2545 80.7988 48.6611 73.8555C48.7249 73.5434 47.7971 72.1801 48.0492 71.4805C48.4257 70.4427 49.1987 70.0617 49.4862 69.3269C50.7056 66.2526 51.1637 63.22 52.2479 60.2254C52.6582 59.0881 53.1257 59.6895 53.6152 58.3329C54.1039 56.9771 53.6161 55.8018 54.6158 54.0769C55.3736 52.7751 57.4578 51.9159 58.2654 50.1219C56.6929 49.5191 57.1509 48.2547 57.4852 45.8477C57.5486 45.3847 56.8374 45.6668 56.8388 45.4382C56.8321 44.504 57.5512 43.8812 57.5051 42.9808C57.4948 42.7621 56.9528 42.5713 56.9136 42.3823C56.5599 40.7678 58.5256 38.9576 58.8661 38.6476C60.1637 37.4572 59.6823 36.5384 60.375 35.5244C61.067 34.5123 60.9086 36.3178 61.5378 35.0758C62.8413 32.5011 63.9131 28.9921 64.855 26.2498C65.2275 25.1546 64.2504 25.6608 64.2868 25.4984C64.8587 23.1675 66.3976 21.1306 65.3678 19.3893C69.6394 19.0649 65.4605 17.8996 67.2918 14.9059C67.4377 14.6706 69.3181 14.9362 69.2512 16.0039C69.1841 17.0715 68.1344 18.3744 68.0862 19.8706C68.074 20.2246 69.119 22.6244 69.1356 22.9099C69.264 25.1452 66.5228 24.5421 66.3425 24.5981C64.3783 25.2588 65.4151 28.1113 65.3406 28.7466C65.001 31.6535 63.8588 33.8386 63.5053 36.2468C63.271 37.8207 64.9571 38.5444 64.5148 39.6942C63.0456 43.5169 60.1742 44.0651 61.0532 48.4219C61.2392 49.3553 63.3949 49.2079 60.9674 51.521C60.8146 51.6662 58.7554 53.2979 59.2162 54.7909C59.2745 54.9785 59.8286 55.1579 59.8085 55.373C59.6627 56.8111 58.9251 57.5567 58.65 59.0846C58.375 60.6123 58.1051 62.4697 57.363 64.0714C56.9167 65.0369 55.4583 65.9806 55.0463 66.3766C53.8684 67.4902 54.5742 69.3405 53.4151 69.8872C52.2493 70.4395 51.4593 68.3366 50.1481 70.3671C51.5562 70.9278 52.9666 71.6079 54.3661 72.2213C52.6933 77.0712 50.633 81.705 49.0687 86.6092C48.8762 87.2176 49.8543 86.8558 49.6678 87.5147C48.8777 90.2937 47.5304 92.5018 46.803 95.4143C46.2429 97.6698 46.2566 100.352 45.6964 102.719C43.5858 103.576 43.0066 107.172 42.0307 109.599C41.6896 110.45 41.2702 110.246 40.9213 110.815C39.6159 112.967 41.4311 112.36 41.4468 113.074C41.5088 116.138 38.1452 115.277 37.1501 118.533C37.0963 118.705 38.1506 121.38 38.1637 121.704C38.2649 123.771 37.4531 121.804 36.942 122.906C36.0086 124.918 35.106 126.232 34.8012 128.856C34.7147 129.622 35.2343 131.702 33.9269 132.809C33.7554 132.955 33.2102 132.661 33.1273 132.797C31.6747 135.271 33.4702 135.948 33.5791 137.674C33.6877 139.401 31.6487 141.333 31.1274 141.691C29.7741 142.63 31.0469 140.599 30.9777 140.5C30.1497 139.34 29.7666 141.117 29.2376 142.396C27.391 141.991 26.8875 143.858 28.6964 143.724C28.895 143.706 29.0685 142.631 29.2376 142.396C30.6042 144.129 30.1573 146.216 27.781 147.894C26.6677 148.68 26.1021 147.398 25.3752 150.668C25.0445 152.152 26.4573 152.007 26.37 153.385C26.1696 156.533 23.7711 159.91 22.9575 162.952C22.6622 164.056 23.6859 163.226 23.5073 163.988C23.0353 166.012 21.9539 167.575 21.555 169.633C21.5198 169.82 22.3689 169.618 22.1735 170.234C20.7059 174.909 18.9062 178.806 17.2761 183.655C16.4888 185.997 15.4796 190.319 14.5919 192.722C13.0576 196.888 10.3081 201.725 9.3579 205.405C8.73516 207.803 9.61047 207.523 9.75498 208.688C10.038 210.937 7.22876 213.815 6.81686 214.192C6.80362 214.203 7.3105 212.129 6.59023 213.086C5.62873 213.461 6.82118 214.168 6.81686 214.192C6.73168 214.27 6.52142 214.727 6.27 215.34L1.5 208.722C2.91695 208.818 5.07607 208.865 5.65151 208.769C6.11007 208.691 5.85356 207.988 6.09262 207.961C11.7756 207.332 17.4686 207.153 23.2325 207.482C23.334 207.496 23.1812 208.282 23.4198 208.306C26.7567 208.656 28.8933 207.694 31.6454 207.123C34.397 206.552 36.5792 206.743 38.2081 208.093C40.2843 207.923 43.2631 208.52 44.9772 208.882C46.6912 209.244 46.9304 207.713 47.0812 207.683C51.7852 206.715 54.5045 207.591 59.3847 207.727C61.7049 207.794 66.3073 207.572 68.8194 207.405C70.8048 207.27 72.0009 207.629 73.8304 207.4C74.0778 207.369 73.8278 206.688 73.9033 206.661C75.9451 205.846 74.9638 207.512 75.3853 207.809C76.9136 208.891 77.8578 209.468 80.4724 208.959C81.0755 208.842 82.8323 206.443 83.9315 206.303C85.3608 206.125 84.8214 206.985 86.318 206.777C86.446 206.76 86.4194 206.229 87.343 206.253C91.6305 206.354 96.3049 206.663 100.76 206.61C101.369 206.604 100.589 205.763 101.468 205.742C105.594 205.642 110.117 205.673 114.137 206.067C115.126 206.167 114.506 206.756 114.721 206.93C116.039 207.989 117.909 206.451 118.218 206.422C125.578 205.683 131.211 207.074 138.712 206.412C139.12 206.373 142.264 204.725 143.666 206.138C143.762 206.232 145.149 207.679 146.376 206.69C146.452 206.628 145.588 205.883 147.096 205.959C148.605 206.035 151.033 205.538 153.107 206.356C153.763 206.614 155.315 208.056 157.274 206.906C157.401 206.826 160.425 204.225 161.504 206.02C161.679 206.315 161.496 208.214 163.833 207.24C164.28 207.052 163.469 206.628 164.646 206.364C166.448 205.956 168.837 206.465 171.053 205.619C171.439 205.469 173.084 204.18 174.404 205.158C174.611 205.312 174.218 205.945 174.915 206.016C178.229 206.357 181.699 205.933 185.064 206.371C186.255 206.525 185.646 207.55 186.888 207.825C188.131 208.099 190.634 208.363 191.934 207.895C193.235 207.427 191.814 205.793 193.762 205.663C202.231 205.095 210.62 206.053 219.077 206.193C220.331 206.214 219.291 205.63 221.14 205.619C225.249 205.593 231.159 205.383 236.5 205.493L228.667 216.361C227.623 213.003 226.79 209.834 226.515 207.452C225.96 202.643 228.564 208.059 227.803 204.497C227.434 202.778 225.035 201.586 224.845 201.204C222.966 197.488 222.859 194.506 221.441 191.069C221.148 190.36 220.655 191.316 220.414 190.709C219.584 188.64 219.17 186.311 218.437 184.313C218.107 183.417 217.605 183.77 217.371 182.923C216.803 180.897 216.45 179.056 216.324 176.939C216.313 176.746 217.405 177.709 216.939 176.226C216.183 173.826 215.711 170.691 214.263 168.123C213.832 167.361 212.547 167.754 212.843 165.709C212.904 165.281 214.591 165.239 212.589 163.64C212.254 163.37 209.328 160.537 209.917 158.472C210.072 157.927 210.947 156.378 210.424 155.463C210.348 155.341 209.841 156.101 209.503 155.312C208.326 152.525 207.4 149.502 206.205 146.633C205.885 145.868 205.566 147.273 205.112 146.125C203.86 142.967 202.701 138.89 201.874 135.67C201.571 134.482 202.425 135.088 202.461 134.983C203.047 133.279 201.377 132.944 201.146 132.521C199.722 129.882 199.67 127.529 198.634 125.005C198.351 124.308 197.851 125.036 197.744 124.914C196.671 123.637 198.237 124.333 198.059 123.357C197.564 120.623 196.54 117.733 195.575 115.123C195.22 114.165 194.808 115.512 194.498 114.649C192.649 109.546 190.939 104.17 189.692 99.0037C189.458 98.0305 190.254 98.4267 190.324 98.1841C190.825 96.5074 188.86 94.9497 188.584 94.5327C187.323 92.6379 187.581 91.6527 186.869 89.8455C183.383 81.0207 180.033 69.8062 177.421 61.2498C175.015 53.3787 173.166 46.694 170.997 39.7509L182.783 42.5332C180.601 44.6337 178.403 46.8037 176.125 49.1463C175.632 49.6522 176.728 49.7404 176.31 50.1841C170.894 55.8854 165.191 61.1267 159.792 66.8674C159.348 67.3374 160.568 67.2397 159.874 68.0129C158.454 69.603 156.518 71.4787 154.817 72.8209C153.989 73.4767 154.503 71.9999 153.679 72.6698C151.759 74.2286 149.855 76.0529 148.158 77.9294C147.437 78.7291 149.158 78.1559 148.177 79.1507C141.502 85.9388 134.99 92.6485 127.445 98.7076C126.928 99.1229 125.352 98.3659 124.585 99.581C124.834 99.9793 125.218 100.356 125.532 100.735C125.197 101.082 124.861 101.429 124.525 101.775C120.286 105.84 114.527 105.052 112.011 99.7446C105.855 87.879 100.411 75.7931 94.4885 63.7582C94.2296 63.2326 93.9009 64.5291 93.3957 63.5134C90.4712 57.6354 87.4035 52.0413 85.177 45.6462C84.955 45.0122 86.4829 44.6305 85.3968 42.9781C85.2039 42.6873 83.698 40.1338 83.0575 39.5992C82.9661 39.5288 82.5655 40.3323 82.1206 39.4893C79.5465 34.5846 77.0976 29.3204 75.0173 24.1795C74.6828 23.3492 75.7912 23.8573 75.5589 23.263C73.9057 19.0495 71.1932 14.9236 69.8874 10.7605C69.0157 7.97266 70.6746 8.33674 71.1523 6.38486C71.2195 6.10899 70.447 4.49904 71.0823 4.07814C72.6777 3.01542 74.9275 2.85741 76.5824 1.63324C76.9395 1.37087 75.4494 -0.557498 77.0265 0.23679C77.1339 0.293664 78.2225 1.68761 78.7337 1.90941C79.088 2.06461 79.5366 1.24139 80.0912 1.6422C80.6456 2.04311 80.3668 2.92763 81.1495 3.66055C81.9361 4.39101 82.5213 3.6043 83.5117 5.35339ZM52.695 210.5C54.2822 211.235 54.5164 208.543 52.7998 209.187C52.7166 209.221 52.6131 210.464 52.695 210.5ZM48.7158 81.0356C46.9333 82.6286 48.1405 84.5277 49.4733 83.429C50.8051 82.3302 49.2572 80.5497 48.7158 81.0356ZM54.6975 60.3495C53.0425 62.3541 56.5431 63.9233 56.6324 61.2153C56.6388 61.0582 54.7939 60.2322 54.6975 60.3495ZM74.6611 12.5745C74.6833 12.539 74.1405 11.3754 74.0951 11.3638C73.0248 11.1349 74.1107 13.4612 74.6611 12.5745ZM60.554 39.7957C59.8248 40.3505 59.701 42.6069 60.6075 41.9176C61.337 41.3626 61.4615 39.1043 60.554 39.7957ZM135.488 213.373C135.513 213.413 136.433 213.449 136.414 213.222C136.352 212.492 135.071 212.698 135.488 213.373ZM71.9878 5.35532C70.156 10.3963 66.1367 12.483 68.3206 7.05658C68.716 6.07388 68.5539 9.5363 69.2492 8.34957C70.5192 6.1773 69.158 4.00004 70.9591 1.95164C71.2872 1.58152 72.0989 5.06999 71.9889 5.36575C71.9886 5.36225 71.9882 5.3588 71.9878 5.35532ZM53.609 213.733C53.6407 213.769 54.9145 213.803 54.945 213.767C55.6348 212.913 53.0688 212.844 53.609 213.733ZM189.18 215.037C189.25 215.113 192.206 215.184 192.302 215.114C193.844 213.717 187.868 213.569 189.18 215.037ZM10.2965 181.184C9.92047 179.594 10.3502 177.985 11.7248 177.275C11.2336 178.567 10.7859 179.883 10.2965 181.184Z" fill="#6EC9F2"/>
<path d="M23.869 135.489C24.8066 134.677 26.3592 134.105 27.5973 133.841C27.985 133.757 28.0363 134.269 28.3126 134.232C28.8488 134.16 29.1744 133.729 29.7303 133.695C29.9152 133.686 30.069 134.455 30.2542 134.431C31.2666 134.294 31.9845 133.73 32.9406 133.456C37.6138 132.133 42.0917 130.699 46.8307 129.663C48.3906 129.321 50.4321 129.495 51.9555 128.844C52.135 128.767 51.8772 128.145 51.9009 128.084C52.2841 127.14 52.3874 128.489 52.7899 128.584C54.3847 128.957 55.9912 128.722 57.3537 128.251C57.9335 128.05 57.1344 126.839 57.8523 127.479C57.9016 127.522 57.8527 128.241 58.028 128.291C58.4243 128.403 59.1118 128.181 59.4077 128.2C59.9771 128.24 60.0674 128.222 60.5932 128.169C61.3148 128.104 62.2039 128.369 62.96 128.147C63.1221 128.098 62.8443 127.395 63.0999 127.252C63.356 127.108 64.0661 127.119 64.3145 127.275C64.5627 127.43 64.4957 128.003 64.5454 128.13C64.9489 129.204 65.6686 127.646 65.7765 127.605C67.6604 126.883 69.3228 127.74 71.0928 127.785C72.4436 127.817 73.9064 127.613 75.1923 127.759C76.7254 127.937 77.9681 128.47 79.4474 128.608C79.6034 128.623 79.5393 127.757 79.7317 127.775C81.7801 127.966 83.7892 128.429 85.6483 129.43C85.8332 129.531 85.4168 130.202 85.5903 130.346C86.6713 131.211 88.1184 133.104 89.6862 130.175C90.4648 130.52 91.4193 130.938 91.9331 131.783C92.2655 132.328 91.5793 132.963 92.2407 132.809C92.39 132.775 92.4414 132.045 92.6504 132.047C93.5335 132.056 94.3342 132.569 95.2373 132.499C95.4224 132.484 95.5921 131.868 95.6761 131.776C96.3753 131.037 96.4928 132.717 96.5884 132.872C97.3513 134.044 98.2008 134.025 99.1588 134.437C99.3799 134.533 99.4399 133.633 99.6658 133.698C100.84 134.047 101.947 134.608 102.869 135.447C103.073 135.635 102.55 136.198 102.631 136.321C102.988 136.857 103.673 135.657 104.025 136.152C104.099 136.255 103.775 136.792 103.764 136.863C103.586 137.968 104.488 136.711 104.578 136.717C105.711 136.753 105.597 138.476 106.564 138.719C106.682 138.748 106.807 137.924 107.118 138.048C109.201 138.878 111.164 140.226 112.708 141.886C112.949 142.144 112.436 142.528 112.417 142.602C112.124 143.759 113.105 142.563 113.231 142.572C114.197 142.674 114.206 144.194 115.677 142.967C117.254 144.391 119.063 145.401 120.731 146.673C121.97 147.622 123.084 148.631 123.996 150.077C124.023 150.118 123.543 150.705 123.6 150.783C124.282 151.73 124.746 150.633 126.106 149.8C126.446 149.589 125.981 151.34 125.957 151.474C125.858 151.963 125.111 152.819 125.113 152.927C125.162 153.795 127.046 150.598 127.601 150.936C127.615 150.952 127.186 151.49 127.198 151.577C127.234 151.848 127.519 151.704 127.541 151.992C127.587 152.654 126.785 154.276 127.828 153.674C127.961 153.594 128.934 151.726 129.38 152.101C129.552 152.251 130.47 152.736 130.652 152.994C130.836 153.253 130.332 153.748 130.335 153.783C130.58 154.947 130.141 155.127 129.847 156.482C129.561 157.834 130.979 155.014 131.287 154.781C131.594 154.549 131.739 155.467 131.749 155.764C131.754 156.058 131.393 156.354 131.437 156.543C131.742 157.781 132.497 155.332 132.973 155.017C134.087 154.262 133.455 156.567 133.886 157.041C134.002 157.168 134.124 156.633 134.273 156.652C134.855 156.73 134.848 157.54 135.719 157.216C135.864 157.165 136.929 156.114 136.791 157.189C136.771 157.344 136.401 157.815 136.564 158.035C136.808 158.365 137.34 158.748 137.777 158.73C138.099 158.715 138.19 157.704 138.396 158.123C138.489 158.309 137.989 158.703 138.183 159.011C138.376 159.319 139.092 159.602 139.367 159.696C139.643 159.791 139.779 159.057 139.82 159.021C140.059 158.817 140.7 158.703 140.743 158.721C143.037 159.567 144.76 161.498 147.185 161.837C147.375 161.864 147.484 161.093 147.515 161.089C148.223 160.972 147.133 162.773 147.371 163.562C147.763 162.051 147.937 162.4 148.422 162.365C148.656 162.347 148.711 161.734 148.748 161.68C149.313 160.891 149.196 162.089 149.187 162.338C149.15 163.255 149.659 162.304 149.641 162.917C149.627 163.527 149.061 164.28 149.495 164.388C149.762 163.882 149.834 162.39 150.215 162.249C151.638 161.719 153.594 163.358 154.566 163.673C155.519 163.991 155.857 163.947 156.396 164.251C157.373 164.794 157.179 163.66 157.894 163.277C158.606 162.89 157.885 165.471 157.889 166.051C157.895 166.631 158.087 166.065 158.156 166.393C158.226 166.722 157.913 167.068 158.172 167.227C158.436 167.387 159.335 166.484 159.508 165.903C159.878 164.672 159.724 163.311 160.363 163.865C160.4 163.897 160.181 164.575 160.328 164.665C161.499 165.355 162.802 165.516 164.024 166.079C164.193 166.158 163.984 166.924 164.082 166.979C165.116 167.545 164.822 166.209 165.466 164.783C165.237 166.715 165.498 167.922 166.32 167.964C166.813 167.989 166.756 167.138 167.085 166.55C167.182 166.372 167.511 166.962 167.582 166.564C167.809 165.264 167.519 163.802 168.313 164.393C168.348 164.421 168.228 165.133 168.351 165.178C169.148 165.465 169.242 164.102 170.082 163.925C170.737 163.787 171.944 164.578 172.719 164.669C172.817 166.851 173.541 166.308 173.727 164.785C174.226 164.813 174.753 164.685 175.251 164.849C175.423 164.904 175.372 165.543 175.399 165.61C175.823 166.646 175.903 165.166 176.003 165.099C177.1 164.426 178.189 165.407 179.143 164.171C179.177 164.127 179.013 162.619 179.469 163.669C179.5 163.741 179.241 164.479 179.766 164.452C180.287 164.427 181.412 165.062 182.007 164.234C182.154 164.034 182.347 162.744 182.883 163.617C182.956 163.736 182.99 164.172 183.106 164.396C183.481 165.106 183.289 163.581 183.814 164.801C184.339 166.021 185.112 166.854 185.656 165.805C185.675 165.774 185.571 164.551 185.802 164.516C186.172 164.46 186.75 164.578 187.129 164.472C187.311 164.422 187.006 163.721 187.034 163.7C188.142 162.975 189.164 163.388 190.549 163.272C190.805 163.252 191.176 162.059 191.874 162.686C192.65 163.368 193.284 167.063 194.202 165.822C194.583 165.319 193.603 160.686 195.251 162.674C196.638 161.521 198.589 162.081 199.837 160.603C199.893 160.537 199.593 159.237 199.764 159.182C200.02 159.101 200.405 159.6 200.596 159.559C201.4 159.401 201.845 158.617 202.577 158.358C202.855 158.258 203.037 158.874 203.371 158.752C203.707 158.628 203.546 157.778 204.147 157.93C204.601 158.047 205.692 159.407 206.218 159.361C205.467 157.855 205.777 157.737 206.089 157.072C206.149 156.943 205.77 156.481 205.784 156.393C205.833 156.027 206.237 156.362 206.262 155.976C206.268 155.884 206 155.376 205.989 155.272C205.886 154.368 206.988 155.24 207.183 155.39C207.919 155.961 207.712 155.222 208.125 155.377C208.539 155.532 208.368 156.108 208.762 156.123C209.58 156.15 210.321 155.618 210.94 155.284C211.187 155.147 210.632 154.584 210.658 154.549C211.057 154.088 211.987 154.481 211.471 153.007C213.87 156.171 211.578 152.495 212.69 152.737C212.778 152.757 213.837 154.298 213.766 154.665C213.697 155.03 213.055 154.74 212.974 155.289C212.956 155.418 213.444 157.168 213.44 157.294C213.413 158.276 211.924 155.914 211.823 155.795C210.716 154.528 211.173 156.446 211.102 156.638C210.794 157.507 210.058 157.473 209.747 158.134C209.539 158.565 210.389 160.184 210.087 160.286C209.08 160.626 207.585 158.533 207.742 160.946C207.774 161.46 208.876 163.142 207.481 162.091C207.392 162.026 206.247 160.996 206.368 161.951C206.383 162.072 206.644 162.592 206.618 162.66C206.436 163.105 206.02 162.792 205.76 163.166C205.501 163.54 205.211 164.046 204.717 164.06C204.419 164.07 203.646 163.233 203.419 163.045C202.772 162.501 202.94 163.803 202.354 163.05C201.77 162.291 201.584 160.825 200.813 160.51C201.408 161.901 201.993 163.341 202.577 164.747C201.335 165.239 199.967 165.283 198.756 165.834C198.606 165.903 199.062 166.598 198.908 166.692C198.254 167.088 197.439 166.777 196.796 167.259C196.301 167.634 195.955 168.671 195.421 169.083C194.493 167.571 193.806 168.42 193.109 168.474C192.865 168.494 192.741 168.048 192.535 167.955C191.764 167.61 192.499 168.983 192.401 169.266C191.97 170.47 190.919 167.171 190.119 167.489C190.078 167.505 190.033 169.434 189.983 169.567C189.693 170.423 189.733 168.969 189.394 168.92C188.776 168.829 188.289 168.501 187.774 169.187C187.627 169.389 187.438 170.62 186.862 169.841C186.787 169.739 186.674 169.139 186.627 169.113C185.791 168.696 186.198 170.568 185.923 171.295C185.645 172.021 184.729 170.86 184.528 170.511C183.996 169.613 184.699 170.046 184.698 169.947C184.673 168.775 184.261 169.064 183.897 169.038C183.476 167.205 183.029 167.408 183.521 169.017C183.576 169.192 183.811 168.967 183.897 169.038C183.959 170.906 183.439 171.249 182.535 169.661C182.115 168.915 182.21 167.944 181.441 168.426C181.091 168.643 181.45 169.895 181.167 170.299C180.514 171.222 179.316 170.176 178.544 170.465C178.26 170.57 178.634 171.237 178.442 171.334C177.929 171.591 177.398 171.117 176.89 171.444C176.844 171.475 177.041 172.2 176.873 172.227C175.593 172.444 174.44 172.06 173.103 172.12C172.458 172.151 171.313 172.605 170.636 172.535C169.458 172.425 168.043 171.339 167.058 171.575C166.412 171.725 166.529 172.469 166.232 172.965C165.649 173.927 164.769 172.124 164.665 171.845C164.662 171.836 165.224 171.691 164.95 171.295C164.822 170.494 164.672 171.842 164.665 171.845C164.59 171.667 163.498 171.428 163.27 171.551C163.145 171.619 163.158 172.325 163.094 172.347C161.556 172.86 160.015 172.877 158.55 172.347C158.525 172.33 158.67 171.556 158.611 171.524C157.796 171.06 157.107 171.927 156.294 172.373C155.482 172.819 154.929 172.525 154.756 171.12C154.185 171.187 153.54 170.45 153.181 170.005C152.823 169.56 152.441 171.042 152.395 171.063C150.974 171.744 150.461 170.723 149.263 170.277C148.692 170.063 147.462 169.958 146.788 169.935C146.25 169.92 146.052 169.487 145.526 169.567C145.455 169.577 145.319 170.248 145.292 170.267C144.534 170.887 145.275 169.372 145.257 169.055C145.196 167.903 145.139 167.282 144.347 167.559C144.167 167.623 142.978 169.757 142.654 169.795C142.238 169.841 142.651 169.074 142.21 169.142C142.173 169.147 142.006 169.651 141.782 169.548C140.733 169.075 139.697 168.361 138.584 167.981C138.432 167.927 138.317 168.786 138.091 168.72C137.025 168.407 135.94 167.922 135.12 167.135C134.92 166.939 135.306 166.465 135.324 166.282C135.434 165.175 134.365 166.382 134.276 166.374C132.214 166.256 131.459 164.35 129.439 164.063C129.33 164.052 127.832 165.133 128.162 163.708C128.182 163.612 128.54 162.166 127.792 162.887C127.745 162.932 127.592 163.695 127.281 163.442C126.974 163.191 126.177 163.323 126.101 162.345C126.075 162.035 126.434 160.584 125.426 161.334C125.363 161.391 123.369 163.246 124.027 161.553C124.136 161.274 125.133 159.659 124.125 160.196C123.931 160.301 123.896 160.772 123.5 160.845C122.89 160.959 122.621 160.205 121.687 160.626C121.524 160.703 120.478 161.574 120.696 160.557C120.73 160.399 121.152 159.914 121.034 159.757C120.488 159.018 119.506 158.896 119.011 158.051C118.837 157.753 119.528 156.981 119.412 156.577C119.295 156.172 118.907 155.598 118.376 155.806C117.841 156.01 117.231 157.569 116.742 157.397C115.791 157.06 115.012 156.459 114.294 155.771L114.302 155.777C113.531 155.01 112.838 154.137 112 153.485C111.773 153.31 111.647 153.927 111.288 153.703C109.963 152.871 107.437 151.944 106.918 150.206C106.496 148.806 108.05 148.838 107.536 148.069C107.278 147.695 105.955 149.126 105.843 149.131C104.728 149.196 104.582 148.154 103.711 147.978C103.532 147.943 103.319 148.702 103.171 148.665C102.666 148.546 102.361 147.997 101.908 147.835C101.704 147.764 101.471 148.305 101.318 148.176C100.951 147.874 100.69 147.467 100.519 146.769C100.503 146.705 101.082 146.175 100.777 145.995C100.284 145.706 99.8745 144.908 99.0464 145.143C98.7999 145.215 98.2326 146.432 98.24 145.415C98.2415 145.203 99.0075 143.779 97.9894 144.849C97.8145 145.023 96.3254 146.419 96.4487 145.154C96.4807 144.821 96.7527 143.501 96.4566 143.601C96.415 143.62 96.2494 144.333 96.0465 144.324C95.3288 144.277 94.7021 143.94 93.9789 143.9C93.786 143.891 93.7673 144.685 93.4904 144.65C92.736 144.559 91.922 144.054 91.3154 143.593C91.0915 143.421 91.4714 142.899 91.4755 142.829C91.5371 141.69 90.8734 143.025 90.7487 143.073C89.9705 143.352 89.7152 142.538 89.0874 142.531C88.9153 142.528 88.8148 143.235 88.7646 143.285C88.2596 143.77 88.8781 142.638 88.7143 142.44C88.2568 141.884 87.5872 141.744 86.9733 141.664C86.7479 141.636 86.7684 142.491 86.5704 142.457C85.3997 142.275 84.2411 141.902 83.22 141.21C83.0279 141.078 83.2981 140.494 83.2854 140.344C83.1954 139.293 82.4475 140.536 82.3202 140.643C81.7292 141.128 81.6603 140.547 81.2247 140.568C79.1114 140.679 76.6805 139.966 74.7659 139.57C72.2812 139.056 70.3095 138.391 67.8719 138.584C67.7176 138.596 67.889 139.43 67.7576 139.451C66.0699 139.688 64.3797 139.463 62.7051 139.875C62.5683 139.907 62.8474 140.676 62.6327 140.755C62.1921 140.921 61.623 140.944 61.134 140.751C60.8952 140.658 61.1091 139.944 60.8685 139.866C60.3069 139.681 59.7227 139.707 59.2005 139.917C58.9789 140.009 59.4504 140.756 59.1552 140.812C57.1407 141.214 55.2235 141.753 52.9335 141.25C52.7768 141.216 52.24 139.651 52.0143 140.037C52.108 140.486 52.2466 141.006 52.3615 141.482C49.5045 142.508 46.4645 142.919 43.5406 143.99C43.419 144.035 43.9503 144.763 43.7181 144.854C42.3703 145.381 41.1806 146.159 39.4575 146C39.2862 145.986 38.7083 144.558 38.3998 144.96C38.345 145.032 37.8247 145.507 37.8171 145.882C37.8182 145.937 38.2387 146.531 38.0564 146.642C36.9927 147.279 35.7503 147.73 34.4469 147.932C34.2345 147.964 34.063 147.189 33.9078 147.206C32.8003 147.341 32.1059 148.396 30.9041 148.291C30.0931 148.222 29.6404 146.957 28.6675 146.021C28.5298 145.889 28.1475 146.082 27.7408 145.444C26.7166 143.839 25.8363 141.939 24.7238 140.242C24.4842 139.876 24.2001 140.594 23.9696 139.502C23.9549 139.428 24.1589 138.899 24.0721 138.535C24.0125 138.283 23.501 137.691 23.4761 137.338C23.4521 136.985 23.9284 137.453 23.9666 136.999C24.0033 136.542 23.4633 135.843 23.869 135.489ZM151.597 167.996C151.377 167.188 150.69 169.792 151.271 169.268C151.3 169.239 151.609 168.036 151.597 167.996ZM199.191 163.397C198.265 162.494 198.588 164.244 199.275 164.956C199.967 165.664 199.475 163.669 199.191 163.397ZM203.743 160.421C202.799 159.834 204.339 163.328 204.606 162.346C204.623 162.29 203.798 160.454 203.743 160.421ZM29.9453 144.853C29.9231 144.825 29.641 144.946 29.6523 144.98C29.937 145.802 30.4963 145.562 29.9453 144.853ZM208.005 157.179C207.597 156.814 207.412 157.59 207.918 158.047C208.328 158.413 208.517 157.632 208.005 157.179ZM133.311 158.222C133.324 158.184 133.14 158.051 133.042 158.255C132.727 158.914 133.1 158.871 133.311 158.222ZM215.627 152.567C214.432 153.173 212.096 150.916 213.462 150.466C213.711 150.382 213.543 151.609 213.97 151.673C214.755 151.784 214.005 149.91 215.096 150.461C215.298 150.561 215.701 152.538 215.628 152.572C215.628 152.571 215.627 152.569 215.627 152.567ZM152.12 164.797C152.121 164.761 151.828 164.656 151.813 164.688C151.447 165.479 152.043 165.693 152.12 164.797ZM122.904 150.24C122.928 150.166 122.381 149.716 122.323 149.76C121.233 150.713 122.356 151.64 122.904 150.24ZM172.734 164.727C173.016 163.851 173.389 163.726 173.725 164.784C173.395 164.75 173.066 164.762 172.734 164.727Z" fill="#6EC9F2"/>
</svg>
