<svg width="186" height="179" viewBox="0 0 186 179" fill="none" xmlns="http://www.w3.org/2000/svg">
<path d="M86.2532 127.143H100.171L93.2123 134.102L86.2532 127.143Z" stroke="#6EC9F2" stroke-width="15" stroke-linecap="round" stroke-linejoin="round"/>
<path d="M130.328 106.265V110.905" stroke="#6EC9F2" stroke-width="15" stroke-linecap="round" stroke-linejoin="round"/>
<path d="M29.4717 84.9801C29.3258 86.4383 28.7244 88.2502 28.1708 89.6234C27.998 90.0536 27.6506 89.7531 27.5142 90.0484C27.2485 90.6274 27.339 91.2281 27.0544 91.7983C26.9582 91.9874 26.38 91.6324 26.2933 91.8341C25.8229 92.943 25.8116 94.0653 25.5149 95.2224C24.1599 100.519 23.5353 105.896 23.2772 111.421C23.2568 111.849 23.2406 112.272 23.2284 112.694C23.1674 114.592 22.7596 116.98 23.2626 118.918C23.3215 119.144 23.8522 118.936 23.9029 118.974C24.6837 119.557 23.548 119.481 23.4648 119.947C23.1373 121.78 23.4836 123.785 24.1174 125.402C24.3895 126.088 25.2672 125.103 24.8574 125.964C24.8304 126.024 24.2154 125.997 24.2071 126.207C24.1884 126.685 24.5281 127.479 24.5902 127.836C24.7038 128.516 24.7447 128.623 24.9425 129.236C25.207 130.067 25.3001 131.165 25.7798 131.995C25.8835 132.17 26.3412 131.699 26.556 131.954C26.7692 132.21 27.0508 132.997 27.0401 133.317C27.0269 133.635 26.5464 133.718 26.4683 133.809C25.8078 134.578 27.3846 134.941 27.4664 135.031C28.9545 136.847 29.3092 138.892 30.52 140.71C31.4394 142.084 32.6838 143.348 33.6543 144.572C34.8082 146.029 35.6499 147.424 36.9894 148.669C37.1304 148.8 37.4658 148.138 37.6375 148.295C39.4632 149.963 41.2685 151.595 42.9872 153.466C43.159 153.654 42.5296 153.961 42.6811 154.179C43.5964 155.507 45.0606 157.941 47.272 156.117C48.1022 156.758 49.1237 157.479 49.6895 158.412C50.0546 159.012 49.2126 159.325 50.0099 159.428C50.1891 159.451 50.2763 158.825 50.5223 158.898C51.5522 159.203 52.5152 159.902 53.5889 160.072C53.8081 160.105 53.982 159.6 54.0767 159.539C54.8538 159.05 55.0816 160.557 55.218 160.719C56.2306 161.925 57.2865 162.065 58.5131 162.558C58.798 162.672 58.7161 161.877 58.9977 161.962C60.4326 162.401 61.9041 162.978 63.2141 163.726C63.5077 163.894 63.0342 164.382 63.166 164.492C63.7556 164.972 64.2397 163.92 64.8124 164.349C64.9344 164.437 64.7108 164.914 64.7196 164.976C64.8638 165.953 65.5516 164.827 65.658 164.828C67.0151 164.812 67.5091 166.312 68.8014 166.433C68.9554 166.445 68.7759 165.725 69.1976 165.799C72.021 166.288 74.9382 167.02 77.6834 167.945C78.1124 168.088 77.7288 168.533 77.7476 168.597C78.0708 169.605 78.5439 168.38 78.6896 168.351C79.8545 168.158 80.8043 169.342 81.7382 167.911C85.5202 168.728 89.3795 168.458 93.2123 168.949C94.1867 169.073 95.1585 169.245 96.1334 169.495C96.1949 169.509 96.1009 170.14 96.2241 170.166C97.7062 170.476 97.4072 169.506 98.3195 168.273C98.5468 167.963 99.3586 169.366 99.4325 169.467C99.6941 169.843 99.4957 170.79 99.5806 170.861C100.29 171.414 99.9949 168.335 100.881 168.276C100.91 168.279 100.831 168.855 100.91 168.906C101.156 169.068 101.373 168.825 101.616 169.004C102.171 169.416 102.487 170.9 103.217 169.958C103.308 169.836 103.002 168.105 103.797 168.113C104.109 168.121 105.514 167.943 105.916 168.008C106.32 168.076 106.117 168.668 106.148 168.689C107.296 169.304 106.932 169.659 107.609 170.689C108.292 171.712 107.798 169.125 107.974 168.805C108.152 168.487 109.017 168.987 109.241 169.17C109.465 169.354 109.277 169.745 109.466 169.839C110.724 170.451 109.767 168.474 110.072 168.005C110.777 166.894 111.763 168.704 112.609 168.745C112.835 168.756 112.578 168.351 112.763 168.275C113.492 167.979 114.068 168.487 114.812 167.764C114.933 167.647 115.382 166.355 116.01 167.095C116.101 167.202 116.025 167.717 116.371 167.751C116.888 167.804 117.778 167.704 118.251 167.42C118.599 167.21 117.973 166.541 118.509 166.664C118.748 166.718 118.468 167.272 118.91 167.335C119.351 167.4 120.361 167.111 120.739 166.988C121.118 166.866 120.745 166.339 120.765 166.291C120.889 166.015 121.53 165.527 121.593 165.509C124.785 164.5 128.067 164.422 130.971 162.816C131.196 162.691 130.787 162.17 130.819 162.145C131.517 161.551 131.558 163.389 132.361 163.659C131.753 162.507 132.185 162.575 132.693 162.187C132.937 161.999 132.578 161.609 132.581 161.551C132.66 160.674 133.351 161.439 133.511 161.586C134.096 162.131 134.002 161.202 134.4 161.561C134.798 161.914 134.696 162.778 135.24 162.5C135.186 162.009 134.25 161.115 134.568 160.738C135.756 159.338 138.948 158.642 140.168 157.985C141.384 157.346 141.7 157.028 142.452 156.726C143.818 156.161 142.869 155.716 143.347 154.872C143.815 154.023 144.78 156.063 145.165 156.373C145.552 156.681 145.374 156.202 145.659 156.317C145.944 156.431 145.858 156.9 146.222 156.751C146.591 156.6 146.9 155.288 146.689 154.816C146.251 153.814 145.211 153.229 146.202 152.931C146.26 152.914 146.487 153.481 146.69 153.392C148.296 152.663 149.644 151.5 151.152 150.576C151.361 150.45 151.664 151.062 151.791 150.992C153.116 150.256 151.974 149.847 151.634 148.449C152.68 149.693 153.708 150.066 154.473 149.239C154.928 148.743 154.323 148.357 154.23 147.709C154.201 147.515 154.873 147.478 154.675 147.197C154.025 146.282 152.824 145.829 153.892 145.3C153.94 145.277 154.302 145.773 154.436 145.667C155.303 144.971 154.493 144.164 155.069 143.17C155.518 142.394 157.003 141.472 157.654 140.652C159.173 141.656 159.369 140.563 158.495 139.576C158.889 139.021 159.187 138.359 159.652 137.868C159.812 137.699 160.204 138.08 160.267 138.082C161.265 138.117 160.328 137.274 160.352 137.125C160.664 135.515 162.055 134.711 161.805 132.963C161.796 132.899 160.659 132.344 161.663 132.322C161.732 132.32 162.079 133 162.385 132.355C162.69 131.716 163.801 130.665 163.553 129.533C163.497 129.257 162.701 128.381 163.607 128.15C163.73 128.119 164.056 128.292 164.276 128.259C164.982 128.143 163.8 127.634 164.941 127.587C166.081 127.541 167.079 126.991 166.597 125.794C166.584 125.756 165.658 125.281 165.744 124.974C165.884 124.488 166.241 123.823 166.338 123.293C166.384 123.04 165.735 123.082 165.732 123.036C165.708 121.277 166.439 120.215 166.892 118.381C166.976 118.049 166.217 117.021 166.941 116.425C167.731 115.76 170.768 116.734 170.135 114.951C169.877 114.225 166 113.276 168.041 112.106C167.994 111.878 167.961 111.651 167.939 111.425C167.715 109.346 168.436 107.339 167.66 105.256C167.622 105.152 166.51 104.89 166.509 104.646C166.508 104.281 167.003 104.045 167.017 103.781C167.088 102.676 166.562 101.717 166.521 100.664C166.503 100.263 167.044 100.346 167.021 99.8661C166.996 99.3852 166.269 99.151 166.523 98.4683C166.716 97.9532 168.062 97.2784 168.134 96.5992C166.742 96.7685 166.71 96.3195 166.225 95.59C166.131 95.4501 165.673 95.6851 165.604 95.6229C165.311 95.3729 165.669 95.0436 165.355 94.813C165.279 94.7569 164.806 94.83 164.718 94.7888C163.949 94.4445 164.881 93.5127 165.042 93.3474C165.656 92.7232 165 92.5979 165.205 92.1642C165.409 91.7287 165.861 92.2398 165.944 91.7581C166.115 90.7574 165.795 89.5688 165.609 88.6189C165.532 88.2402 164.964 88.635 164.939 88.584C164.611 87.8459 165.088 86.9042 163.748 86.7737C166.818 85.4666 163.328 86.383 163.692 85.1334C163.721 85.0347 165.201 84.535 165.508 84.816C165.815 85.098 165.47 85.7263 165.929 86.1113C166.037 86.2006 167.609 86.5071 167.716 86.5777C168.549 87.1179 166.301 87.729 166.184 87.792C164.931 88.5 166.634 88.9387 166.784 89.1272C167.47 89.9722 167.308 90.8453 167.806 91.5761C168.129 92.0553 169.637 91.8363 169.666 92.2621C169.758 93.6845 167.733 94.484 169.751 95.5094C170.181 95.7315 171.791 95.2154 170.637 96.4132C170.565 96.4907 169.479 97.3951 170.285 97.7296C170.387 97.7718 170.868 97.7091 170.917 97.7761C171.24 98.2273 170.895 98.5964 171.139 99.1019C171.384 99.6077 171.726 100.217 171.622 100.838C171.56 101.213 170.702 101.762 170.497 101.954C169.905 102.495 170.99 102.932 170.243 103.295C169.492 103.656 168.273 103.162 167.831 103.981C169.091 103.918 170.387 103.892 171.655 103.85C171.737 105.624 171.413 107.382 171.512 109.151C171.526 109.371 172.198 109.129 172.23 109.366C172.322 110.073 172.11 110.721 172.047 111.404C172.047 111.408 172.047 111.42 172.047 111.425C172.019 111.718 172.016 112.016 172.068 112.33C172.21 113.158 172.9 114.087 173.037 114.963C171.573 115.414 171.981 116.734 171.762 117.648C171.687 117.968 171.306 117.91 171.158 118.125C170.609 118.933 171.917 118.666 172.091 118.925C172.823 120.067 169.949 119.81 169.854 120.985C169.849 121.043 171.252 122.044 171.327 122.17C171.832 122.95 170.781 122.194 170.598 122.597C170.258 123.344 169.8 123.802 170.055 124.789C170.132 125.075 170.932 125.913 170.088 126.26C169.977 126.306 169.491 126.152 169.45 126.199C168.735 127.052 170.275 127.459 170.651 128.165C171.024 128.875 169.714 129.443 169.359 129.519C168.436 129.739 169.123 129.075 169.051 129.029C168.209 128.482 168.197 129.131 167.975 129.578C166.456 129.192 166.35 129.85 167.752 130.037C167.906 130.056 167.879 129.651 167.975 129.578C169.324 130.43 169.271 131.257 167.643 131.575C166.879 131.721 166.265 131.12 166.144 132.299C166.083 132.838 167.166 133.024 167.271 133.573C167.507 134.841 166.032 135.756 165.71 136.831C165.592 137.224 166.294 137.112 166.23 137.391C166.059 138.137 165.376 138.525 165.238 139.292C165.226 139.363 165.852 139.496 165.751 139.709C164.991 141.331 163.877 142.475 162.877 144.025C162.398 144.773 161.776 146.29 161.168 146.999C160.125 148.243 158.199 149.2 157.48 150.353C157.004 151.108 157.592 151.372 157.649 151.94C157.752 153.05 155.772 153.008 155.494 152.964C155.486 152.963 155.906 152.315 155.398 152.387C154.76 152.096 155.499 152.955 155.494 152.964C155.312 152.948 154.144 153.919 154.005 154.209C153.932 154.369 154.404 154.728 154.357 154.804C153.243 156.6 151.754 158.088 149.953 159.156C149.917 159.169 149.555 158.62 149.476 158.658C148.358 159.162 148.236 160.249 147.702 161.218C147.17 162.183 146.403 162.509 145.303 161.89C144.766 162.419 143.601 162.57 142.928 162.629C142.254 162.688 142.842 163.82 142.808 163.87C141.783 165.422 140.54 165.283 138.97 165.982C138.219 166.316 136.827 167.213 136.082 167.711C135.49 168.112 134.98 168.015 134.462 168.454C134.391 168.513 134.702 168.996 134.687 169.027C134.286 169.945 134.054 168.53 133.818 168.363C132.962 167.751 132.486 167.434 131.804 168.172C131.65 168.34 131.818 170.427 131.487 170.681C131.062 171.006 130.983 170.269 130.548 170.621C130.51 170.65 130.677 171.06 130.362 171.158C128.904 171.615 127.232 171.919 125.747 172.433C125.542 172.501 126.018 173.087 125.723 173.198C124.333 173.72 122.775 174.137 121.305 174.179C120.942 174.188 121.034 173.657 120.923 173.535C120.254 172.798 119.927 174.198 119.826 174.248C117.431 175.462 115.249 174.729 112.741 175.723C112.611 175.78 111.733 177.317 111.06 176.227C111.013 176.155 110.354 175.037 110.048 175.914C110.028 175.969 110.421 176.539 109.883 176.553C109.345 176.567 108.549 177.092 107.743 176.504C107.485 176.32 106.812 175.191 106.238 176.218C106.209 176.29 105.357 178.559 104.835 177.106C104.75 176.867 104.664 175.287 103.932 176.169C103.791 176.339 104.105 176.666 103.714 176.922C103.113 177.315 102.246 176.959 101.513 177.715C101.385 177.849 100.874 178.959 100.361 178.172C100.281 178.049 100.388 177.513 100.141 177.468C98.9725 177.251 97.7569 177.655 96.5762 177.321C96.1581 177.203 96.3481 176.345 95.9141 176.126C95.4797 175.907 94.6153 175.7 94.1676 176.093C93.7181 176.486 94.2236 177.845 93.5381 177.957C93.4296 177.974 93.321 177.99 93.2123 178.004C90.3318 178.372 87.5087 177.53 84.6773 177.219C84.2378 177.17 84.5685 177.683 83.9166 177.643C81.53 177.516 77.3247 177.484 75.4068 176.124C73.8954 175.046 76.0499 174.749 74.8616 174.218C74.2961 173.964 73.3813 175.411 73.2215 175.433C71.6935 175.676 70.843 174.795 69.5223 174.734C69.2474 174.721 69.3736 175.404 69.1401 175.385C68.3392 175.326 67.592 174.862 66.8489 174.736C66.515 174.681 66.4592 175.172 66.1653 175.061C65.4567 174.798 64.8583 174.43 64.2767 173.797C64.2244 173.74 64.8117 173.268 64.2887 173.102C63.441 172.836 62.5181 172.099 61.4013 172.245C61.0709 172.29 60.7221 173.355 60.3296 172.419C60.2472 172.223 60.8263 170.999 59.7477 171.869C59.5763 172.018 57.8344 173.087 57.5658 171.918C57.4946 171.611 57.4674 170.434 57.068 170.472C57.0118 170.48 56.9924 171.114 56.6867 171.064C55.6183 170.881 54.575 170.406 53.4803 170.158C53.1863 170.092 53.3581 170.837 52.9254 170.719C51.7419 170.399 50.3781 169.619 49.3842 168.93C49.0168 168.674 49.5146 168.34 49.5094 168.275C49.4442 167.233 48.6346 168.207 48.4458 168.194C47.2893 168.103 46.8262 167.212 45.8908 166.883C45.6326 166.79 45.5225 167.398 45.45 167.418C44.7054 167.596 45.5817 166.872 45.3232 166.598C44.6022 165.827 43.6208 165.315 42.721 164.857C42.3872 164.687 42.393 165.488 42.0953 165.327C40.3265 164.385 38.6237 163.164 37.2741 161.705C37.0218 161.43 37.5191 161.145 37.529 161.003C37.614 160.026 36.3169 160.472 36.1068 160.446C35.1616 160.341 35.2016 159.778 34.5955 159.396C31.5976 157.523 28.6631 154.217 26.6697 151.55C24.0502 148.065 22.5695 145.019 20.4609 141.498C20.3284 141.272 19.8439 141.839 19.721 141.647C18.1574 139.126 17.2176 136.375 16.0198 133.668C15.9229 133.444 15.4198 133.999 15.2437 133.647C14.8782 132.927 14.588 131.944 14.5499 131.102C14.5304 130.693 15.2284 131.033 15.1992 130.628C15.1332 129.681 14.9215 128.749 14.5869 127.862C14.4437 127.485 13.9361 128.239 13.8008 127.732C12.8778 124.303 12.2033 120.793 12.7899 117.215C12.8303 116.967 14.1834 116.654 13.8861 116.169C13.5029 116.156 13.0554 116.188 12.6475 116.198C12.4715 114.592 12.4214 113.036 12.4555 111.425C12.528 108.122 12.891 104.837 13.1944 101.533C13.2131 101.329 12.4596 101.626 12.4924 101.23C12.6834 98.9392 12.7177 96.6792 13.7433 94.4451C13.8445 94.2237 15.0973 94.5113 14.9979 93.8126C14.9784 93.6891 14.9547 92.6514 14.7204 92.347C14.6844 92.3049 14.0649 92.4025 14.0973 92.0708C14.2969 90.1449 14.7826 88.1645 15.517 86.3485C15.6367 86.0559 16.1965 86.5044 16.2871 86.2979C16.9236 84.8389 16.8173 83.076 17.7276 81.7621C18.3395 80.8875 19.3227 81.5062 20.4989 81.2631C20.6646 81.2289 20.8358 80.6503 21.4545 80.7768C23.0096 81.0938 24.6214 81.7977 26.2876 82.1019C26.6458 82.1681 26.458 81.3272 27.196 81.9866C27.2448 82.0322 27.3907 82.6409 27.6475 82.8449C27.8246 82.9865 28.4876 82.9784 28.6973 83.2281C28.907 83.4769 28.3346 83.5518 28.5609 83.9335C28.7917 84.315 29.5322 84.3515 29.4717 84.9801ZM139.926 162.833C139.151 162.566 140.166 164.568 140.432 163.803C140.443 163.764 139.966 162.845 139.926 162.833ZM169.708 107.439C168.748 108.177 170.215 108.61 170.963 108.086C171.708 107.555 169.999 107.211 169.708 107.439ZM168.456 100.239C167.765 101.128 170.943 100.946 170.212 100.124C170.17 100.076 168.496 100.186 168.456 100.239ZM20.2413 83.667C20.2719 83.6664 20.3974 83.2516 20.3712 83.2348C19.7294 82.8477 19.4775 83.6823 20.2413 83.667ZM166.687 93.2486C166.306 93.5703 166.916 94.2063 167.392 93.808C167.775 93.4847 167.16 92.8446 166.687 93.2486ZM112.826 169.818C112.812 169.787 112.504 169.812 112.544 169.996C112.671 170.592 113.065 170.346 112.826 169.818ZM163.922 81.4348C164.306 83.204 162.036 84.9055 161.817 82.9896C161.776 82.6404 162.826 83.4852 162.935 82.9958C163.131 82.0914 161.398 82.0352 162.009 80.9943C162.121 80.801 163.906 81.3292 163.927 81.4369C163.925 81.4362 163.924 81.4355 163.922 81.4348ZM138.337 160.635C138.314 160.614 137.929 160.795 137.934 160.826C138.074 161.562 138.858 161.194 138.337 160.635ZM95.0295 170.131C95.0055 170.069 94.0316 170.021 93.9998 170.078C93.4944 171.248 95.485 171.35 95.0295 170.131ZM157.704 140.664C157.341 139.902 157.538 139.421 158.493 139.578C158.223 139.935 157.981 140.311 157.704 140.664Z" fill="#6EC9F2"/>
<path d="M56.0972 106.265V110.905" stroke="#6EC9F2" stroke-width="15" stroke-linecap="round" stroke-linejoin="round"/>
<path d="M65.935 62.0976C64.9755 64.7024 62.9564 67.8542 61.068 69.9844C60.4795 70.6535 60.4196 70.0561 59.9963 70.4975C59.1662 71.3533 58.621 72.339 57.7035 73.1069C57.3992 73.3569 57.2458 72.5795 56.9401 72.8468C55.2693 74.301 53.874 75.8617 52.0454 77.1704C48.5122 79.6946 44.6471 81.614 40.6716 82.9303C34.5587 84.9642 27.9353 85.7046 21.4101 84.5889C17.8323 84.0003 13.8474 82.1879 10.4478 80.5773C10.0426 80.3871 10.0056 80.9982 9.90861 80.9964C8.38449 80.9227 9.33446 80.1812 8.68143 79.5935C6.16281 77.1446 3.07192 74.7795 1.73082 70.1991C1.65994 69.907 1.59782 69.6989 1.53224 69.5519C1.1928 68.8998 0.533156 69.9466 0.97919 68.4765C1.01722 68.3602 1.61674 68.7567 1.66587 68.3062C1.77413 67.4191 1.76181 65.8424 1.87226 65.1832C2.06953 64.0521 2.10024 63.7626 2.24438 62.7079C2.46791 61.1476 3.04723 59.4872 3.22857 57.8743C3.26701 57.5238 2.5855 57.8665 2.59565 57.2913C2.59728 56.7498 2.95158 55.3328 3.20277 54.8729C3.44634 54.4378 3.86297 54.7411 3.98729 54.6827C5.02654 54.2232 4.1966 52.2733 4.21649 52.0754C4.65664 48.1436 6.31731 45.1148 7.49321 41.6524C8.38718 39.0203 9.22262 36.1488 10.2882 33.7038C11.5595 30.7985 12.9958 28.4974 14.3817 25.7382C14.5296 25.4475 13.7248 25.4553 13.9058 25.0976C15.8381 21.2952 18.1935 17.6573 21.2494 14.5478C21.5573 14.2369 21.6976 15.0599 22.0323 14.776C24.0604 12.9855 27.7027 11.0158 27.1675 7.9574C28.6277 6.81366 30.547 5.53781 32.2618 5.14112C33.3617 4.89368 32.81 5.99515 33.7852 5.10974C34.0094 4.91373 33.3895 4.57598 33.7555 4.31935C35.3266 3.22674 37.3279 2.61009 39.086 1.80882C39.444 1.64437 39.2064 1.16002 39.291 1.03841C39.8116 0.328897 40.9322 0.589077 41.6205 0.845315C41.8878 0.949793 42.0953 1.0454 42.1918 1.0578C44.71 1.38612 46.4212 1.00679 48.7011 1.04268C49.2286 1.05622 48.6138 0.330812 49.1304 0.320334C51.8071 0.280399 54.5994 0.708824 57.0625 1.6312C57.6079 1.83883 56.9457 2.30185 57.1966 2.43142C58.2822 3.00172 58.8552 1.97389 59.9054 2.57157C60.1234 2.69729 59.8268 3.14702 59.8512 3.21529C60.2112 4.28028 61.1983 3.296 61.3839 3.33687C63.6807 3.82357 64.4271 5.66371 66.3623 6.59599C66.5985 6.71221 66.4323 5.83799 67.081 6.20568C71.4086 8.64829 75.3282 12.8972 76.7927 17.8368C77.0147 18.5958 76.3433 18.2577 76.3069 18.3288C75.7057 19.3873 77.0506 19.4264 77.1782 19.671C78.1232 21.5655 77.26 23.4984 78.7773 24.8718C78.7761 24.8933 78.7749 24.9148 78.7736 24.9363L75.3868 22.3021C83.1158 20.8628 91.0828 19.3624 98.764 21.3289C98.8608 21.3524 98.6363 21.9649 98.8284 22.0091C101.134 22.5668 100.765 21.5599 102.493 20.5659C102.936 20.318 103.933 21.9203 104.015 22.0423C104.337 22.4864 103.798 23.3488 103.914 23.4431C104.852 24.1943 105.19 21.1101 106.643 21.3773C106.687 21.3908 106.392 21.9143 106.502 21.9927C106.841 22.2377 107.254 22.0887 107.578 22.3554C108.321 22.9743 108.273 24.4963 109.711 23.94C109.895 23.8699 110.063 22.0971 111.315 22.5026C111.505 22.5656 111.951 22.6863 112.461 22.8341L109.184 25.326C109.185 24.3519 109.33 23.1908 109.472 22.7587C109.699 22.0609 110.177 22.6485 110.209 22.5985C111.295 20.9194 111.476 21.6859 112.756 21.164C114.045 20.7208 111.485 20.1213 111.331 19.6661C111.174 19.1997 112.268 18.2033 112.607 18.0274C112.939 17.8383 113.088 18.3464 113.318 18.1554C114.852 16.9521 112.554 16.8193 112.503 16.06C112.471 14.197 114.791 14.3548 115.763 13.5187C116.033 13.2864 115.508 13.2118 115.689 12.9447C116.44 11.881 117.388 11.7941 118.101 10.4321C118.206 10.2149 118.406 8.53027 119.547 8.76445C119.707 8.8015 119.753 9.36867 120.248 9.1426C120.992 8.79825 122.234 8.11848 122.892 7.55713C123.381 7.13858 122.35 6.80174 123.177 6.62336C123.541 6.55005 123.194 7.27334 123.854 7.10723C124.507 6.93549 125.999 6.19484 126.579 5.93952C127.154 5.67698 126.603 5.25222 126.633 5.19453C126.83 4.85121 127.894 4.12714 128.002 4.0938C133.31 2.11248 138.58 2.48656 143.878 2.56587C144.298 2.57557 144.075 1.91416 144.14 1.90905C145.623 1.7841 144.316 3.36136 145.222 4.03787C145.239 2.73293 145.79 3.02558 146.812 3.04754C146.851 3.04835 146.886 3.04584 146.917 3.04048C147.287 2.97987 147.137 2.51713 147.186 2.47732C148.082 1.85812 148.407 2.9522 148.48 3.17639C148.776 4.00888 149.505 3.30037 149.688 3.87381C149.853 4.43958 148.95 4.92343 149.841 5.19262C150.243 4.83499 149.921 3.44972 150.704 3.50033C153.807 3.62101 158 7.3475 159.549 8.8901C161.212 10.4094 161.75 10.8564 162.556 11.8992C163.938 13.787 164.005 12.553 165.299 13.3917C166.569 14.2468 164.398 15.1243 164.167 15.5881C163.926 16.0444 164.442 15.8993 164.395 16.2571C164.344 16.6121 163.761 16.4051 164.043 16.9125C164.328 17.4157 165.944 18.1476 166.47 18.0301C167.582 17.7663 168.054 16.5106 168.663 18.0424C168.697 18.1306 168.049 18.2225 168.201 18.5426C169.398 21.0424 170.845 23.4904 171.784 26.0587C171.912 26.413 171.183 26.4286 171.25 26.6372C171.93 28.8052 172.519 27.5857 174.171 28.1519C172.598 28.6299 172.031 29.6772 172.743 31.1976C173.168 32.1168 173.733 31.6608 174.462 32.0563C174.682 32.1761 174.536 33.0364 174.893 33.0216C176.06 32.9812 176.903 31.8572 177.166 33.6913C177.176 33.772 176.531 33.7771 176.604 34.0387C177.062 35.7352 178.191 35.4931 179.012 37.2143C179.657 38.5666 179.904 41.2866 180.322 42.9108C178.589 43.4591 179.474 44.8131 180.859 45.0426C181.141 46.1062 181.546 47.2058 181.671 48.266C181.715 48.6344 181.143 48.548 181.101 48.6082C180.435 49.5278 181.733 49.6465 181.842 49.8604C182.966 52.2108 182.553 54.4137 183.947 56.6157C183.996 56.6913 185.265 56.5763 184.489 57.391C184.436 57.4458 183.714 56.7797 183.896 57.902C184.087 59.0747 183.793 61.2553 184.589 62.7754C184.781 63.1267 185.928 63.999 185.207 64.8798C185.109 64.9932 184.737 64.9166 184.551 65.082C183.951 65.5767 185.254 65.8186 184.205 66.4447C183.285 66.9485 182.625 67.9417 182.825 69.0348C182.855 69.1874 182.899 69.3595 182.952 69.5606C182.967 69.5879 183.865 70.2106 183.647 70.7038C183.317 71.4687 182.518 72.3161 181.992 72.9503C181.742 73.2548 182.383 73.4682 182.347 73.5285C180.729 75.8779 178.68 76.6182 176.049 77.7312C175.57 77.9356 174.515 79.3669 173.286 79.0925C171.985 78.7616 172.011 75.5396 170.022 76.9054C169.274 77.4194 168.755 81.5797 166.574 79.8354C163.064 80.8034 159.809 79.6711 156.224 79.7491C156.066 79.753 155.351 80.7287 154.964 80.6296C154.398 80.4823 154.219 79.9129 153.831 79.7814C152.468 79.3022 151.123 79.1824 149.797 78.7444C149.555 78.6638 149.316 78.5732 149.082 78.4687C148.515 78.2117 148.911 77.8068 148.249 77.489C147.597 77.168 146.842 77.5877 146.094 76.8219C145.532 76.2381 145.586 74.6401 144.885 74.0038C144.11 75.1683 143.545 74.7984 142.335 74.3826C142.102 74.3023 142.02 74.8458 141.894 74.8274C141.366 74.7535 141.273 74.1737 140.758 74.113C140.633 74.0973 140.329 74.4672 140.208 74.4736C139.157 74.5396 138.916 72.8747 138.904 72.5998C138.805 71.531 138.111 71.7131 137.881 71.0702C137.664 70.4344 138.541 70.8514 138.183 70.2235C137.449 68.9315 136.243 67.5463 135.428 66.3247C135.102 65.8409 134.8 66.5294 134.742 66.4687C133.905 65.5358 133.858 64.1349 132.414 64.1723C134.863 61.8089 131.754 63.6887 131.517 61.7824C131.501 61.631 132.819 60.7886 133.255 61.1451C133.69 61.4981 133.626 62.4203 134.29 62.8671C134.448 62.982 136.184 63.0563 136.322 63.1082C137.418 63.5722 135.55 64.9456 135.473 65.0665C134.662 66.3556 136.655 66.4488 136.917 66.6107C138.145 67.4284 138.655 68.5266 139.706 69.1223C140.395 69.5094 141.517 68.4725 141.879 68.8882C143.071 70.2162 142.345 72.3583 144.874 71.8929C145.416 71.7818 146.007 70.1965 146.397 71.9948C146.41 72.1035 146.669 73.6567 147.555 73.2672C147.664 73.2175 147.891 72.7883 147.992 72.7958C148.663 72.8519 148.864 73.383 149.57 73.5029C150.195 73.6054 150.944 73.6605 151.583 73.973C151.659 74.01 151.734 74.0512 151.808 74.0965C152.221 74.3538 152.515 75.4052 152.674 75.6878C153.136 76.5067 154.1 75.692 154.302 76.5427C154.527 77.4014 153.387 78.3311 154.407 79.1021C154.745 77.8865 155.138 76.6495 155.487 75.4288C157.704 75.9941 159.944 76.6766 162.271 76.6231C162.555 76.6143 162.265 75.9378 162.563 75.9095C163.823 75.7867 164.968 76.1875 166.251 75.8112C167.251 75.514 168.166 74.5939 169.091 74.1543C170.077 75.3911 171.45 74.4415 172.509 74.1194C172.884 74.0075 173.02 74.3676 173.33 74.3646C174.494 74.3275 173.483 73.3921 173.644 73.0899C174.257 71.7947 175.792 74.2631 177.025 73.3383C177.109 73.2833 176.91 71.5034 176.909 71.3703C177.059 70.4255 177.351 71.7032 177.778 71.4792C178.533 71.0725 179.263 70.8335 179.37 69.8841C179.415 69.5803 178.769 68.7747 179.51 68.8642C179.611 68.8667 180.089 69.0411 180.127 69.0211C180.325 68.9051 180.293 68.7892 180.143 68.7295C179.826 68.4474 178.961 68.2113 178.589 67.8616C178.056 67.3023 179.081 66.1845 179.371 65.8784C180.138 65.2174 179.763 66.3247 179.842 66.3564C180.827 66.6932 180.605 65.812 180.62 65.1859C182.173 64.9456 181.965 63.9601 180.621 64.4805C180.476 64.5406 180.679 65.051 180.62 65.1859C179.03 64.743 178.73 63.8616 179.97 62.4742C180.552 61.8468 181.423 62.2558 180.853 60.6259C180.594 59.9076 179.586 60.3934 179.176 59.8026C178.236 58.4239 178.812 56.3317 178.286 54.8318C178.095 54.2846 177.653 54.9697 177.502 54.6012C177.105 53.6516 177.308 52.6616 176.817 51.7161C176.773 51.6328 176.235 52.0112 176.145 51.7089C175.436 49.391 175.206 47.2566 174.412 44.8422C174.033 43.6789 172.976 41.7257 172.591 40.5291C171.928 38.44 171.716 35.6006 170.736 33.9765C170.102 32.9223 169.65 33.4282 169.05 33.1384C167.896 32.5909 168.423 30.3781 168.508 30.0562C168.512 30.0448 169.114 30.9123 169.146 30.2709C169.588 29.6806 168.516 30.0646 168.508 30.0562C168.573 29.8481 167.722 27.9392 167.412 27.6388C167.247 27.4742 166.796 27.8682 166.72 27.7779C164.921 25.6283 163.372 23.4412 161.991 21.1034C161.972 21.0581 162.542 20.7272 162.491 20.6247C161.786 19.1877 160.504 18.8833 159.333 18.2593C158.145 17.6213 157.625 16.8599 157.878 15.5305C157.114 14.9698 156.452 13.7141 156.034 12.9918C155.618 12.2682 154.75 13.221 154.685 13.2008C152.583 12.6442 152.07 11.4614 150.276 10.493C149.438 10.0288 147.614 9.60665 146.632 9.56225C146.331 9.54165 146.087 9.47837 145.855 9.41203C145.438 9.29855 145.06 9.17426 144.559 9.23074C144.449 9.24306 144.488 9.81987 144.453 9.83762C143.511 10.4135 144.075 9.08253 143.916 8.81564C143.334 7.85578 142.902 7.33028 141.695 7.71723C141.403 7.80474 140.614 9.79716 140.168 9.92748C139.565 10.0938 139.766 9.3682 139.13 9.57487C139.076 9.59271 139.114 10.0311 138.721 10.0392C136.904 10.0826 134.87 10.1591 133.036 10.7057C132.787 10.7785 133.29 11.3667 132.941 11.4825C131.303 12.0276 129.565 12.6721 127.936 13.1273C127.532 13.2392 127.538 12.6859 127.391 12.5971C126.473 12.0735 126.395 13.5937 126.31 13.6748C124.086 15.7209 121.551 16.3428 120.242 18.9463C120.147 19.115 120.699 20.7335 119.469 20.5445C119.391 20.5212 118.076 20.4062 118.634 21.1614C118.672 21.2035 119.349 21.2136 119.088 21.6333C118.822 22.0712 118.967 22.8768 118.167 23.3274C117.916 23.4484 116.611 23.797 117.508 24.5392C117.547 24.5755 118.403 25.0189 118.666 25.326C118.495 30.3011 114.676 33.4655 109.927 31.971C109.585 32.0314 109.311 31.8981 109.273 31.3238C109.258 31.0669 109.739 29.5499 108.462 30.0679C108.22 30.1709 108.506 30.6031 107.918 30.6879C107.023 30.8221 106.014 30.1681 104.867 30.6692C104.662 30.7569 103.737 31.6781 103.273 30.7773C103.2 30.6359 103.465 30.1437 103.154 30.0336C101.666 29.5079 100.015 29.6615 98.4804 29.1667C97.9338 28.9935 98.2876 28.1642 97.7128 27.8927C97.139 27.6203 95.9432 27.3377 95.3082 27.71C94.6778 28.082 95.3066 29.4592 94.3986 29.5471C90.4811 29.9447 86.5616 29.4344 82.6209 29.9803C82.0405 30.063 82.6007 30.4573 81.7584 30.6194C80.6269 30.8413 79.2145 31.2092 77.752 31.615C72.9767 32.6536 68.9964 29.8203 69.1651 24.9363C69.1287 23.2992 68.6149 21.5989 68.578 20.1515C68.4707 18.2755 70.1091 19.8604 69.7009 18.4931C69.4624 17.7906 67.7316 18.1177 67.6086 18.0415C66.2897 17.1665 66.0122 15.9123 64.7265 15.1233C64.4625 14.9669 64.2898 15.6514 64.0738 15.518C63.3433 15.0779 62.7512 14.3211 61.9965 13.9243C61.6576 13.7494 61.4698 14.2076 61.1897 14.003C60.517 13.5242 59.9548 13.0115 59.3694 12.2499C59.3132 12.1796 60.0448 11.8358 59.4552 11.5521C58.5002 11.0976 57.3711 10.2081 56.0354 10.323C55.6385 10.3608 55.3527 11.4359 54.7848 10.5038C54.6653 10.3125 55.1628 9.03722 54.0082 9.9813C53.7935 10.127 52.0851 11.4124 51.4849 10.3391C51.3237 10.0522 50.9224 8.90358 50.4497 9.04192C50.3876 9.06507 50.5822 9.68203 50.2117 9.714C48.9185 9.81984 47.5621 9.75131 46.2586 10.0243C45.9116 10.0993 46.4704 10.684 45.9614 10.7774C45.1616 10.9284 44.243 11.0209 43.332 11.107C42.7692 11.1515 42.2166 11.2004 41.7127 11.2557C41.2718 11.3059 41.4171 10.7282 41.3726 10.6824C40.5868 9.96172 40.6521 11.247 40.5228 11.3691C39.6616 12.1398 38.667 11.969 37.8052 12.6195C37.5717 12.7977 38.0411 13.2073 38.0167 13.2811C37.7685 14.0153 37.6163 12.8837 37.227 12.9795C36.1244 13.2564 35.1098 14.0369 34.2652 14.8288C33.9548 15.1218 34.7554 15.3427 34.4774 15.597C32.8477 17.1128 31.1379 18.8289 29.3662 20.4414C29.0301 20.7472 28.7956 20.2007 28.6432 20.1998C27.5683 20.2031 27.8994 21.6684 27.8609 21.9076C27.6717 23.01 27.069 23.0663 26.6398 23.8546C24.5392 27.7025 21.715 32.4932 19.8319 36.4019C17.3874 41.4738 15.4539 45.5362 14.0712 50.8237C13.9841 51.1603 14.7502 51.0129 14.6845 51.3037C13.8166 55.0354 12.6941 58.6453 12.2896 62.3669C12.2574 62.6643 12.9773 62.3477 12.9496 62.8214C12.8946 63.8116 12.699 65.0212 12.4071 65.9026C12.2675 66.3185 11.7535 65.6922 11.6247 66.1225C11.3425 67.0656 11.2719 68.1683 11.3849 68.4314C11.3868 68.3881 11.389 68.3508 11.3922 68.3186C11.4067 68.1633 12.1217 68.2583 12.0771 68.0369C11.8574 67.5556 12.727 68.9492 13.9278 69.8441C15.1298 70.8352 16.647 71.8475 18.2913 72.8993C18.5129 73.0412 18.3029 74.4268 18.9524 74.3515C19.1064 73.9997 19.2342 73.5696 19.3704 73.1849C24.7399 74.5844 30.6721 74.7823 36.3665 72.8273C36.6053 72.7445 35.9516 72.2067 36.4063 72.0437C36.4629 72.0231 36.5194 72.0023 36.576 71.9812C39.1146 71.026 41.2435 69.6957 43.8452 68.6406C44.1083 68.5289 44.7732 69.6435 45.3245 68.959C45.4258 68.8413 46.2956 67.8805 46.3426 67.4502C46.3461 67.3898 45.7775 67.1006 46.0595 66.8177C47.6999 65.1798 49.3691 63.4035 51.008 61.5866C51.2736 61.2925 51.5757 61.9925 51.7712 61.7822C53.1693 60.2633 53.7877 58.0669 55.1156 56.4864C56.0075 55.4109 56.8213 56.2957 58.1094 56.0128C58.2929 55.9717 58.6353 55.16 59.2401 55.3377C60.7672 55.782 62.2267 56.8264 63.8721 57.2539C64.2298 57.3462 64.3193 55.9708 64.8737 57.0098C64.912 57.0812 64.8407 58.0907 65.0265 58.4255C65.1559 58.6587 65.8653 58.6098 65.9815 59.0316C66.0955 59.4563 65.4546 59.607 65.5126 60.2621C65.5689 60.9215 66.3487 60.9764 65.935 62.0976ZM153.944 9.84058C153.621 8.9262 152.405 10.8146 153.328 10.7458C153.374 10.7405 153.961 9.88618 153.944 9.84058ZM159.796 78.2705C160.742 79.3369 161.474 77.8951 160.829 77.1054C160.214 76.3116 159.528 77.9462 159.796 78.2705ZM149.516 76.5197C150.348 77.692 151.615 74.7674 150.272 74.9299C150.196 74.9381 149.47 76.4518 149.516 76.5197ZM56.9644 59.3352C56.9968 59.3393 57.299 58.7813 57.278 58.7543C56.7788 58.1496 56.1849 59.2472 56.9644 59.3352ZM140.224 71.591C140.214 72.1729 141.373 72.5074 141.362 71.7946C141.361 71.2347 140.246 70.8847 140.224 71.591ZM116.613 14.2093C116.58 14.1947 116.252 14.5347 116.405 14.6484C116.892 15.0105 117.171 14.4224 116.613 14.2093ZM130.429 56.3574C131.304 58.9 129.648 61.5593 128.689 58.6024C128.525 58.0717 129.925 59.3788 129.869 58.6375C129.777 57.3052 127.928 57.1067 128.302 55.564C128.372 55.294 130.383 56.2177 130.434 56.3605C130.432 56.3595 130.431 56.3584 130.429 56.3574ZM154.962 7.30585C154.964 7.27036 154.411 6.91725 154.382 6.93698C153.734 7.38467 154.816 8.0763 154.962 7.30585ZM96.9406 21.8233C96.9081 21.7542 95.3662 21.6305 95.3139 21.6913C94.4873 22.8227 97.5487 23.071 96.9406 21.8233ZM180.284 42.9515C181.196 43.4161 181.546 44.2248 180.859 45.0392C180.69 44.3465 180.474 43.6565 180.284 42.9515Z" fill="#6EC9F2"/>
</svg>
