<svg width="228" height="225" viewBox="0 0 228 225" fill="none" xmlns="http://www.w3.org/2000/svg">
<path d="M56.28 16.7835C54.6798 17.0179 52.5822 16.7672 50.9881 16.4231C50.4885 16.3164 50.7415 15.8393 50.3966 15.7442C49.722 15.5587 49.0936 15.7927 48.4271 15.5717C48.2062 15.4961 48.4811 14.7404 48.2495 14.6785C47.955 14.601 47.6641 14.5518 47.375 14.5201C46.6881 14.4153 46.0222 14.54 45.3044 14.5048C41.5342 14.316 37.6674 15.7831 34.6627 18.4127C33.965 19.0196 33.3101 19.6865 32.7033 20.4076C31.6421 21.6413 30.0408 23.191 29.748 24.9782C29.7149 25.1834 30.3824 25.2827 30.4216 25.3367C31.0331 26.1502 29.8218 25.5498 29.535 25.8825C28.4056 27.199 28.0519 29.0841 28.2792 30.6441C28.3667 31.2294 29.4096 30.795 29.1432 31.125C29.1078 31.181 29.0492 31.2543 28.962 31.3502C28.912 31.4066 28.2076 31.2019 28.1325 31.4232C27.9635 31.9251 28.0894 32.8773 28.0336 33.2663C27.9225 34.016 27.9296 34.14 27.9215 34.8491C27.9044 35.8185 27.5543 36.9714 27.7139 38.0115C27.7501 38.2334 28.4721 37.9396 28.595 38.2936C28.7177 38.6479 28.6565 39.5854 28.4862 39.9014C28.3159 40.2176 27.7484 40.083 27.6183 40.1389C26.5204 40.5991 28.041 41.6835 28.0787 41.823C28.7194 44.3669 27.8532 46.5484 27.8556 48.9363C27.8593 50.7491 28.1453 52.6875 28.1061 54.4124C28.0566 56.4674 27.6653 58.209 27.7326 60.2054C27.7389 60.4161 28.5878 60.1692 28.5972 60.4265C28.696 63.1605 28.6035 65.8754 28.0303 68.5976C27.9721 68.8706 27.2267 68.5187 27.1239 68.7915C26.5114 70.4614 25.0398 73.1036 28.2852 74.0954C28.1585 75.2265 28.0275 76.5998 27.3733 77.6118C26.9523 78.2642 26.1402 77.6305 26.4867 78.432C26.5639 78.6128 27.2751 78.3777 27.3371 78.6488C27.5974 79.7902 27.3663 81.0371 27.7337 82.1662C27.8101 82.3959 28.4473 82.3332 28.5621 82.3983C29.4913 82.9451 27.9552 83.8556 27.8435 84.054C27.0112 85.5654 27.3387 86.669 27.3184 88.0769C27.3133 88.4036 28.1692 88.0174 28.1951 88.3318C28.218 88.6362 28.2341 88.9426 28.2426 89.25C28.2812 90.8266 28.0303 92.4358 27.4665 93.8683C27.3094 94.2581 26.6579 93.7587 26.5463 93.9344C26.0601 94.6854 27.3641 95.1646 26.873 95.9072C26.7703 96.0611 26.1908 95.8086 26.1166 95.822C24.9573 96.0057 26.3064 96.8125 26.299 96.9534C26.2511 98.6553 24.3882 99.0316 23.9609 100.449C23.9066 100.625 24.7998 100.599 24.5987 101.079C23.5142 103.667 21.6524 106.071 19.3997 107.775C18.8625 108.183 18.3051 108.554 17.7353 108.883C17.2756 109.146 17.1768 108.451 17.1034 108.418C15.9811 107.871 16.6911 109.257 16.5868 109.412C15.7644 110.578 14.0648 110.146 14.2018 112.174C9.97702 114.06 5.48984 115.815 0.875 115.212L0.875 109.788C1.98872 109.936 3.08341 110.227 4.11622 110.685C4.18246 110.713 3.96373 111.445 4.09341 111.497C5.63583 112.155 5.48488 110.953 6.93906 109.801C7.32495 109.518 7.73905 111.419 7.76055 111.561C7.89147 112.085 7.31314 113.085 7.37357 113.197C7.83526 114.078 8.82597 110.49 9.8605 110.851C9.88929 110.868 9.52765 111.463 9.58768 111.557C9.76971 111.849 10.1175 111.691 10.2787 112.007C10.6505 112.745 10.094 114.459 11.3194 113.876C11.48 113.805 12.2256 111.815 13.0406 112.342C13.3657 112.541 14.8459 113.356 15.1585 113.739C15.4765 114.11 14.8325 114.499 14.8457 114.543C15.35 115.965 14.7526 116.015 14.429 117.417C14.0683 118.799 15.8572 116.2 16.2706 116.074C16.6882 115.949 16.903 117.089 16.8838 117.419C16.8719 117.751 16.3926 117.903 16.4337 118.133C16.6782 119.638 17.8888 117.34 18.5428 117.266C18.8488 117.235 19.0561 117.303 19.1914 117.434C19.7525 117.978 19.0555 119.506 19.362 120.154C19.4679 120.377 19.7511 119.884 19.9276 120.019C20.6256 120.574 20.3444 121.407 21.4442 121.829C21.6177 121.886 23.2609 121.828 22.6466 122.822C22.5553 122.96 21.9511 123.082 22.0217 123.461C22.1289 124.027 22.4618 124.931 22.8806 125.373C23.1922 125.701 23.8567 124.846 23.815 125.475C23.7925 125.752 23.0983 125.572 23.0935 126.066C23.0914 126.552 23.5197 127.592 23.6704 127.996C23.8257 128.397 24.4431 127.947 24.5007 127.964C24.8385 128.076 25.4248 128.81 25.4419 128.887C26.1399 131.188 25.9943 133.54 25.7389 135.75C25.579 137.052 25.4929 138.356 25.6496 139.686C25.6804 139.957 26.4488 139.776 26.4615 139.818C26.7834 140.745 24.7404 140.014 24.0566 140.662C25.6159 140.568 25.3336 140.951 25.5046 141.604C25.5882 141.919 26.192 141.748 26.2538 141.776C27.1709 142.243 25.9864 142.568 25.7441 142.652C24.8527 142.961 25.9059 143.298 25.3101 143.508C24.7188 143.719 23.8421 143.235 23.8533 143.861C24.4115 144.037 25.8702 143.572 26.1066 144.048C27.0009 145.843 25.8564 149.194 25.7375 150.637C25.6187 152.077 25.7217 152.543 25.5199 153.382C25.1552 154.898 26.2375 154.343 26.7328 155.284C27.2282 156.228 24.5653 155.769 23.9929 155.905C23.4207 156.038 24.0097 156.184 23.6951 156.349C23.3806 156.515 22.9914 156.157 22.8733 156.546C22.7554 156.934 23.7733 157.997 24.3719 158.135C25.64 158.426 26.9709 157.947 26.5032 158.976C26.4755 159.035 25.7753 158.843 25.7045 159.069C25.1655 160.869 25.1321 162.738 24.6553 164.535C24.5887 164.782 23.8097 164.561 23.7621 164.705C23.2639 166.202 24.5773 165.667 26.0363 166.488C24.0947 166.303 22.9068 166.757 22.8953 167.894C22.8877 168.577 23.7358 168.46 24.3334 168.902C24.5136 169.034 23.9313 169.518 24.3301 169.605C25.6338 169.894 27.0931 169.439 26.512 170.611C26.4844 170.662 25.7708 170.499 25.7276 170.676C25.4447 171.825 26.8083 171.962 26.9734 173.203C27.103 174.177 26.2715 175.907 26.1363 177.015C23.9533 176.992 24.4532 178.038 25.9583 178.463C25.8967 179.182 25.9818 179.958 25.7737 180.653C25.7028 180.893 25.0708 180.735 25.0025 180.766C23.9312 181.228 25.3955 181.541 25.4529 181.696C26.011 183.378 24.9011 184.749 25.9858 186.354C26.0248 186.411 27.5412 186.503 26.434 186.932C26.3577 186.96 25.6678 186.43 25.6144 187.185C25.561 187.94 24.7481 189.364 25.4507 190.413C25.6199 190.666 26.8509 191.308 25.8891 191.823C25.7585 191.892 25.3236 191.817 25.0816 191.916C24.3105 192.236 25.8431 192.411 24.5411 192.787C23.7601 193.013 23.0968 193.385 22.8848 193.875C22.7433 194.22 22.8103 194.629 23.1907 195.051C23.2187 195.086 24.4434 195.278 24.4486 195.601C24.4538 196.123 24.2877 196.902 24.3831 197.449C24.429 197.711 25.1469 197.422 25.1678 197.465C25.8732 199.079 25.5228 200.397 25.9372 202.287C26.0164 202.647 27.3347 203.113 26.904 204.056C26.4594 205.12 22.7654 206.134 24.5147 207.415C25.2676 207.979 29.6008 206.052 28.3886 208.466C30.3361 210.004 31.1737 212.525 33.7388 213.295C33.8554 213.331 34.8795 212.445 35.0695 212.591C35.3564 212.815 35.2023 213.441 35.4125 213.617C36.2885 214.366 37.4498 214.373 38.3928 214.869C38.7563 215.056 38.3787 215.587 38.8319 215.806C39.294 216.022 39.8747 215.348 40.3789 215.935C40.7538 216.377 40.7977 218.168 41.4757 218.536C41.8979 216.906 42.3557 217.061 43.2446 216.772C43.4145 216.715 43.3525 216.109 43.4371 216.052C43.7757 215.806 43.9695 216.328 44.2919 216.041C44.3696 215.972 44.4502 215.403 44.5157 215.314C45.0611 214.537 45.6567 215.886 45.7889 216.119C46.247 217.006 46.5293 216.269 46.9111 216.614C47.3066 216.957 46.6929 217.369 47.1699 217.579C47.2368 217.608 47.3052 217.634 47.375 217.658C48.3219 217.991 49.4803 217.911 50.409 217.936C50.8061 217.943 50.5352 217.176 50.592 217.159C51.4131 216.965 52.2435 217.781 52.6988 216.253C53.2681 220.203 53.1939 215.87 54.3676 216.661C54.4601 216.725 54.5777 218.592 54.2227 218.867C53.8678 219.141 53.3296 218.557 52.8371 218.984C52.7205 219.085 52.0524 220.835 51.9613 220.941C51.2473 221.769 51.1461 218.978 51.1083 218.825C50.68 217.17 49.8636 219.056 49.6486 219.186C48.8113 219.695 48.0812 219.486 47.375 219.675C47.2376 219.708 47.1007 219.753 46.9631 219.814C46.3626 220.077 46.2243 221.899 45.7132 221.816C43.9857 221.505 43.8799 218.914 41.9731 220.804C41.5579 221.196 41.4455 223.233 40.5805 221.412C40.5147 221.296 40.0326 219.685 39.2865 220.403C39.1904 220.493 39.0203 221.05 38.9212 221.07C38.2533 221.191 38.0276 220.624 37.3464 220.606C36.6631 220.587 35.7958 220.585 35.1979 220.086C34.8329 219.787 34.812 218.56 34.759 218.232C34.6134 217.294 33.4612 218.08 33.6223 217.097C33.8096 216.122 35.0791 215.241 34.6792 214.289C33.8513 215.556 32.9595 216.83 32.0941 218.083C30.2816 216.868 28.944 215.161 27.4011 213.702C27.2075 213.52 26.8204 214.287 26.5939 214.101C25.635 213.296 25.3745 212.109 24.4272 211.248C23.6923 210.583 22.3582 210.158 21.6129 209.341C22.7546 207.896 21.5222 206.881 21.2034 205.785C21.0922 205.408 21.5264 205.244 21.557 204.936C21.6784 203.786 20.4488 204.803 20.1158 204.625C18.6983 203.798 21.9193 202.533 21.4585 201.293C21.4358 201.241 19.417 200.839 19.2747 200.725C18.3542 200.092 19.8662 200.443 19.8871 199.921C19.9357 198.964 20.261 198.294 19.5898 197.31C19.392 197.031 18.1644 196.363 19.0149 195.678C19.1261 195.59 19.7379 195.597 19.7697 195.531C20.2526 194.481 18.751 194.409 17.9701 193.875C17.8869 193.83 17.8122 193.782 17.7493 193.729C17.1002 193.178 18.4237 192.328 18.8051 192.155C19.7919 191.702 19.2268 192.501 19.3237 192.526C20.4761 192.814 20.2777 192.194 20.3751 191.72C22.255 191.651 22.1421 190.989 20.4684 191.229C20.2856 191.256 20.4609 191.625 20.3751 191.72C18.5306 191.304 18.2944 190.576 20.018 189.771C20.8258 189.395 21.7677 189.75 21.4232 188.607C21.2676 188.087 19.9732 188.288 19.6203 187.83C18.8151 186.783 20.0226 185.423 19.8323 184.344C19.7633 183.952 19.0547 184.334 18.9831 184.066C18.7908 183.356 19.3225 182.73 19.0501 182.016C19.0245 181.952 18.2828 182.109 18.2734 181.888C18.1872 180.206 18.6623 178.741 18.6755 176.986C18.6815 176.137 18.2724 174.62 18.3547 173.742C18.4928 172.218 19.5714 170.345 19.3094 169.043C19.1417 168.195 18.3998 168.381 17.8944 168.017C16.9146 167.315 18.6696 166.073 18.9414 165.906C18.9503 165.901 19.1252 166.631 19.506 166.242C20.2995 166.015 18.9448 165.914 18.9414 165.906C19.1169 165.796 19.2853 164.337 19.1435 164.048C19.066 163.89 18.3631 163.978 18.336 163.896C17.707 161.946 17.5284 159.991 17.857 158.013C17.8712 157.978 18.6574 158.03 18.681 157.949C19.0305 156.803 18.0688 156.07 17.4978 155.125C16.927 154.18 17.1182 153.431 18.4678 152.872C18.2979 152.16 18.8946 151.137 19.2567 150.549C19.6187 149.96 18.0883 149.878 18.0581 149.827C17.0897 148.212 17.9657 147.278 18.102 145.603C18.1694 144.807 17.9475 143.227 17.7801 142.365C17.6453 141.683 18.0039 141.273 17.7746 140.645C17.744 140.56 17.0626 140.645 17.0363 140.62C16.2211 139.919 17.8869 140.256 18.1844 140.111C19.2663 139.586 19.8425 139.262 19.3336 138.365C19.217 138.158 16.8184 137.555 16.6782 137.177C16.5002 136.687 17.3599 136.872 17.1517 136.358C17.1347 136.314 16.6043 136.323 16.6276 136.006C16.6335 135.921 16.6401 135.836 16.6472 135.75C16.7656 134.805 16.9411 133.731 16.7037 132.754C16.6715 132.614 15.8798 132.95 15.8205 132.759C15.5415 131.865 15.2875 130.912 15.305 129.91C15.311 129.662 15.9093 129.568 16.0517 129.455C16.9015 128.737 15.2998 128.938 15.2474 128.899C13.8616 127.732 14.2673 125.849 12.546 124.934C12.4909 124.908 11.9043 125.095 11.5773 125.048C11.3352 125.011 11.2295 124.842 11.5374 124.31C11.5933 124.233 12.3092 122.925 11.4309 123.475C11.3783 123.511 11.0418 124.202 10.8293 123.922C10.6071 123.635 9.89009 123.703 9.96964 122.762C10.0044 122.471 10.4648 121.036 9.44138 121.758C9.34514 121.79 7.49066 123.716 8.13656 122.034C8.2417 121.757 9.15749 120.085 8.19422 120.695C8.01443 120.817 8.00294 121.281 7.63929 121.401C7.0957 121.594 6.76626 120.903 6.00088 121.527C5.85771 121.634 5.13098 122.745 5.1566 121.731C5.15748 121.571 5.4277 120.99 5.2952 120.876C4.64994 120.33 3.7799 120.572 3.07494 120.032C2.81802 119.842 3.09599 118.844 2.81341 118.534C2.53325 118.223 1.88306 117.909 1.52937 118.367C1.18712 118.825 1.47768 120.465 1.03626 120.588C0.982356 120.604 0.928616 120.618 0.875 120.632V104.368C2.66281 103.899 4.57249 104.479 6.44926 103.92C6.72713 103.835 6.29532 103.378 6.6731 103.213C8.13123 102.606 9.8833 100.789 11.6835 100.732C13.1364 100.659 12.7088 102.109 13.5189 101.894C13.5494 101.885 13.5818 101.874 13.616 101.859C14.094 101.652 13.0102 100.014 13.0216 99.9091C13.1923 98.7872 14.2546 98.7567 14.5254 97.8547C14.5764 97.6725 13.8306 97.4139 13.8772 97.2685C14.0247 96.7761 14.5791 96.4791 14.7371 96.0111C14.805 95.8017 14.2561 95.5869 14.3779 95.4318C14.662 95.054 15.0419 94.7753 15.7205 94.5118C15.7835 94.4843 16.3699 95.0195 16.5217 94.6707C16.7607 94.1162 17.5046 93.489 17.1025 92.6667C16.9803 92.4202 15.6639 92.1719 16.651 91.9108C16.8552 91.8571 18.4362 92.2187 17.1333 91.4902C16.9239 91.3398 15.1434 90.369 16.366 90.0575C16.6901 89.9746 18.0219 89.7277 17.8173 89.4583C17.7845 89.4244 17.0618 89.5492 16.9932 89.3446C16.9831 89.3131 16.9735 89.2816 16.9643 89.25C16.7641 88.2559 16.8251 87.2193 16.609 86.2022C16.5472 85.9181 15.8005 86.3412 15.7323 85.9179C15.5435 84.7537 15.7336 83.3003 15.9674 82.1619C16.0549 81.7422 16.6735 82.0323 16.7408 82.0017C17.8356 81.5106 16.3579 81.2203 16.2717 81.0573C15.7557 80.0436 16.4499 79.2717 16.2662 78.3372C16.2174 78.0794 15.5127 78.2622 15.4499 78.2109C14.836 77.6785 16.1014 78.0751 16.2409 77.7381C16.6359 76.7941 16.5793 75.7418 16.4892 74.7871C16.4551 74.4365 15.6381 74.8306 15.6169 74.5159C15.4761 72.6533 15.5543 70.7171 16.0047 68.8993C16.091 68.5571 16.7201 68.7724 16.8638 68.7011C17.8692 68.2094 16.4979 67.4889 16.3673 67.3231C15.7708 66.5692 16.3272 66.2764 16.2233 65.6106C15.7063 62.3584 16.0748 58.3428 16.3024 55.2729C16.5954 51.2725 17.1939 48.1683 17.0385 44.3535C17.0294 44.1111 16.1925 44.3555 16.1739 44.1465C15.9721 41.4481 16.2992 38.7915 16.0575 36.0877C16.0391 35.8658 15.2457 36.1857 15.1895 35.8295C15.0688 35.0991 15.112 34.1737 15.3653 33.4352C15.4874 33.075 16.1682 33.5581 16.2772 33.1955C16.4793 32.5271 16.5568 31.8207 16.5172 31.125C16.5068 30.8818 16.4911 30.6397 16.4703 30.3992C16.428 29.9038 15.5947 30.6334 15.6057 29.9795C15.675 25.5425 16.6882 20.986 19.5878 17.4738C19.7891 17.23 21.3702 17.7498 21.3769 17.0695C20.9963 16.8112 20.522 16.5563 20.1022 16.3044C21.4187 13.6198 23.2849 11.227 25.4586 9.20856C27.9132 6.92664 30.7495 5.11404 33.7514 3.67702C33.9927 3.56211 33.1867 2.98382 33.6612 2.75477C36.3936 1.44693 39.2687 0.284956 42.4546 0.648034C42.7688 0.686055 42.8514 2.22037 43.662 1.87792C43.8038 1.81023 45.0654 1.47552 45.386 1.12791C45.4302 1.07483 45.1368 0.373863 45.5689 0.326142C46.1633 0.265475 46.7671 0.236972 47.375 0.241759C48.8513 0.257173 50.3552 0.431834 51.804 0.766555C52.1103 0.838686 51.7841 1.60283 52.0022 1.66084C53.5496 2.06648 55.2328 1.48559 56.7114 2.17939C57.7011 2.64655 57.3347 3.96744 57.8606 5.26764C57.935 5.45108 58.5479 5.48015 58.5796 6.23663C58.661 8.13887 58.3641 10.2218 58.4859 12.2494C58.5116 12.6862 59.3324 12.2158 58.8465 13.2712C58.8125 13.3418 58.2174 13.6921 58.0709 14.0501C57.9688 14.2976 58.1527 15.067 57.9445 15.3838C57.7363 15.7004 57.5076 15.0555 57.1624 15.4278C56.8174 15.8047 56.9691 16.6799 56.28 16.7835ZM20.8749 147.9C21.6099 147.355 18.918 147.274 19.5621 147.864C19.5964 147.892 20.8389 147.928 20.8749 147.9ZM30.3433 213.583C30.5411 212.182 28.9628 213.081 28.7623 214.149C28.5954 215.24 30.3004 214.02 30.3433 213.583ZM37.6821 217.135C37.2491 215.929 35.5002 219.327 36.788 219.047C36.8631 219.032 37.7103 217.206 37.6821 217.135ZM55.4216 5.63788C55.4292 5.67362 55.8697 5.70846 55.8802 5.67303C56.1148 4.81811 55.2339 4.74903 55.4216 5.63788ZM45.451 218.063C45.2284 217.531 44.3967 218.039 44.6613 218.714C44.8901 219.262 45.7475 218.731 45.451 218.063ZM18.3722 121.019C18.3981 120.986 18.2226 120.725 18.0552 120.879C17.5178 121.372 17.9439 121.557 18.3722 121.019ZM57.9874 218.095C56.1471 217.952 55.0312 214.799 57.0354 215.154C57.3983 215.219 56.2532 216.16 56.7151 216.444C57.5603 216.962 58.1216 214.982 58.9842 216.043C59.1403 216.237 58.0924 218.111 57.9842 218.1C57.9853 218.098 57.9864 218.097 57.9874 218.095ZM24.1082 147.586C24.1438 147.575 24.1776 147.138 24.1423 147.127C23.2877 146.89 23.2192 147.771 24.1082 147.586ZM2.79379 111.288C2.77597 111.205 1.70467 111.074 1.66689 111.149C1.09492 112.517 3.12733 112.773 2.79379 111.288ZM26.078 177.032C26.9378 177.51 27.039 178.08 25.9594 178.461C26.0167 177.986 26.0252 177.509 26.078 177.032Z" fill="#6EC9F2"/>
<path d="M171.72 208.217C173.32 207.982 175.418 208.233 177.012 208.577C177.512 208.684 177.259 209.161 177.603 209.256C178.278 209.441 178.906 209.207 179.573 209.428C179.794 209.504 179.519 210.26 179.751 210.322C180.045 210.399 180.336 210.448 180.625 210.48C181.312 210.585 181.978 210.46 182.696 210.495C186.466 210.684 190.333 209.217 193.337 206.587C194.035 205.98 194.69 205.314 195.297 204.592C196.358 203.359 197.959 201.809 198.252 200.022C198.285 199.817 197.618 199.717 197.578 199.663C196.967 198.85 198.178 199.45 198.465 199.117C199.594 197.801 199.948 195.916 199.721 194.356C199.633 193.771 198.59 194.205 198.857 193.875C198.892 193.819 198.951 193.746 199.038 193.65C199.088 193.593 199.792 193.798 199.868 193.577C200.036 193.075 199.911 192.123 199.966 191.734C200.078 190.984 200.07 190.86 200.078 190.151C200.096 189.182 200.446 188.029 200.286 186.989C200.25 186.767 199.528 187.06 199.405 186.706C199.282 186.352 199.344 185.415 199.514 185.099C199.684 184.782 200.252 184.917 200.382 184.861C201.48 184.401 199.959 183.316 199.921 183.177C199.281 180.633 200.147 178.452 200.144 176.064C200.141 174.251 199.855 172.313 199.894 170.588C199.943 168.533 200.335 166.791 200.267 164.795C200.261 164.584 199.412 164.831 199.403 164.573C199.304 161.84 199.397 159.125 199.97 156.402C200.028 156.129 200.773 156.481 200.876 156.209C201.489 154.539 202.96 151.896 199.715 150.905C199.842 149.773 199.972 148.4 200.627 147.388C201.048 146.736 201.86 147.369 201.513 146.568C201.436 146.387 200.725 146.622 200.663 146.351C200.403 145.21 200.634 143.963 200.266 142.834C200.19 142.604 199.553 142.667 199.438 142.602C198.509 142.055 200.045 141.144 200.156 140.946C200.989 139.435 200.661 138.331 200.682 136.923C200.687 136.596 199.831 136.983 199.805 136.668C199.782 136.364 199.766 136.057 199.757 135.75C199.719 134.174 199.969 132.562 200.534 131.128C200.692 130.738 201.343 131.238 201.455 131.062C201.941 130.314 200.639 129.828 201.13 129.088C201.233 128.933 201.812 129.187 201.887 129.174C203.047 128.99 201.699 128.181 201.707 128.04C201.759 126.336 203.624 125.964 204.055 124.547C204.11 124.372 203.217 124.396 203.419 123.915C204.768 120.707 207.33 117.82 210.291 116.131C210.75 115.868 210.849 116.562 210.923 116.595C212.046 117.142 211.334 115.756 211.438 115.601C212.257 114.435 213.958 114.864 213.816 112.837C218.027 110.943 222.517 109.183 227.125 109.785V115.215C226.003 115.067 224.901 114.774 223.861 114.312C223.795 114.284 224.015 113.552 223.885 113.5C222.343 112.841 222.493 114.042 221.038 115.193C220.652 115.477 220.239 113.575 220.218 113.433C220.087 112.909 220.667 111.909 220.606 111.797C220.145 110.916 219.152 114.503 218.117 114.141C218.089 114.124 218.451 113.529 218.391 113.435C218.209 113.143 217.861 113.301 217.7 112.984C217.329 112.246 217.887 110.532 216.661 111.115C216.5 111.185 215.753 113.175 214.939 112.647C214.614 112.448 213.134 111.632 212.822 111.248C212.504 110.877 213.149 110.488 213.135 110.445C212.632 109.022 213.23 108.973 213.555 107.571C213.917 106.189 212.125 108.787 211.712 108.912C211.294 109.036 211.08 107.897 211.1 107.567C211.112 107.235 211.591 107.083 211.551 106.853C211.307 105.348 210.095 107.644 209.441 107.719C209.147 107.748 208.945 107.686 208.809 107.566C208.218 107.036 208.933 105.484 208.624 104.829C208.518 104.607 208.235 105.099 208.058 104.964C207.361 104.409 207.643 103.576 206.543 103.153C206.37 103.096 204.727 103.152 205.342 102.159C205.433 102.02 206.038 101.899 205.967 101.52C205.861 100.954 205.529 100.049 205.11 99.6076C204.799 99.2789 204.134 100.134 204.176 99.5045C204.199 99.2273 204.893 99.4077 204.898 98.9145C204.9 98.428 204.473 97.3881 204.323 96.9835C204.168 96.583 203.55 97.0321 203.492 97.0153C203.155 96.9021 202.569 96.1685 202.552 96.0907C201.858 93.7969 202.003 91.4531 202.259 89.25C202.42 87.9407 202.508 86.6307 202.35 85.2933C202.32 85.0223 201.551 85.2028 201.539 85.1615C201.217 84.2338 203.26 84.9652 203.943 84.3172C202.384 84.4109 202.666 84.0284 202.495 83.375C202.412 83.0601 201.808 83.2316 201.746 83.2028C200.829 82.7359 202.014 82.4108 202.256 82.327C203.147 82.0178 202.094 81.6813 202.69 81.4708C203.281 81.2605 204.158 81.7445 204.147 81.1179C203.589 80.9421 202.13 81.4074 201.893 80.9316C200.999 79.1365 202.144 75.7856 202.263 74.3423C202.381 72.9018 202.278 72.4365 202.48 71.5971C202.845 70.081 201.763 70.6366 201.267 69.6952C200.772 68.751 203.435 69.21 204.007 69.0743C204.579 68.941 203.99 68.7955 204.305 68.6298C204.619 68.4646 205.009 68.8223 205.127 68.4337C205.245 68.045 204.227 66.9822 203.628 66.8444C202.36 66.5531 201.029 67.032 201.497 66.0035C201.525 65.9443 202.225 66.1363 202.295 65.9098C202.835 64.1106 202.868 62.2416 203.345 60.4446C203.411 60.1976 204.19 60.4185 204.238 60.2747C204.736 58.7769 203.423 59.3123 201.964 58.4915C203.905 58.6758 205.093 58.2218 205.105 57.0851C205.112 56.4018 204.264 56.5195 203.667 56.0775C203.486 55.9449 204.069 55.4614 203.67 55.3738C202.366 55.0849 200.907 55.5403 201.488 54.3684C201.516 54.317 202.229 54.4806 202.272 54.303C202.555 53.1546 201.192 53.0171 201.027 51.7758C200.897 50.8027 201.729 49.0721 201.864 47.9642C204.047 47.9875 203.547 46.941 202.042 46.5165C202.103 45.7974 202.018 45.0208 202.226 44.3259C202.297 44.0867 202.929 44.2438 202.998 44.2136C204.069 43.7512 202.604 43.4386 202.547 43.2834C201.989 41.6012 203.099 40.2307 202.014 38.6254C201.975 38.5684 200.459 38.4761 201.566 38.047C201.642 38.0192 202.332 38.5494 202.386 37.7942C202.439 37.039 203.252 35.6151 202.549 34.5666C202.38 34.3128 201.149 33.671 202.111 33.1559C202.242 33.0873 202.676 33.1623 202.918 33.0633C203.69 32.743 202.157 32.5682 203.459 32.1918C204.229 31.9693 204.884 31.6046 205.106 31.125C205.259 30.7763 205.197 30.3597 204.808 29.9279C204.78 29.8911 203.555 29.703 203.55 29.3798C203.544 28.8563 203.71 28.0804 203.614 27.5312C203.568 27.2694 202.85 27.5583 202.829 27.5152C202.123 25.9012 202.474 24.583 202.063 22.6921C201.985 22.3317 200.667 21.8629 201.1 20.921C201.547 19.858 205.243 18.8518 203.497 17.5671C202.744 17.001 198.408 18.9206 199.624 16.5077C198.774 15.8271 198.171 15.0233 197.526 14.2239C196.669 13.1598 195.716 12.095 194.269 11.6822C194.152 11.6463 193.131 12.5349 192.94 12.3891C192.653 12.166 192.805 11.5395 192.595 11.3643C191.716 10.6182 190.555 10.615 189.61 10.1214C189.247 9.93612 189.622 9.40389 189.168 9.18616C188.707 8.97132 188.126 9.64574 187.622 9.06069C187.245 8.61962 187.2 6.82932 186.521 6.46121C186.1 8.09203 185.645 7.93841 184.754 8.22743C184.584 8.28458 184.647 8.89053 184.562 8.94753C184.224 9.19401 184.031 8.67247 183.707 8.95908C183.629 9.02796 183.549 9.59688 183.483 9.68589C182.938 10.4629 182.341 9.11413 182.21 8.88133C181.754 7.99373 181.469 8.73133 181.087 8.38585C180.693 8.0429 181.305 7.63123 180.829 7.42073C180.763 7.39191 180.695 7.36566 180.625 7.34183C179.678 7.00939 178.52 7.08853 177.591 7.0639C177.194 7.05691 177.465 7.82382 177.408 7.84063C176.587 8.03514 175.757 7.21937 175.301 8.747C174.732 4.79711 174.806 9.13012 173.632 8.33941C173.54 8.27545 173.422 6.40758 173.777 6.13336C174.132 5.8594 174.67 6.44327 175.163 6.01581C175.28 5.91549 175.948 4.16517 176.039 4.05915C176.753 3.23052 176.854 6.0218 176.892 6.17511C177.32 7.82959 178.136 5.94395 178.351 5.81366C179.189 5.30535 179.919 5.51438 180.625 5.32471C180.762 5.29161 180.898 5.24745 181.036 5.18629C181.635 4.92318 181.777 3.1008 182.287 3.18453C184.014 3.49509 184.119 6.08664 186.023 4.19476C186.438 3.80219 186.546 1.76537 187.412 3.58445C187.479 3.70059 187.96 5.30957 188.705 4.59085C188.801 4.50025 188.97 3.94285 189.069 3.92235C189.734 3.79911 189.962 4.36583 190.642 4.38157C191.324 4.39861 192.191 4.3982 192.789 4.89459C193.156 5.19343 193.179 6.41947 193.234 6.74779C193.383 7.68511 194.532 6.89468 194.374 7.87901C194.19 8.85468 192.923 9.7398 193.326 10.6902C194.15 9.42093 195.038 8.14453 195.9 6.88905C197.692 8.08245 199.026 9.76008 200.544 11.206C200.566 11.227 200.588 11.248 200.61 11.2689C200.804 11.4515 201.191 10.6842 201.418 10.8711C202.379 11.677 202.641 12.8669 203.588 13.7314C204.324 14.3991 205.658 14.8278 206.402 15.6466C205.258 17.0904 206.488 18.1079 206.804 19.2045C206.915 19.5815 206.48 19.7447 206.449 20.052C206.325 21.2005 207.556 20.1866 207.889 20.3651C209.304 21.1906 206.081 22.4513 206.54 23.6904C206.563 23.7436 208.58 24.1433 208.723 24.2581C209.643 24.8898 208.131 24.5396 208.11 25.0609C208.061 26.0158 207.735 26.6825 208.407 27.6675C208.605 27.9439 209.833 28.6134 208.983 29.2973C208.872 29.3854 208.26 29.3792 208.229 29.4446C207.739 30.5129 209.299 30.5694 210.067 31.125C210.136 31.1639 210.197 31.2055 210.251 31.2507C210.9 31.8013 209.576 32.6517 209.195 32.8247C208.208 33.2775 208.773 32.4778 208.676 32.4533C207.524 32.1652 207.722 32.7855 207.625 33.2594C205.745 33.328 205.858 33.9907 207.532 33.7507C207.714 33.7234 207.539 33.3545 207.625 33.2594C209.469 33.6754 209.706 34.4037 207.982 35.2082C207.174 35.5847 206.232 35.2288 206.577 36.3727C206.732 36.8918 208.027 36.6912 208.38 37.1494C209.185 38.196 207.977 39.5561 208.168 40.6352C208.237 41.0268 208.945 40.6453 209.017 40.913C209.209 41.6233 208.678 42.2497 208.95 42.9631C208.975 43.0277 209.717 42.8698 209.727 43.0916C209.813 44.7734 209.338 46.2377 209.325 47.9936C209.319 48.842 209.728 50.3588 209.645 51.2376C209.507 52.7608 208.429 54.6347 208.691 55.9359C208.858 56.7846 209.6 56.5984 210.106 56.962C211.085 57.6638 209.33 58.9059 209.059 59.0732C209.05 59.0783 208.875 58.348 208.494 58.7376C207.7 58.9642 209.055 59.0649 209.059 59.0732C208.883 59.183 208.715 60.6419 208.857 60.9316C208.934 61.089 209.637 61.0009 209.664 61.083C210.293 63.0337 210.472 64.9879 210.143 66.9664C210.129 67.0012 209.343 66.9488 209.319 67.0307C208.969 68.1761 209.931 68.9095 210.502 69.8542C211.073 70.7988 210.882 71.5478 209.532 72.107C209.702 72.8196 209.105 73.8421 208.743 74.4305C208.381 75.0188 209.912 75.101 209.942 75.1527C210.91 76.7674 210.034 77.7008 209.898 79.376C209.831 80.1725 210.053 81.7523 210.22 82.6146C210.355 83.2961 209.996 83.7067 210.225 84.3347C210.256 84.4196 210.937 84.3338 210.964 84.3597C211.779 85.0605 210.113 84.7237 209.816 84.8684C208.734 85.393 208.157 85.7171 208.666 86.6146C208.783 86.8216 211.182 87.4246 211.322 87.802C211.5 88.2926 210.64 88.1074 210.848 88.6212C210.865 88.6651 211.396 88.656 211.372 88.973C211.366 89.0648 211.359 89.1572 211.351 89.25C211.232 90.1914 211.058 91.2596 211.294 92.2321C211.326 92.3719 212.118 92.037 212.177 92.2277C212.455 93.1216 212.708 94.0753 212.69 95.0771C212.684 95.3256 212.085 95.4181 211.943 95.5315C211.092 96.2484 212.694 96.0493 212.747 96.0884C214.131 97.2566 213.724 99.1387 215.444 100.055C215.5 100.082 216.106 99.8887 216.43 99.9454C216.66 99.9878 216.754 100.161 216.452 100.68C216.396 100.757 215.679 102.065 216.558 101.516C216.611 101.479 216.948 100.789 217.16 101.069C217.382 101.357 218.099 101.289 218.019 102.23C217.984 102.521 217.522 103.956 218.546 103.235C218.642 103.203 220.499 101.278 219.851 102.96C219.746 103.236 218.829 104.908 219.792 104.299C219.972 104.176 219.984 103.712 220.348 103.593C220.892 103.401 221.22 104.092 221.986 103.469C222.13 103.362 222.857 102.252 222.831 103.265C222.83 103.425 222.559 104.006 222.692 104.12C223.336 104.667 224.207 104.425 224.911 104.966C225.168 105.156 224.889 106.154 225.171 106.464C225.451 106.776 226.101 107.09 226.455 106.632C226.798 106.174 226.509 104.534 226.95 104.412C227.009 104.395 227.067 104.379 227.125 104.365V120.635C225.334 121.096 223.449 120.518 221.583 121.075C221.307 121.161 221.738 121.617 221.363 121.782C219.913 122.388 218.151 124.217 216.343 124.281C214.83 124.364 215.358 122.787 214.409 123.155C213.93 123.363 215.011 125.004 214.999 125.109C214.823 126.235 213.758 126.267 213.484 127.17C213.432 127.352 214.177 127.612 214.13 127.758C213.98 128.251 213.425 128.547 213.265 129.014C213.197 129.223 213.745 129.44 213.623 129.594C213.338 129.97 212.958 130.246 212.28 130.506C212.217 130.533 211.631 129.998 211.479 130.345C211.239 130.897 210.495 131.519 210.897 132.339C211.019 132.585 212.336 132.833 211.349 133.092C211.145 133.145 209.563 132.785 210.866 133.511C211.076 133.661 212.857 134.627 211.634 134.941C211.31 135.024 209.978 135.269 210.183 135.54C210.216 135.575 210.938 135.449 211.007 135.655C211.017 135.686 211.027 135.718 211.036 135.75C211.236 136.744 211.175 137.781 211.391 138.798C211.453 139.082 212.2 138.659 212.268 139.082C212.456 140.246 212.266 141.7 212.033 142.838C211.945 143.258 211.327 142.968 211.259 142.998C210.164 143.489 211.642 143.78 211.728 143.943C212.244 144.956 211.55 145.728 211.734 146.663C211.783 146.921 212.487 146.738 212.55 146.789C213.164 147.321 211.899 146.925 211.759 147.262C211.364 148.206 211.421 149.258 211.511 150.213C211.545 150.564 212.362 150.169 212.383 150.484C212.524 152.347 212.446 154.283 211.995 156.101C211.909 156.443 211.28 156.228 211.136 156.299C210.131 156.791 211.502 157.511 211.633 157.677C212.229 158.431 211.673 158.724 211.777 159.389C212.294 162.642 211.925 166.657 211.698 169.727C211.405 173.727 210.806 176.832 210.961 180.646C210.971 180.889 211.808 180.644 211.826 180.853C212.028 183.552 211.701 186.208 211.943 188.912C211.961 189.134 212.754 188.814 212.81 189.17C212.931 189.901 212.888 190.826 212.635 191.565C212.513 191.925 211.832 191.442 211.723 191.804C211.521 192.473 211.443 193.179 211.483 193.875C211.493 194.118 211.509 194.36 211.53 194.601C211.572 195.096 212.405 194.367 212.394 195.02C212.325 199.458 211.312 204.014 208.412 207.526C208.211 207.77 206.63 207.25 206.623 207.93C207.004 208.189 207.478 208.444 207.898 208.696C206.581 211.38 204.715 213.773 202.541 215.791C200.087 218.073 197.25 219.886 194.249 221.323C194.007 221.438 194.813 222.016 194.339 222.245C191.606 223.553 188.731 224.715 185.545 224.352C185.231 224.314 185.149 222.78 184.338 223.122C184.196 223.19 182.935 223.524 182.614 223.872C182.57 223.925 182.863 224.626 182.431 224.674C181.837 224.735 181.233 224.763 180.625 224.758C179.149 224.743 177.645 224.568 176.196 224.233C175.89 224.161 176.216 223.397 175.998 223.339C174.45 222.934 172.767 223.514 171.289 222.821C170.299 222.353 170.665 221.033 170.139 219.732C170.065 219.549 169.452 219.52 169.42 218.763C169.339 216.861 169.636 214.778 169.514 212.751C169.488 212.314 168.668 212.784 169.154 211.729C169.187 211.658 169.783 211.308 169.929 210.95C170.031 210.702 169.847 209.933 170.055 209.616C170.264 209.3 170.492 209.945 170.838 209.572C171.183 209.195 171.031 208.32 171.72 208.217ZM207.125 77.0797C206.39 77.6245 209.082 77.7049 208.438 77.1157C208.404 77.0872 207.161 77.0516 207.125 77.0797ZM197.665 11.3885C197.47 12.7897 199.048 11.8903 199.247 10.8209C199.411 9.72905 197.707 10.9514 197.665 11.3885ZM190.315 7.85364C190.751 9.05784 192.489 5.65482 191.203 5.93893C191.128 5.95467 190.286 7.78297 190.315 7.85364ZM172.578 219.362C172.571 219.326 172.13 219.292 172.12 219.327C171.885 220.182 172.766 220.251 172.578 219.362ZM182.548 6.93688C182.771 7.46893 183.602 6.96146 183.338 6.28648C183.11 5.73828 182.25 6.26912 182.548 6.93688ZM209.615 103.966C209.589 103.998 209.764 104.259 209.932 104.106C210.469 103.613 210.043 103.428 209.615 103.966ZM170.013 6.9046C171.853 7.04828 172.969 10.2014 170.965 9.84563C170.602 9.78125 171.747 8.84011 171.285 8.55584C170.44 8.03793 169.878 10.0177 169.016 8.95684C168.86 8.76266 169.908 6.88939 170.016 6.9002C170.015 6.90167 170.014 6.90313 170.013 6.9046ZM203.892 77.3935C203.856 77.4044 203.822 77.8416 203.858 77.8521C204.712 78.0888 204.781 77.208 203.892 77.3935ZM225.184 113.71C225.202 113.794 226.273 113.925 226.311 113.851C226.884 112.483 224.852 112.225 225.184 113.71ZM201.922 47.9468C201.062 47.4697 200.961 46.899 202.041 46.5187C201.983 46.9928 201.975 47.4701 201.922 47.9468Z" fill="#6EC9F2"/>
<path d="M107.09 43.1397C107.286 43.2219 107.077 43.3296 106.79 43.4115C106.701 43.4372 106.304 43.4242 106.224 43.4419C106.07 43.4765 106.265 43.5088 106.081 43.543C106.018 43.5544 105.388 43.5403 105.336 43.5522C105.058 43.6174 105.218 43.679 105.084 43.7451C104.424 44.0704 104.188 44.3901 103.901 44.7194C103.807 44.828 103.235 44.96 103.485 45.0721C103.515 45.0852 104.068 45.0774 104.113 45.0799C104.811 45.119 103.695 45.106 103.546 45.1315C102.961 45.2327 102.91 45.3453 103.123 45.4427C103.216 45.4842 104.314 45.4426 103.697 45.4844C103.656 45.4873 103.069 45.4767 103.006 45.4881C102.865 45.5139 102.97 45.5628 102.924 45.5828C102.831 45.6213 102.837 45.6276 102.83 45.6641C102.816 45.7139 102.524 45.7731 102.657 45.8265C102.688 45.8379 103.289 45.8228 103.392 45.841C103.494 45.8592 103.443 45.9073 103.301 45.9236C103.159 45.9398 102.686 45.9329 102.578 45.9358C101.663 45.9594 102.93 46.0151 102.961 46.0222C103.495 46.1529 102.773 46.265 102.776 46.3876C102.779 46.4807 103.017 46.5803 102.984 46.6689C102.943 46.7744 102.617 46.8639 102.673 46.9664C102.678 46.9772 103.386 46.9645 103.394 46.9777C103.476 47.1182 103.399 47.2576 102.921 47.3974C102.873 47.4114 102.251 47.3934 102.166 47.4074C101.655 47.4931 100.429 47.6289 103.133 47.6798C103.028 47.7379 102.919 47.8084 102.374 47.8604C102.023 47.8939 101.346 47.8614 101.635 47.9025C101.699 47.9118 102.292 47.8997 102.343 47.9137C102.56 47.9723 102.368 48.0363 102.674 48.0943C102.738 48.1061 103.269 48.1029 103.364 48.1062C104.139 48.1343 102.858 48.1811 102.765 48.1913C102.072 48.2689 102.345 48.3256 102.328 48.3979C102.324 48.4147 103.037 48.3948 103.058 48.411C103.161 48.4947 103.099 48.5815 102.783 48.6635C102.711 48.6817 102.103 48.665 102.038 48.6737C101.756 48.7121 102.904 48.7206 102.656 48.7575C102.605 48.7653 102.085 48.7609 102.028 48.7623C101.131 48.7845 102.401 48.8038 102.429 48.8095C102.813 48.8816 101.486 48.9278 101.674 48.9975C101.698 49.0058 102.356 48.987 102.383 49.0105C102.564 49.1667 102.384 49.3319 101.857 49.4866C101.776 49.5106 101.282 49.4934 101.221 49.4949C100.269 49.5196 101.545 49.5356 101.593 49.5434C101.939 49.6052 100.869 49.663 102.388 49.705C101.861 49.967 102.714 50.2277 101.353 50.4874C101.337 50.4907 100.709 50.4848 100.68 50.4914C100.327 50.5707 101.304 50.5555 102.498 50.608C102.798 50.6212 101.356 50.6615 101.25 50.665C100.861 50.678 99.9259 50.6645 99.8504 50.6689C99.258 50.7048 102.35 50.6989 102.351 50.7474C102.346 50.7489 101.777 50.7426 101.72 50.7466C101.542 50.7593 101.768 50.7718 101.573 50.7842C101.119 50.8125 99.617 50.8226 100.491 50.8658C100.605 50.8713 102.358 50.8629 102.276 50.9062C102.241 50.9235 102.271 50.9998 102.158 51.0212C102.044 51.0426 101.479 51.0279 101.454 51.0295C100.707 51.0871 100.397 51.0652 99.291 51.0941C98.1888 51.1229 100.818 51.1149 101.111 51.1267C101.404 51.1385 100.787 51.1807 100.573 51.1911C100.358 51.2015 99.9992 51.1885 99.8779 51.1978C99.0851 51.2589 101.183 51.2246 101.6 51.2448C102.588 51.2923 100.638 51.3293 100.447 51.3728C100.396 51.3845 100.84 51.3749 100.881 51.3854C101.04 51.4269 100.432 51.4519 100.989 51.4991C101.08 51.5068 102.252 51.545 101.392 51.5697C101.268 51.5732 100.782 51.5633 100.673 51.581C100.51 51.6074 100.404 51.655 100.566 51.6834C100.687 51.7044 101.487 51.6803 101.238 51.7067C101.127 51.7185 100.659 51.6967 100.489 51.7188C100.32 51.7407 100.341 51.7967 100.357 51.8181C100.373 51.8394 100.98 51.8277 101.021 51.8294C101.256 51.8398 101.549 51.8807 101.548 51.8843C101.622 52.0664 100.598 52.2344 100.937 52.4117C100.963 52.4257 101.603 52.4164 101.614 52.4185C101.882 52.4662 100.179 52.4286 99.6096 52.4619C100.909 52.4571 100.674 52.4767 100.816 52.5103C100.886 52.5264 101.389 52.5176 101.441 52.5191C102.205 52.5431 101.218 52.5598 101.016 52.5641C100.273 52.58 101.151 52.5973 100.654 52.6081C100.161 52.6189 99.4309 52.594 99.4403 52.6262C99.9054 52.6352 101.121 52.6113 101.318 52.6358C102.063 52.728 101.109 52.9001 101.01 52.9742C100.911 53.0482 100.997 53.0721 100.829 53.1152C100.525 53.1931 101.427 53.1645 101.84 53.2129C102.253 53.2614 100.034 53.2378 99.5565 53.2448C99.0797 53.2516 99.5706 53.2591 99.3084 53.2676C99.0464 53.2761 98.722 53.2577 98.6236 53.2777C98.5253 53.2976 99.3736 53.3522 99.8724 53.3593C100.929 53.3743 102.038 53.3497 101.649 53.4025C101.625 53.4055 101.042 53.3957 100.983 53.4073C100.534 53.4997 100.506 53.5957 100.109 53.688C100.053 53.7007 99.4039 53.6893 99.3643 53.6967C98.9491 53.7736 100.044 53.7461 101.259 53.7883C99.6414 53.7788 98.6515 53.8022 98.6419 53.8605C98.6356 53.8956 99.3423 53.8896 99.8404 53.9123C99.9905 53.9191 99.5053 53.9439 99.8376 53.9484C100.924 53.9633 102.14 53.9399 101.656 54.0001C101.633 54.0027 101.038 53.9943 101.002 54.0034C100.766 54.0624 101.903 54.0695 102.04 54.1332C102.148 54.1832 101.455 54.2721 101.343 54.329C99.5236 54.3278 99.9402 54.3816 101.194 54.4034C101.143 54.4403 101.214 54.4802 101.041 54.5159C100.982 54.5282 100.455 54.5201 100.398 54.5216C99.5052 54.5454 100.725 54.5614 100.773 54.5694C101.238 54.6558 100.313 54.7262 101.217 54.8086C101.25 54.8116 102.513 54.8163 101.591 54.8384C101.527 54.8398 100.952 54.8126 100.908 54.8513C100.863 54.8901 100.186 54.9633 100.771 55.0171C100.912 55.0301 101.938 55.0631 101.137 55.0896C101.028 55.0931 100.665 55.0892 100.464 55.0943C99.8212 55.1108 101.098 55.1198 100.013 55.1391C98.9284 55.1584 98.1158 55.1986 98.8644 55.2529C98.8862 55.2547 99.8985 55.2675 99.8825 55.2846C99.856 55.3119 99.6452 55.3506 99.6518 55.3791C99.6553 55.3927 100.284 55.384 100.295 55.3863C100.648 55.478 100.087 55.5432 99.844 55.6414C99.7982 55.6594 100.655 55.7111 99.9777 55.746C99.2358 55.7842 96.1498 55.7449 96.885 55.8329C97.1791 55.8683 101.094 55.9132 99.0658 55.977C99.5685 56.1006 98.5303 56.2149 99.248 56.3389C99.2798 56.3445 100.372 56.3621 100.358 56.3752C100.333 56.3947 99.8227 56.4054 99.7891 56.4193C99.6353 56.4775 100.072 56.5307 100.004 56.5869C99.9795 56.6082 99.4515 56.6007 99.422 56.6262C99.3929 56.6516 100.088 56.6685 99.7525 56.7029C99.4965 56.7289 98.0752 56.7549 97.9095 56.7894C99.3115 56.7907 99.2826 56.8144 99.6527 56.8566C99.7245 56.8646 100.212 56.856 100.272 56.8598C100.523 56.8754 100.119 56.8898 100.392 56.9046C100.458 56.9082 100.937 56.9084 101.018 56.9113C101.723 56.9364 100.646 56.9776 100.458 56.9847C99.7462 57.0118 100.369 57.0245 100.088 57.0453C99.8081 57.0661 99.4575 57.035 99.2874 57.0593C98.9354 57.1096 99.0127 57.1743 98.9907 57.2254C98.9849 57.2458 99.624 57.2319 99.638 57.2348C99.8001 57.277 99.1203 57.3196 100.393 57.343C97.1018 57.3723 100.713 57.3685 100.054 57.4287C100 57.4335 98.4438 57.4395 98.2153 57.4213C97.987 57.4031 98.4736 57.3754 98.1173 57.3501C98.0337 57.3441 96.5751 57.3098 96.4868 57.3052C95.7963 57.2685 98.1223 57.2633 98.2501 57.2613C99.6288 57.2393 98.0575 57.1974 97.9489 57.1864C97.4514 57.1359 97.7785 57.0929 97.4234 57.0507C97.1939 57.0231 95.6702 57.0204 95.7168 56.9987C95.871 56.9265 97.9965 56.9014 96.1535 56.8334C95.7605 56.8188 94.0952 56.8333 95.4046 56.7811C95.4872 56.7778 96.6851 56.739 95.9274 56.7166C95.8319 56.7138 95.3465 56.7139 95.3058 56.7102C95.042 56.6853 95.4287 56.6687 95.2435 56.6417C95.0583 56.6146 94.7823 56.582 94.9469 56.5511C95.0453 56.5324 95.9496 56.5085 96.1709 56.4996C96.8087 56.4744 95.763 56.4474 96.5353 56.4318C97.3115 56.416 98.4902 56.4468 98.9917 56.4055C97.7307 56.404 96.4365 56.4005 95.1684 56.398C95.2128 56.3076 95.6206 56.2186 95.5649 56.1279C95.5567 56.1166 94.8788 56.1281 94.8526 56.1161C94.7449 56.0652 95.2281 56.0207 95.0357 55.968C94.8841 55.9271 94.1664 55.8823 93.9856 55.8396C95.4284 55.8135 94.9386 55.7502 95.0705 55.7041C95.116 55.688 95.5014 55.6891 95.6271 55.6776C96.0921 55.6343 94.817 55.6546 94.6164 55.6427C93.76 55.5918 96.646 55.5875 96.5747 55.5275C96.5719 55.5243 95.0335 55.4854 94.9377 55.4801C94.313 55.4461 95.4732 55.4745 95.5868 55.4532C95.7945 55.4143 96.1619 55.3873 95.7113 55.3417C95.5779 55.3284 94.619 55.2966 95.3607 55.2707C95.4578 55.2673 95.9663 55.2692 95.9961 55.2665C96.4924 55.217 94.8947 55.2157 94.3536 55.1874C93.8126 55.1591 94.9156 55.1155 95.2334 55.1066C96.0558 55.0833 95.5849 55.1244 95.6656 55.1257C96.6259 55.1405 96.4606 55.1086 96.5417 55.0843C98.1083 55.0807 98.0143 55.0467 96.6195 55.059C96.4672 55.0604 96.6133 55.0794 96.5417 55.0843C95.0047 55.0629 94.8078 55.0255 96.2442 54.9842C96.9174 54.9648 97.7023 54.9831 97.4151 54.9244C97.2855 54.8977 96.2068 54.908 95.9128 54.8845C95.2418 54.8307 96.248 54.7608 96.0894 54.7054C96.0319 54.6853 95.4414 54.7049 95.3817 54.6912C95.2215 54.6547 95.6645 54.6225 95.4376 54.5859C95.4163 54.5825 94.7982 54.5907 94.7903 54.5793C94.7185 54.4929 95.1144 54.4177 95.1254 54.3275C95.1304 54.2839 94.7895 54.206 94.8581 54.1609C94.9732 54.0826 95.872 53.9864 95.6537 53.9196C95.5139 53.876 94.8957 53.8855 94.4745 53.8669C93.658 53.8308 95.1205 53.767 95.347 53.7584C95.3545 53.7582 95.5002 53.7957 95.8175 53.7757C96.4788 53.764 95.3498 53.7589 95.347 53.7584C95.4933 53.7528 95.6336 53.6779 95.5154 53.663C95.4508 53.6549 94.8651 53.6594 94.8425 53.6552C94.3183 53.555 94.1695 53.4546 94.4433 53.353C94.4552 53.3512 95.1103 53.3539 95.13 53.3497C95.4213 53.2909 94.6198 53.2532 94.144 53.2047C93.6683 53.1562 93.8276 53.1177 94.9524 53.089C94.8108 53.0524 95.308 52.9999 95.6097 52.9697C95.9114 52.9394 94.6361 52.9352 94.6109 52.9326C93.8039 52.8496 94.5339 52.8017 94.6475 52.7157C94.7037 52.6747 94.5187 52.5936 94.3792 52.5493C94.2669 52.5143 94.5658 52.4932 94.3747 52.461C94.3491 52.4566 93.7813 52.461 93.7594 52.4597C93.08 52.4237 94.4682 52.441 94.7162 52.4336C95.6178 52.4066 96.0979 52.39 95.6738 52.3439C95.5767 52.3332 93.5779 52.3023 93.461 52.2829C93.3127 52.2577 94.0291 52.2672 93.8556 52.2408C93.8414 52.2386 93.3994 52.239 93.4189 52.2227C93.5035 52.1472 93.7607 52.0647 93.7164 51.9862C93.7121 51.9755 93.011 51.9892 92.9931 51.9737C92.91 51.901 92.936 51.8212 93.2641 51.7504C93.3471 51.7329 93.838 51.7439 93.9837 51.7401C94.8656 51.7168 93.5843 51.6839 93.5599 51.6784C92.9441 51.5487 94.1037 51.4494 93.5516 51.3171C93.5192 51.3099 92.1456 51.2545 93.3236 51.2298C93.402 51.2281 94.6073 51.2036 93.7832 51.182C93.7317 51.1806 93.1112 51.1959 93.1744 51.1693C93.2375 51.1427 92.8232 51.0999 93.5049 51.0633C93.7197 51.0517 94.922 51.0244 93.9636 50.9899C93.8967 50.9876 91.7296 50.9343 93.2248 50.9153C93.4709 50.9122 95.0532 50.9154 94.2419 50.8742C94.0846 50.8663 93.7317 50.8806 93.5113 50.8599C93.1717 50.8281 93.5955 50.786 92.8906 50.7469C92.7658 50.7401 91.6919 50.7111 92.507 50.6878C92.6347 50.6842 93.1629 50.6911 93.222 50.6788C93.5056 50.6204 93.1523 50.5592 93.5177 50.4999C93.6462 50.4789 94.5001 50.4896 94.729 50.4677C94.9577 50.4458 95.1778 50.4017 94.7876 50.3788C94.3972 50.3558 93.0361 50.3809 92.9272 50.3465C92.4542 50.1972 93.2526 50.0493 93.3694 49.9002C93.3869 49.8781 92.8999 49.8965 92.8906 49.8639C92.8544 49.7437 92.3977 49.5363 93.4326 49.4321C94.2615 49.3485 94.8925 49.4536 95.2298 49.3898C95.3907 49.359 93.8083 49.3257 93.7585 49.3183C93.2525 49.2456 93.9534 49.1951 93.7384 49.1298C93.6938 49.1163 93.0524 49.1295 93.0215 49.118C92.9103 49.0788 93.1966 49.0375 93.1442 49C93.1192 48.9832 92.6294 48.9863 92.6672 48.9708C92.752 48.9338 92.9579 48.901 93.417 48.8649C93.4589 48.8616 94.0682 48.8838 94.0909 48.8564C94.1258 48.812 94.5787 48.757 94.111 48.706C93.9703 48.6908 92.8508 48.6902 93.6239 48.6577C93.7854 48.6508 95.1297 48.6596 93.9682 48.6216C93.7752 48.6153 92.2085 48.5516 93.2184 48.5203C93.4841 48.5121 94.5842 48.491 94.4113 48.4728C94.3837 48.4703 93.7824 48.4802 93.7237 48.4652C93.5275 48.412 93.5916 48.3562 93.4033 48.3016C93.3518 48.287 92.7296 48.3088 92.6727 48.287C92.5154 48.2272 92.6739 48.1526 92.8686 48.0941C92.9416 48.0725 93.4571 48.0874 93.5132 48.0859C94.4255 48.0607 93.194 48.0457 93.1222 48.0374C92.6923 47.9853 93.2707 47.9457 93.1177 47.8977C93.077 47.8844 92.4898 47.8938 92.4374 47.8912C91.9258 47.8638 92.9804 47.8842 93.0966 47.8669C93.4257 47.8184 93.3785 47.7644 93.3035 47.7153C93.2751 47.6973 92.5942 47.7176 92.5766 47.7014C92.4593 47.6057 92.5244 47.5063 92.8998 47.4129C92.9717 47.3953 93.496 47.4064 93.6157 47.4027C94.4535 47.3775 93.3107 47.3405 93.2019 47.332C92.7049 47.2932 93.1685 47.2782 93.082 47.244C92.6511 47.077 92.9582 46.8707 93.1479 46.7131C93.392 46.5076 93.8908 46.3482 93.7613 46.1522C93.7537 46.1398 93.0562 46.1523 93.0408 46.1416C92.8726 46.003 93.1452 45.8665 92.9437 45.7277C92.9284 45.7163 92.2672 45.7327 92.2204 45.7144C92.1199 45.6769 92.1558 45.6294 92.3669 45.5914C92.4687 45.5729 93.036 45.5978 93.1268 45.5791C93.3395 45.5358 93.3866 45.4893 93.2806 45.4447C93.2341 45.4258 92.5578 45.4544 92.55 45.4297C92.4829 45.2619 92.3665 45.0971 93.2422 44.9275C93.3023 44.9159 94.6767 44.9057 94.4131 44.8809C94.0317 44.8791 93.583 44.8792 93.1753 44.8784C92.9557 44.6341 93.4322 44.3922 93.5058 44.1472C93.5088 44.1369 92.7806 44.1548 92.7826 44.1348C92.7933 44.019 92.5916 43.9066 93.3154 43.7882C93.3862 43.7765 94.6673 43.7825 94.4735 43.7479C94.4382 43.7418 94.2673 43.6896 93.9892 43.6761C93.9473 43.6743 93.3493 43.6838 93.3319 43.667C93.2411 43.5694 93.3776 43.4671 93.743 43.3696C93.8031 43.3539 94.4399 43.3706 94.4882 43.3594C94.8262 43.2799 94.3422 43.1935 94.9203 43.1175C95.3096 43.0667 96.4104 43.0855 97.4939 43.0585C97.6467 43.0547 97.671 43.0232 98.3014 43.0216C99.8866 43.0174 101.622 43.0327 103.312 43.0264C103.676 43.0251 103.284 42.9829 104.163 43.0079C104.222 43.0096 104.514 43.0402 104.813 43.0477C105.019 43.053 105.66 43.0435 105.924 43.0542C106.188 43.0649 105.65 43.0767 105.961 43.0944C106.275 43.1121 107.004 43.1043 107.09 43.1397ZM96.9583 52.8336C97.5707 52.8056 95.3275 52.8015 95.8642 52.8317C95.8928 52.8332 96.9282 52.835 96.9583 52.8336ZM97.3126 56.2191C98.302 56.1825 96.8472 56.1575 96.083 56.1833C95.3197 56.2091 97.0127 56.2303 97.3126 56.2191ZM98.0349 56.5985C98.815 56.5557 95.6341 56.549 96.2771 56.5948C96.3135 56.5974 97.9896 56.601 98.0349 56.5985ZM97.8024 43.1838C97.8322 43.1834 97.8612 43.1608 97.8317 43.1602C97.1193 43.1482 97.0617 43.1934 97.8024 43.1838ZM98.8214 56.9749C99.2517 56.9615 98.7549 56.9231 98.2199 56.9397C97.7894 56.953 98.2861 56.9915 98.8214 56.9749ZM99.3524 51.3739C99.3858 51.3735 99.4159 51.3573 99.227 51.3576C98.6184 51.3587 98.7901 51.3813 99.3524 51.3739ZM98.858 57.6147C98.9777 57.5201 101.605 57.4628 101.309 57.5658C101.255 57.5844 100.471 57.5256 100.234 57.5493C99.8024 57.5927 101.452 57.6216 100.568 57.6659C100.406 57.6739 98.8453 57.6201 98.8543 57.6145C98.8556 57.6145 98.8568 57.6146 98.858 57.6147ZM99.6527 52.8175C99.6823 52.8169 99.7105 52.7945 99.6811 52.7939C98.9689 52.7818 98.9118 52.827 99.6527 52.8175ZM100.739 50.4273C100.803 50.4261 100.862 50.374 100.803 50.3723C99.6389 50.3451 99.5159 50.4505 100.739 50.4273ZM101.294 54.3299C102.011 54.3544 102.095 54.3837 101.195 54.4032C101.243 54.3789 101.25 54.3544 101.294 54.3299Z" fill="#6EC9F2"/>
<path d="M136.424 43.2794C136.619 43.4438 136.41 43.6592 136.123 43.823C136.034 43.8743 135.637 43.8483 135.558 43.8838C135.403 43.9531 135.598 44.0176 135.414 44.0861C135.351 44.1088 134.721 44.0805 134.67 44.1043C134.391 44.2347 134.552 44.3581 134.418 44.4901C133.757 45.1407 133.521 45.7803 133.234 46.4388C133.14 46.656 132.568 46.92 132.818 47.1442C132.848 47.1704 133.401 47.1548 133.446 47.1598C134.144 47.2379 133.028 47.212 132.88 47.263C132.294 47.4654 132.243 47.6906 132.457 47.8855C132.549 47.9684 133.647 47.8852 133.031 47.9687C132.989 47.9745 132.402 47.9535 132.34 47.9762C132.199 48.0278 132.304 48.1256 132.257 48.1655C132.165 48.2425 132.17 48.2553 132.164 48.3281C132.15 48.4277 131.858 48.5461 131.991 48.653C132.021 48.6758 132.623 48.6456 132.725 48.6819C132.827 48.7184 132.776 48.8146 132.634 48.8471C132.492 48.8796 132.019 48.8658 131.911 48.8715C130.996 48.9188 132.263 49.0302 132.295 49.0445C132.829 49.3058 132.107 49.5299 132.109 49.7752C132.112 49.9614 132.35 50.1605 132.318 50.3377C132.276 50.5488 131.95 50.7277 132.006 50.9328C132.012 50.9544 132.719 50.9291 132.727 50.9555C132.809 51.2363 132.732 51.5152 132.254 51.7948C132.206 51.8229 131.585 51.7867 131.499 51.8148C130.989 51.9863 129.762 52.2577 132.467 52.3596C132.361 52.4758 132.252 52.6168 131.707 52.7208C131.356 52.7878 130.679 52.7227 130.968 52.8051C131.032 52.8236 131.625 52.7995 131.677 52.8273C131.894 52.9446 131.701 53.0727 132.007 53.1886C132.071 53.2122 132.602 53.2058 132.698 53.2125C133.472 53.2687 132.192 53.3622 132.099 53.3826C131.405 53.5378 131.678 53.6512 131.661 53.7958C131.657 53.8294 132.37 53.7897 132.392 53.822C132.494 53.9895 132.433 54.163 132.116 54.327C132.044 54.3635 131.436 54.3299 131.371 54.3473C131.089 54.4242 132.237 54.4413 131.989 54.515C131.938 54.5305 131.418 54.5218 131.361 54.5246C130.464 54.569 131.735 54.6075 131.763 54.6189C132.146 54.7633 130.82 54.8556 131.007 54.995C131.031 55.0117 131.689 54.9741 131.716 55.021C131.898 55.3334 131.717 55.6638 131.191 55.9731C131.11 56.0212 130.615 55.9869 130.554 55.9899C129.602 56.0392 130.878 56.0711 130.926 56.0868C131.272 56.2105 130.202 56.326 131.722 56.4101C131.194 56.9339 132.048 57.4553 130.686 57.9749C130.67 57.9815 130.042 57.9696 130.013 57.9828C129.66 58.1415 130.637 58.111 131.831 58.216C132.131 58.2424 130.689 58.3229 130.584 58.33C130.194 58.356 129.259 58.3291 129.184 58.3377C128.591 58.4096 131.683 58.3979 131.684 58.4948C131.679 58.4979 131.11 58.4851 131.053 58.4933C130.876 58.5186 131.102 58.5436 130.906 58.5684C130.453 58.625 128.95 58.6451 129.825 58.7316C129.938 58.7426 131.692 58.7259 131.609 58.8124C131.574 58.8469 131.605 58.9997 131.491 59.0425C131.377 59.0852 130.812 59.0559 130.788 59.0589C130.04 59.1741 129.731 59.1304 128.624 59.1882C127.522 59.2459 130.151 59.2299 130.444 59.2534C130.737 59.277 130.12 59.3614 129.906 59.3822C129.692 59.4029 129.333 59.3771 129.211 59.3955C128.418 59.5178 130.516 59.4492 130.933 59.4895C131.921 59.5845 129.972 59.6585 129.781 59.7455C129.729 59.7691 130.173 59.7499 130.215 59.7708C130.373 59.8538 129.765 59.9038 130.323 59.9982C130.414 60.0136 131.586 60.09 130.725 60.1394C130.601 60.1464 130.116 60.1265 130.007 60.1619C129.843 60.2148 129.737 60.31 129.9 60.3668C130.02 60.4087 130.82 60.3607 130.572 60.4134C130.461 60.4369 129.992 60.3934 129.823 60.4375C129.653 60.4814 129.674 60.5935 129.69 60.6361C129.707 60.6787 130.314 60.6554 130.355 60.6588C130.589 60.6797 130.882 60.7614 130.881 60.7686C130.955 61.1329 129.932 61.4688 130.27 61.8235C130.296 61.8513 130.937 61.8328 130.947 61.837C131.215 61.9323 129.513 61.8572 128.943 61.9237C130.242 61.9141 130.007 61.9534 130.15 62.0205C130.219 62.0529 130.723 62.0353 130.774 62.0382C131.538 62.0862 130.551 62.1196 130.349 62.1282C129.606 62.1599 130.484 62.1945 129.988 62.2161C129.495 62.2377 128.764 62.188 128.774 62.2524C129.239 62.2704 130.454 62.2226 130.651 62.2715C131.397 62.4559 130.443 62.8001 130.344 62.9484C130.245 63.0964 130.331 63.1441 130.162 63.2304C129.858 63.3861 130.76 63.329 131.173 63.4257C131.586 63.5227 129.367 63.4756 128.89 63.4895C128.413 63.5032 128.904 63.5182 128.642 63.5352C128.38 63.5521 128.055 63.5154 127.957 63.5553C127.859 63.5953 128.707 63.7044 129.206 63.7186C130.262 63.7485 131.372 63.6993 130.982 63.805C130.959 63.811 130.375 63.7913 130.316 63.8146C129.867 63.9994 129.839 64.1914 129.442 64.376C129.386 64.4014 128.737 64.3787 128.698 64.3934C128.282 64.5473 129.377 64.4923 130.593 64.5766C128.975 64.5577 127.985 64.6043 127.975 64.7211C127.969 64.7913 128.676 64.7792 129.174 64.8246C129.324 64.8382 128.839 64.8879 129.171 64.8969C130.257 64.9265 131.473 64.8798 130.989 65.0002C130.966 65.0054 130.371 64.9886 130.335 65.0069C130.1 65.1248 131.236 65.139 131.374 65.2665C131.482 65.3664 130.789 65.5442 130.676 65.658C128.857 65.6556 129.273 65.7631 130.528 65.8067C130.476 65.8806 130.547 65.9603 130.374 66.0317C130.315 66.0563 129.788 66.0402 129.731 66.0433C128.839 66.0908 130.059 66.1229 130.107 66.1388C130.572 66.3116 129.647 66.4524 130.551 66.6173C130.583 66.6232 131.847 66.6326 130.924 66.6767C130.861 66.6796 130.286 66.6251 130.241 66.7027C130.197 66.7803 129.519 66.9265 130.105 67.0342C130.246 67.0603 131.272 67.1262 130.47 67.1791C130.361 67.1862 129.999 67.1785 129.797 67.1887C129.155 67.2215 130.432 67.2395 129.347 67.2782C128.262 67.3168 127.449 67.3973 128.198 67.5059C128.219 67.5093 129.232 67.5351 129.216 67.5692C129.189 67.6238 128.978 67.7012 128.985 67.7581C128.989 67.7854 129.617 67.7679 129.629 67.7726C129.981 67.956 129.421 68.0864 129.177 68.2828C129.132 68.3188 129.989 68.4222 129.311 68.4919C128.569 68.5684 125.483 68.4898 126.218 68.6657C126.512 68.7367 130.428 68.8265 128.399 68.954C128.902 69.2012 127.864 69.4299 128.581 69.6778C128.613 69.689 129.706 69.7242 129.691 69.7504C129.667 69.7894 129.156 69.8107 129.122 69.8385C128.969 69.9549 129.406 70.0615 129.338 70.1738C129.313 70.2164 128.785 70.2015 128.755 70.2523C128.726 70.3031 129.422 70.337 129.086 70.4058C128.83 70.4578 127.409 70.5098 127.243 70.5788C128.645 70.5815 128.616 70.6289 128.986 70.7131C129.058 70.7293 129.546 70.7119 129.605 70.7196C129.856 70.7508 129.452 70.7796 129.726 70.8092C129.791 70.8164 130.27 70.8168 130.351 70.8227C131.056 70.8727 129.979 70.9552 129.792 70.9693C129.08 71.0236 129.702 71.049 129.422 71.0906C129.141 71.1322 128.791 71.0701 128.621 71.1186C128.269 71.2193 128.346 71.3486 128.324 71.4508C128.318 71.4916 128.957 71.4638 128.971 71.4696C129.133 71.554 128.454 71.6393 129.727 71.6861C126.435 71.7445 130.046 71.7369 129.387 71.8575C129.334 71.867 127.777 71.8791 127.549 71.8426C127.32 71.8061 127.807 71.7509 127.451 71.7003C127.367 71.6883 125.908 71.6197 125.82 71.6103C125.13 71.537 127.456 71.5266 127.583 71.5227C128.962 71.4787 127.391 71.3948 127.282 71.3727C126.785 71.2717 127.112 71.1859 126.757 71.1014C126.527 71.0461 125.004 71.0407 125.05 70.9973C125.204 70.8531 127.33 70.8027 125.487 70.6668C125.094 70.6376 123.428 70.6666 124.738 70.5622C124.821 70.5556 126.018 70.4781 125.261 70.4332C125.165 70.4276 124.68 70.4278 124.639 70.4204C124.375 70.3706 124.762 70.3375 124.577 70.2833C124.392 70.2291 124.116 70.164 124.28 70.1021C124.379 70.0649 125.283 70.017 125.504 69.9992C126.142 69.9488 125.096 69.8948 125.869 69.8636C126.645 69.8321 127.823 69.8936 128.325 69.8111C127.064 69.808 125.77 69.801 124.502 69.7961C124.546 69.6152 124.954 69.4372 124.898 69.2557C124.89 69.2332 124.212 69.2563 124.186 69.2321C124.078 69.1304 124.561 69.0415 124.369 68.9359C124.217 68.8542 123.5 68.7647 123.319 68.6792C124.762 68.6271 124.272 68.5003 124.404 68.4082C124.449 68.376 124.835 68.3781 124.96 68.3552C125.425 68.2686 124.15 68.3092 123.95 68.2855C123.093 68.1837 125.979 68.175 125.908 68.055C125.905 68.0486 124.367 67.9709 124.271 67.9602C123.646 67.8922 124.806 67.9489 124.92 67.9064C125.128 67.8286 125.495 67.7746 125.045 67.6835C124.911 67.6569 123.952 67.5931 124.694 67.5415C124.791 67.5347 125.3 67.5384 125.329 67.533C125.826 67.434 124.228 67.4314 123.687 67.3748C123.146 67.3183 124.249 67.2309 124.567 67.2132C125.389 67.1667 124.918 67.2488 124.999 67.2513C125.959 67.2809 125.794 67.2172 125.875 67.1685C127.442 67.1615 127.348 67.0934 125.953 67.118C125.801 67.1209 125.947 67.1587 125.875 67.1685C124.338 67.1258 124.141 67.051 125.577 66.9683C126.251 66.9296 127.036 66.9662 126.748 66.8487C126.619 66.7954 125.54 66.816 125.246 66.7689C124.575 66.6614 125.581 66.5217 125.423 66.4108C125.365 66.3706 124.775 66.4098 124.715 66.3823C124.555 66.3093 124.998 66.245 124.771 66.1717C124.75 66.1651 124.132 66.1813 124.124 66.1585C124.052 65.9858 124.448 65.8353 124.459 65.655C124.464 65.5678 124.123 65.412 124.191 65.3217C124.307 65.1653 125.205 64.9728 124.987 64.8391C124.847 64.752 124.229 64.7711 123.808 64.7337C122.991 64.6616 124.454 64.534 124.68 64.5169C124.688 64.5163 124.834 64.5914 125.151 64.5513C125.812 64.5281 124.683 64.5177 124.68 64.5169C124.827 64.5056 124.967 64.3557 124.849 64.326C124.784 64.3098 124.198 64.3188 124.176 64.3104C123.652 64.11 123.503 63.9093 123.777 63.706C123.788 63.7025 124.444 63.7079 124.463 63.6994C124.755 63.5818 123.953 63.5065 123.477 63.4094C123.002 63.3124 123.161 63.2354 124.286 63.178C124.144 63.1048 124.641 62.9998 124.943 62.9393C125.245 62.8789 123.969 62.8705 123.944 62.8651C123.137 62.6993 123.867 62.6034 123.981 62.4313C124.037 62.3495 123.852 62.1872 123.713 62.0986C123.6 62.0286 123.899 61.9865 123.708 61.9219C123.682 61.9132 123.115 61.922 123.093 61.9194C122.413 61.8474 123.802 61.882 124.049 61.8671C124.951 61.8132 125.431 61.7799 125.007 61.6877C124.91 61.6665 122.911 61.6045 122.794 61.5658C122.646 61.5154 123.362 61.5344 123.189 61.4816C123.175 61.4771 122.733 61.478 122.752 61.4455C122.837 61.2943 123.094 61.1295 123.05 60.9724C123.045 60.9509 122.344 60.9784 122.326 60.9474C122.243 60.8019 122.269 60.6425 122.597 60.5007C122.68 60.4658 123.171 60.4877 123.317 60.4801C124.199 60.4336 122.918 60.3677 122.893 60.3568C122.277 60.0973 123.437 59.8987 122.885 59.6342C122.853 59.6198 121.479 59.509 122.657 59.4595C122.735 59.4561 123.941 59.4072 123.117 59.364C123.065 59.3613 122.444 59.3918 122.508 59.3386C122.571 59.2854 122.156 59.1997 122.838 59.1266C123.053 59.1035 124.255 59.0488 123.297 58.9797C123.23 58.9752 121.063 58.8686 122.558 58.8305C122.804 58.8244 124.386 58.8308 123.575 58.7484C123.418 58.7327 123.065 58.7612 122.845 58.7198C122.505 58.6562 122.929 58.572 122.224 58.4938C122.099 58.4802 121.025 58.4222 121.84 58.3757C121.968 58.3684 122.496 58.3822 122.555 58.3577C122.839 58.2408 122.486 58.1185 122.851 57.9998C122.979 57.9578 123.833 57.9793 124.062 57.9355C124.291 57.8917 124.511 57.8034 124.121 57.7576C123.73 57.7117 122.369 57.7618 122.261 57.6931C121.788 57.3945 122.586 57.0987 122.703 56.8005C122.72 56.7563 122.233 56.7929 122.224 56.7278C122.188 56.4875 121.731 56.0726 122.766 55.8641C123.595 55.6971 124.226 55.9073 124.563 55.7796C124.724 55.718 123.142 55.6514 123.092 55.6365C122.586 55.4913 123.287 55.3903 123.072 55.2595C123.027 55.2325 122.386 55.259 122.355 55.236C122.244 55.1575 122.53 55.0751 122.478 55C122.453 54.9664 121.963 54.9726 122.001 54.9416C122.085 54.8676 122.291 54.802 122.75 54.7298C122.792 54.7232 123.402 54.7676 123.424 54.7128C123.459 54.6241 123.912 54.514 123.444 54.4119C123.304 54.3816 122.184 54.3804 122.957 54.3153C123.119 54.3017 124.463 54.3191 123.301 54.2433C123.108 54.2305 121.542 54.1031 122.552 54.0406C122.817 54.0241 123.917 53.9821 123.745 53.9456C123.717 53.9407 123.116 53.9605 123.057 53.9303C122.861 53.8239 122.925 53.7125 122.737 53.6032C122.685 53.574 122.063 53.6175 122.006 53.574C121.849 53.4544 122.007 53.3051 122.202 53.1882C122.275 53.1451 122.79 53.1749 122.846 53.1717C123.759 53.1213 122.527 53.0915 122.456 53.0747C122.026 52.9706 122.604 52.8913 122.451 52.7953C122.41 52.7688 121.823 52.7876 121.771 52.7823C121.259 52.7277 122.314 52.7684 122.43 52.7338C122.759 52.6368 122.712 52.5287 122.637 52.4306C122.608 52.3946 121.928 52.4351 121.91 52.4028C121.793 52.2115 121.858 52.0126 122.233 51.8258C122.305 51.7907 122.829 51.8128 122.949 51.8055C123.787 51.755 122.644 51.681 122.535 51.6639C122.038 51.5865 122.502 51.5564 122.415 51.488C121.984 51.1539 122.291 50.7415 122.481 50.4261C122.725 50.0152 123.224 49.6963 123.095 49.3044C123.087 49.2795 122.39 49.3046 122.374 49.2832C122.206 49.006 122.478 48.7331 122.277 48.4554C122.262 48.4326 121.601 48.4654 121.554 48.4288C121.453 48.3538 121.489 48.2588 121.7 48.1829C121.802 48.1459 122.369 48.1955 122.46 48.1583C122.673 48.0715 122.72 47.9786 122.614 47.8895C122.567 47.8516 121.891 47.9088 121.883 47.8595C121.816 47.5238 121.7 47.1942 122.575 46.855C122.636 46.8317 124.01 46.8113 123.746 46.7619C123.365 46.7582 122.916 46.7584 122.509 46.7567C122.289 46.2681 122.765 45.7845 122.839 45.2945C122.842 45.2738 122.114 45.3095 122.116 45.2695C122.127 45.038 121.925 44.8132 122.649 44.5764C122.72 44.5529 124.001 44.565 123.807 44.4957C123.772 44.4835 123.601 44.3792 123.323 44.3523C123.281 44.3486 122.683 44.3676 122.665 44.334C122.574 44.1388 122.711 43.9341 123.076 43.7392C123.136 43.7077 123.773 43.7412 123.822 43.7188C124.16 43.5599 123.675 43.387 124.254 43.2351C124.643 43.1334 125.744 43.1711 126.827 43.117C126.98 43.1094 127.004 43.0464 127.635 43.0432C129.22 43.0348 130.956 43.0653 132.645 43.0528C133.009 43.0502 132.617 42.9659 133.497 43.0158C133.556 43.0193 133.848 43.0804 134.146 43.0954C134.352 43.1059 134.993 43.087 135.257 43.1084C135.521 43.1298 134.984 43.1533 135.294 43.1888C135.608 43.2242 136.337 43.2086 136.424 43.2794ZM126.292 62.6672C126.904 62.6112 124.661 62.603 125.198 62.6635C125.226 62.6664 126.262 62.6701 126.292 62.6672ZM126.646 69.4382C127.635 69.3651 126.18 69.315 125.416 69.3666C124.653 69.4182 126.346 69.4605 126.646 69.4382ZM127.368 70.1969C128.148 70.1114 124.967 70.0979 125.61 70.1895C125.647 70.1949 127.323 70.2019 127.368 70.1969ZM127.136 43.3676C127.166 43.3668 127.195 43.3215 127.165 43.3205C126.453 43.2964 126.395 43.3869 127.136 43.3676ZM128.155 70.9498C128.585 70.9231 128.088 70.8462 127.553 70.8794C127.123 70.9061 127.619 70.983 128.155 70.9498ZM128.686 59.7479C128.719 59.747 128.749 59.7146 128.56 59.7152C127.952 59.7174 128.123 59.7626 128.686 59.7479ZM128.191 72.2293C128.311 72.0403 130.939 71.9257 130.642 72.1315C130.589 72.1688 129.804 72.0512 129.567 72.0986C129.136 72.1855 130.786 72.2431 129.902 72.3317C129.74 72.3477 128.179 72.2401 128.188 72.229C128.189 72.2291 128.19 72.2292 128.191 72.2293ZM128.986 62.635C129.016 62.6338 129.044 62.5889 129.014 62.5879C128.302 62.5635 128.245 62.654 128.986 62.635ZM130.073 57.8547C130.136 57.8522 130.195 57.748 130.137 57.7446C128.972 57.6902 128.849 57.9009 130.073 57.8547ZM130.628 65.6598C131.344 65.7088 131.428 65.7674 130.529 65.8065C130.576 65.7578 130.583 65.7088 130.628 65.6598Z" fill="#6EC9F2"/>
<path d="M156.895 36.8048C158.468 37.3828 160.135 38.4558 161.464 39.8691C162.982 41.4571 164.03 43.4537 164.528 45.2357C164.809 46.2928 164.252 45.8968 164.384 46.6148C164.59 47.8871 164.897 49.0705 164.788 50.3333C164.777 50.398 164.764 50.4629 164.747 50.5281C164.684 50.7729 164.055 50.4682 164.003 50.7249C163.725 52.1311 163.885 53.4615 163.751 54.8861C163.091 61.9032 162.854 68.8008 162.567 75.9036C162.473 78.2456 161.902 81.0927 162.152 83.5117C162.181 83.7941 162.734 83.6257 162.78 83.6795C163.477 84.5221 162.361 84.242 162.213 84.7922C161.628 86.976 161.577 89.4043 161.79 91.506C161.882 92.4001 162.98 91.5036 162.364 92.4039C162.322 92.4664 161.736 92.2395 161.673 92.4847C161.532 93.0408 161.637 94.0958 161.591 94.5267C161.498 95.3573 161.504 95.4947 161.497 96.2803C161.483 97.3543 161.191 98.6316 161.324 99.7838C161.354 100.03 161.956 99.7042 162.058 100.096C162.161 100.489 162.11 101.528 161.968 101.878C161.826 102.228 161.353 102.079 161.244 102.141C160.329 102.651 161.597 103.852 161.628 104.007C162.162 106.825 161.44 109.242 161.442 111.887C161.444 113.344 161.57 114.874 161.627 116.333L161.775 119.464L158.333 119.627C157.78 119.648 157.237 119.66 156.712 119.651C154.436 119.61 152.506 119.284 150.294 119.34C150.061 119.345 150.334 120.052 150.049 120.06C147.02 120.143 144.012 120.065 140.997 119.588C140.694 119.539 141.084 118.918 140.782 118.832C138.932 118.322 136.004 117.096 134.906 119.8C133.652 119.695 132.131 119.585 131.01 119.04C130.287 118.689 130.989 118.013 130.101 118.301C129.901 118.366 130.161 118.958 129.861 119.01C128.596 119.227 127.215 119.034 125.964 119.341C125.709 119.404 125.779 119.935 125.707 120.031C125.101 120.805 124.092 119.525 123.872 119.432C122.198 118.738 120.975 119.011 119.415 118.995C119.053 118.99 119.481 119.704 119.133 119.725C117.327 119.827 115.455 119.766 113.686 119.45C113.293 119.377 113.655 118.77 113.467 118.704C112.638 118.423 112.454 119.57 111.659 119.322C111.491 119.271 111.586 118.751 111.555 118.694C111.077 117.798 110.661 119.068 110.538 119.096C108.981 119.479 107.986 118.153 106.481 118.341C106.302 118.365 106.707 119.023 106.201 119.049C102.832 119.231 99.2678 119.05 95.9323 118.524C95.4137 118.443 95.7839 117.949 95.7513 117.888C95.2194 116.935 94.8752 118.211 94.7061 118.259C93.3721 118.605 92.1259 117.535 91.2195 119.055C85.5697 118.528 79.9458 119.381 74.3427 118.019C74.2715 118.004 74.3991 117.375 74.257 117.347C72.5456 116.994 72.8743 117.97 71.7419 119.165C71.4567 119.465 70.5889 118.023 70.5121 117.917C70.2324 117.527 70.5225 116.593 70.4289 116.517C70.3954 116.492 70.3636 116.473 70.3333 116.46L70.2125 116.466L70.2062 116.333C70.4807 115.662 67.6502 115.735 67.6493 114.734C67.6544 114.702 68.2235 114.839 68.2801 114.751C68.4577 114.479 68.2316 114.208 68.4275 113.942C68.8807 113.331 70.383 113.113 69.5087 112.181C69.3952 112.063 67.6415 112.243 67.7243 111.309C67.7589 110.937 67.7288 109.29 67.8424 108.828C67.956 108.367 68.5211 108.684 68.5456 108.651C69.2929 107.408 69.6026 107.879 70.709 107.257C71.8112 106.634 69.1823 106.807 68.8889 106.553C68.5963 106.299 69.2129 105.388 69.4272 105.164C69.6417 104.94 70.0008 105.219 70.1221 105.02C70.9149 103.701 68.8172 104.441 68.4 104.007C67.4121 102.982 69.3616 102.184 69.5526 101.245C69.6042 100.991 69.1602 101.199 69.1187 100.973C68.9601 100.077 69.5684 99.5388 69.0107 98.5202C68.9198 98.3536 67.7476 97.5302 68.6078 96.9972C68.7319 96.9217 69.2177 97.1362 69.3265 96.7546C69.4898 96.1846 69.596 95.1576 69.4336 94.5448C69.3135 94.0925 68.513 94.611 68.7616 94.0416C68.8727 93.7885 69.341 94.2575 69.5105 93.7821C69.68 93.3092 69.6595 92.1 69.6433 91.6399C69.6268 91.1806 69.0195 91.432 68.9786 91.3949C68.7443 91.1703 68.4515 90.2889 68.4522 90.211C68.3781 86.2821 69.4016 82.6591 69.0628 78.8339C69.0371 78.5337 68.3968 78.7337 68.3863 78.6879C68.118 77.6602 69.8205 78.4704 70.3904 77.7525C69.0909 77.8563 69.3262 77.4325 69.1837 76.7086C69.114 76.3598 68.6108 76.5497 68.5593 76.5179C67.7951 76.0006 68.7822 75.6404 68.9841 75.5476C69.7269 75.205 68.8492 74.8322 69.3457 74.599C69.8385 74.366 70.5691 74.9022 70.5597 74.208C70.0946 74.0133 68.879 74.5287 68.682 74.0016C67.9368 72.0128 68.8905 68.3004 68.9896 66.7013C69.0886 65.1054 69.0028 64.59 69.1709 63.66C69.4748 61.9802 68.573 62.5958 68.1601 61.5528C67.7474 60.5068 69.9664 61.0153 70.4435 60.8649C70.9203 60.7173 70.4294 60.5561 70.6916 60.3725C70.9536 60.1895 71.278 60.5857 71.3764 60.1553C71.4747 59.7246 70.6264 58.5471 70.1276 58.3945C69.0709 58.0717 67.9618 58.6023 68.3515 57.4628C68.3746 57.3972 68.9581 57.6099 69.0171 57.359C69.4663 55.3657 69.4941 53.295 69.8914 51.3041C69.9469 51.0304 70.596 51.2752 70.6357 51.1159C70.723 50.7672 70.7435 50.5179 70.7103 50.3333C70.6067 49.662 69.6923 49.8756 68.8584 48.8874C70.4383 49.3555 71.4185 48.9839 71.7968 48.0217C72.055 47.4272 71.3736 47.2361 71.1797 46.5552C71.1263 46.338 71.8285 46.1575 71.6194 45.8897C70.9741 44.975 69.5843 44.6448 71.0742 43.7409C71.0749 43.7406 71.0755 43.7402 71.0761 43.7399C71.1 43.7275 71.1471 43.7923 71.2076 43.8742C71.287 43.9821 71.3904 44.1187 71.4878 44.1544C71.5264 44.1687 71.5639 44.1672 71.5991 44.142C72.8487 43.3396 72.3217 42.2788 73.9449 41.3681C74.815 40.9102 76.3763 40.8306 77.6667 41.0834C78.1496 41.1928 78.612 41.2879 79.004 41.3239C78.9782 43.1431 80.1376 42.7265 80.6079 41.4723C81.4045 41.5236 82.2649 41.4527 83.0349 41.6261C83.2999 41.6852 83.1258 42.2118 83.1592 42.2688C83.6716 43.1615 84.0179 41.9412 84.1899 41.8934C86.0535 41.4284 87.5718 42.3532 89.3504 41.4494C89.4135 41.4168 89.5158 40.1532 89.9912 41.0758C90.022 41.1394 89.4346 41.7144 90.2712 41.7588C91.108 41.8034 92.6855 42.4808 93.8472 41.8952C94.1283 41.7543 94.8394 40.7285 95.4101 41.5299C95.4861 41.6388 95.4029 42.0012 95.5126 42.2028C95.8674 42.8454 96.0612 41.5682 96.4781 42.6533C96.8952 43.7383 97.7625 44.5509 98.9341 43.8023C98.9714 43.7805 99.2488 42.7682 99.6172 42.7842C100.205 42.8106 101.04 43.0215 101.654 43.0149C101.948 43.0114 101.76 42.3828 101.811 42.3713C103.788 42.0191 105.195 42.5794 107.313 42.8226C107.702 42.8685 108.817 42.0113 109.569 42.689C110.394 43.4308 109.546 46.5168 111.443 45.7816C112.208 45.4876 113.177 41.5724 114.552 43.6008C117.219 43.0982 119.685 44.1364 122.359 43.4187C122.48 43.3869 122.86 42.2942 123.143 42.309C123.562 42.3332 123.793 42.8439 124.092 42.8776C125.348 43.0314 126.497 42.5945 127.708 42.6624C128.168 42.6871 128.007 43.2152 128.555 43.2447C129.103 43.2737 129.469 42.5784 130.211 42.9142C130.772 43.1702 131.333 44.5915 132.077 44.7572C132.105 43.3552 132.617 43.3841 133.525 43.014C133.7 42.9422 133.513 42.4542 133.595 42.3951C133.931 42.1436 134.243 42.548 134.562 42.2743C134.64 42.2085 134.643 41.7297 134.707 41.6489C135.247 40.9439 136.136 42.0208 136.289 42.2083C136.874 42.9205 137.148 42.2978 137.597 42.5782C138.046 42.8586 137.375 43.2091 137.899 43.3793C138.985 43.7312 140.379 43.6539 141.482 43.6759C141.922 43.6817 141.622 43.0426 141.685 43.0286C142.595 42.8665 143.514 43.5464 144.019 42.2733C144.65 45.5649 144.567 41.9541 145.868 42.613C145.97 42.6663 146.101 44.2228 145.707 44.4514C145.314 44.6797 144.718 44.1931 144.172 44.5493C144.043 44.6329 143.303 46.0915 143.202 46.1799C142.411 46.8704 142.299 44.5443 142.257 44.4166C141.782 43.0378 140.878 44.6092 140.64 44.7178C139.55 45.2153 138.624 44.8882 137.713 45.2433C137.117 45.4728 137.059 46.9965 136.591 46.9498C135.035 46.7957 134.492 44.6702 133.026 46.5131C132.711 46.9062 133.024 48.5715 131.897 47.262C131.826 47.1795 130.99 45.9815 130.507 46.7393C130.446 46.8348 130.448 47.3201 130.368 47.3609C129.832 47.6246 129.474 47.238 128.89 47.4232C128.305 47.6083 127.603 47.8844 126.936 47.7198C126.534 47.6214 126.018 46.7171 125.825 46.4957C125.282 45.858 124.699 46.9036 124.363 46.1314C124.023 45.3552 124.687 44.1765 123.797 43.675C123.764 44.9359 123.688 46.2301 123.635 47.4982C121.684 47.4538 119.764 47.0461 117.807 47.1018C117.564 47.11 117.813 47.7879 117.552 47.8141C116.455 47.9218 115.496 47.4385 114.358 47.631C113.477 47.7825 112.511 48.5003 111.589 48.6811C111.026 47.2382 109.659 47.728 108.666 47.5962C108.318 47.5506 108.342 47.1653 108.094 47.0396C107.161 46.5746 107.598 47.8496 107.342 48.0503C106.244 48.9067 106.15 46.0207 104.856 46.092C104.788 46.0948 103.949 47.6331 103.834 47.7289C103.1 48.3536 103.713 47.1935 103.253 47.0798C102.415 46.8721 101.833 46.5047 100.849 46.9553C100.563 47.0888 99.8747 48.0476 99.3179 47.306C99.2446 47.2089 99.2851 46.7004 99.2262 46.6706C98.1588 46.1742 98.1307 47.7719 97.5209 48.313C96.9108 48.854 95.9687 47.7511 95.7769 47.4332C95.2753 46.6109 96.1613 47.0818 96.1885 47.0011C96.5076 46.0408 95.8205 46.2061 95.2954 46.1249C95.2194 44.5584 94.4852 44.6524 94.7511 46.0471C94.7814 46.1995 95.19 46.0534 95.2954 46.1249C94.8345 47.662 94.0276 47.8588 93.1363 46.4225C92.7191 45.7493 93.1135 44.9644 91.8462 45.2515C91.271 45.3812 91.4933 46.4598 90.9857 46.7539C89.8261 47.4249 88.3192 46.4187 87.1237 46.5772C86.6898 46.6348 87.1125 47.2252 86.816 47.2849C86.029 47.4452 85.335 47.0021 84.5447 47.2291C84.4731 47.2504 84.648 47.8685 84.4023 47.8763C82.5391 47.9481 80.9167 47.5522 78.9714 47.5413C78.6162 47.5394 78.1552 47.5869 77.6667 47.643C77.3665 47.7341 77.0996 47.9064 76.8913 47.9306C76.5267 47.9666 75.9118 47.8487 75.3937 48.0604C75.114 48.1695 74.8886 48.3613 74.8339 48.6012C74.7425 49.0416 75.3561 49.2323 75.6894 49.5119C76.376 49.9446 74.8994 49.9592 74.6615 50.1079C74.6492 50.1157 74.5494 49.7483 74.2098 49.8971C73.5373 49.9495 74.6585 50.1115 74.6615 50.1079C74.6098 50.1211 74.5524 50.2103 74.5136 50.3333C74.4405 50.8708 74.4073 51.6339 74.4846 51.8436C74.5492 52.018 75.1349 51.9205 75.1575 52.0114C75.6817 54.1726 75.8305 56.3376 75.5567 58.5296C75.5448 58.5682 74.8897 58.5101 74.87 58.6008C74.5787 59.8699 75.3802 60.6824 75.856 61.729C76.3317 62.7755 76.1724 63.6054 75.0476 64.2248C75.1892 65.0144 74.692 66.1472 74.3903 66.7991C74.0886 67.4509 75.3639 67.5419 75.3891 67.5992C76.1961 69.3881 75.4661 70.4222 75.3525 72.2782C75.2963 73.1606 75.4813 74.9108 75.6207 75.8662C75.7331 76.6213 75.4342 77.0761 75.6253 77.7718C75.6508 77.866 76.2187 77.7709 76.2406 77.7996C76.9199 78.5761 75.5318 78.2029 75.2838 78.3632C74.3822 78.9444 73.9021 79.3035 74.3262 80.2978C74.4233 80.5272 76.4221 81.1952 76.539 81.6133C76.6873 82.1569 75.9709 81.9517 76.1444 82.5209C76.1586 82.5695 76.6006 82.5594 76.5811 82.9107C76.4965 84.5412 76.2393 86.3189 76.2836 88.0133C76.2879 88.2447 76.989 87.948 77.0068 88.2824C77.09 89.8516 77.064 91.5715 76.7359 93.1002C76.6529 93.4765 76.162 93.2406 76.0162 93.3223C75.1344 93.8238 76.4157 94.5349 76.4401 94.6522C77.0559 97.4512 75.8963 99.5934 76.4484 102.446C76.4808 102.601 77.8544 103.797 76.6763 104.33C76.598 104.367 75.3927 104.894 76.2167 105.361C76.2683 105.39 76.8888 105.061 76.8256 105.635C76.7625 106.208 77.1768 107.132 76.4951 107.92C76.2803 108.17 75.078 108.76 76.0364 109.505C76.1033 109.554 78.2704 110.703 76.7752 111.114C76.5291 111.18 74.9468 111.111 75.7581 112C75.9153 112.17 76.2683 111.861 76.4887 112.309C76.8283 112.994 76.4045 113.903 77.1094 114.745C77.2342 114.892 78.3081 115.518 77.493 116.02C77.3653 116.098 76.8371 115.949 76.778 116.214C76.769 116.254 76.7607 116.294 76.753 116.333L70.3333 109.914C71.5574 110.151 72.8343 109.83 74.0736 110.184C74.5268 110.313 74.2951 111.167 74.7675 111.396C75.2401 111.624 76.192 111.844 76.6864 111.454C77.181 111.064 76.6407 109.703 77.3816 109.594C80.6023 109.121 83.7928 109.919 87.0087 110.036C87.4857 110.054 87.0903 109.567 87.7932 109.557C90.3848 109.521 94.859 109.064 97.1078 110.099C98.9096 110.928 96.6421 111.559 98.019 111.896C98.6834 112.057 99.4021 110.475 99.5625 110.425C101.129 109.919 102.218 110.62 103.628 110.405C103.92 110.36 103.634 109.719 103.882 109.688C104.728 109.577 105.618 109.863 106.427 109.811C106.79 109.786 106.723 109.296 107.057 109.334C107.856 109.419 108.563 109.625 109.342 110.084C109.413 110.126 108.934 110.735 109.525 110.758C110.482 110.792 111.67 111.245 112.77 110.778C113.097 110.637 113.11 109.517 113.812 110.291C113.959 110.452 113.771 111.796 114.589 110.635C114.727 110.442 116.101 108.875 116.775 109.885C116.953 110.151 117.407 111.251 117.799 111.078C117.853 111.05 117.639 110.449 117.965 110.39C119.112 110.194 120.314 110.258 121.492 110.07C121.807 110.018 121.338 109.396 121.807 109.339C123.097 109.182 124.707 109.341 125.969 109.535C126.434 109.608 126.112 110.124 126.146 110.18C126.69 111.092 127.012 109.861 127.192 109.789C128.316 109.359 129.171 109.937 130.206 109.784C130.492 109.744 130.289 109.156 130.346 109.104C130.936 108.593 130.496 109.647 130.87 109.763C131.916 110.092 133.082 110.045 134.139 109.97C134.528 109.942 134.091 109.261 134.44 109.243C136.503 109.126 138.648 109.191 140.662 109.566C141.041 109.638 140.803 110.163 140.882 110.282C141.427 111.12 142.225 109.977 142.409 109.869C143.244 109.372 143.568 109.835 144.306 109.749C147.909 109.318 152.358 109.625 155.759 109.815C156.653 109.864 157.506 109.923 158.333 109.986L151.986 116.333C152.234 113.057 152.531 110.184 152.428 106.81C152.42 106.542 151.723 106.812 151.707 106.581C151.539 103.591 151.812 100.648 151.61 97.6525C151.595 97.4067 150.934 97.761 150.887 97.3665C150.787 96.5572 150.822 95.532 151.034 94.7138C151.135 94.3147 151.703 94.85 151.793 94.4483C152.006 93.5129 152.053 92.5102 151.947 91.5494C151.901 91.1405 151.225 91.7574 151.217 91.226C151.15 87.6058 151.033 84.0503 151.909 80.392C151.969 80.1412 153.343 79.9211 153.08 79.3879C152.698 79.3477 152.25 79.3499 151.842 79.3323C151.622 74.0622 152.099 68.8459 152.173 63.5611C152.175 63.3382 151.447 63.7233 151.449 63.2919C151.46 60.7951 151.258 58.3706 151.982 55.8166C152.053 55.5632 153.334 55.6932 153.14 54.9465C153.105 54.8148 152.934 53.6901 152.656 53.3993C152.614 53.3598 152.016 53.565 151.999 53.2026C151.958 52.2602 151.963 51.2977 152.013 50.3333C152.075 50.169 152.172 49.9708 152.248 49.6777C152.268 49.5882 152.866 49.3552 152.877 49.2745C152.894 49.0436 152.769 48.8591 152.618 48.7158C152.357 48.4731 152.082 48.3561 151.877 47.8994C151.616 47.4088 152.048 46.3877 151.884 45.249C151.854 45.0828 151.376 45.0033 151.379 44.3773C151.369 42.7873 151.884 41.0847 151.852 39.3877C151.841 39.0035 150.419 39.374 151.274 38.5064C151.332 38.4378 152.423 38.2185 152.746 37.9768C152.971 37.8015 152.699 37.1119 153.158 36.9151C153.632 36.7261 153.98 37.3369 154.735 37.2279C155.505 37.1426 155.437 36.303 156.895 36.8048ZM73.0417 69.7341C72.4292 70.3377 74.6725 70.4268 74.1358 69.774C74.1072 69.7424 73.0718 69.703 73.0417 69.7341ZM119.775 45.3541C118.986 44.3647 118.446 45.8195 119.003 46.5836C119.56 47.3469 120.016 45.654 119.775 45.3541ZM127.958 44.6317C127.036 43.8516 126.891 47.0326 127.878 46.3895C127.936 46.3532 128.012 44.677 127.958 44.6317ZM153.815 45.6442C153.827 45.6134 153.519 45.4096 153.497 45.4345C153.024 45.9875 153.553 46.3433 153.815 45.6442ZM136.078 43.8453C135.79 43.415 134.961 43.9117 135.319 44.4468C135.607 44.8772 136.436 44.3806 136.078 43.8453ZM70.6476 101.22C70.6142 101.23 70.5841 101.579 70.773 101.572C71.3816 101.549 71.2099 101.062 70.6476 101.22ZM149.878 43.8087C147.839 43.6889 146.603 41.0613 148.823 41.3578C149.225 41.4115 147.957 42.1957 148.469 42.4326C149.405 42.8642 150.027 41.2144 150.982 42.0985C151.155 42.2603 149.994 43.8213 149.875 43.8123C149.876 43.8111 149.877 43.8099 149.878 43.8087ZM70.3473 70.0817C70.3177 70.0938 70.2895 70.5782 70.3189 70.5898C71.0311 70.8521 71.0882 69.8763 70.3473 70.0817ZM75.6389 117.406C75.6656 117.469 76.7898 117.528 76.8264 117.47C77.4129 116.306 75.1401 116.183 75.6389 117.406ZM79.0233 41.3725C79.5519 40.656 80.1841 40.5717 80.6055 41.4713C80.0802 41.4236 79.5514 41.4165 79.0233 41.3725Z" fill="#6EC9F2"/>
<path d="M70.3596 123.753C70.4271 123.913 70.4435 123.744 70.266 123.599C70.2386 123.576 70.2077 123.552 70.1741 123.53C70.0984 123.482 69.7935 123.226 69.7145 123.199C69.5522 123.158 69.6903 123.305 69.4999 123.278C69.4324 123.275 68.8751 122.979 68.8121 122.993C68.4594 123.105 68.553 123.396 68.418 123.64C68.4134 123.649 68.4089 123.658 68.4045 123.667C68.0819 126.122 67.8615 128.557 67.6865 131C67.5071 132.69 67.8129 134.467 68.5677 136.104C68.928 136.897 69.2823 137.942 69.9593 138.707C70.1922 138.973 70.4577 139.2 70.7524 139.359C70.8859 139.431 71.1667 138.946 71.2169 138.928C71.972 138.638 71.174 139.429 71.3198 139.722C71.8961 140.878 73.1618 141.571 74.3128 141.696C74.8028 141.747 74.6494 140.559 74.9289 141.277C74.9508 141.326 74.6804 141.862 74.7938 141.957C75.0543 142.175 75.6506 142.189 75.8768 142.268C76.3174 142.428 76.3974 142.43 76.8324 142.473C77.0927 142.498 77.3734 142.568 77.6667 142.622C78.1419 142.691 78.6307 142.751 79.0912 142.676C79.266 142.646 79.0346 142.044 79.3133 141.942C79.5922 141.839 80.3301 141.89 80.5788 142.032C80.8276 142.174 80.7217 142.647 80.7657 142.756C81.128 143.671 81.9815 142.403 82.0913 142.372C84.0935 141.838 85.8105 142.56 87.69 142.558C89.1169 142.555 90.6425 142.316 92.0002 142.349C92.1124 142.352 92.2234 142.356 92.3333 142.362C94.4902 142.454 96.2212 143.275 97.968 144.331C98.168 144.456 98.3228 143.709 98.5791 143.872C99.1536 144.244 99.69 144.676 100.174 145.159C101.998 146.958 103.034 149.535 102.875 152.009C102.853 152.319 102.202 151.986 102.14 152.284C102.091 152.512 102.024 152.754 101.946 153C101.407 154.288 100.773 155.959 103.133 156.64C103.028 157.53 102.919 158.611 102.374 159.408C102.023 159.921 101.346 159.423 101.635 160.053C101.699 160.196 102.292 160.011 102.343 160.224C102.56 161.122 102.368 162.104 102.674 162.993C102.738 163.173 103.269 163.124 103.364 163.175C104.139 163.606 102.858 164.322 102.765 164.478C102.072 165.668 102.345 166.537 102.328 167.645C102.324 167.902 103.037 167.598 103.058 167.845C103.161 169.129 103.099 170.458 102.783 171.715C102.711 171.994 102.103 171.737 102.038 171.871C101.756 172.46 102.904 172.59 102.656 173.155C102.605 173.274 102.085 173.207 102.028 173.229C101.131 173.569 102.401 173.864 102.429 173.952C102.467 174.06 102.488 174.165 102.496 174.267C102.571 174.996 101.558 175.656 101.867 176.471C101.91 176.573 102.515 176.223 102.595 176.507C103.137 178.388 103.808 180.276 104.68 182.17C104.817 182.463 104.296 182.608 104.26 182.661C103.756 183.543 104.872 182.872 104.971 182.908C105.142 182.986 105.266 183.1 105.372 183.228C105.762 183.7 105.972 184.421 107.043 183.729C108.926 185.704 111.7 186.185 114.333 186.672C115 186.795 115.684 186.925 116.414 187.079C116.462 187.088 116.481 187.721 116.578 187.734C117.758 187.874 117.378 186.938 117.683 185.618C117.74 185.292 118.681 186.497 118.777 186.572C119.08 186.876 119.223 187.819 119.308 187.869C120.037 188.225 118.824 185.385 119.358 185.145C119.378 185.141 119.541 185.693 119.613 185.722C119.84 185.813 119.891 185.537 120.125 185.638C120.654 185.873 121.551 187.102 121.643 186.021C121.647 185.883 120.636 184.457 121.128 184.228C121.333 184.142 122.078 183.532 122.351 183.43C122.63 183.335 122.867 183.88 122.897 183.886C123.835 183.909 123.963 184.213 124.687 184.62C124.798 184.681 124.924 184.742 125.07 184.802C126.186 185.233 124.188 183.515 124.081 183.2C123.974 182.889 124.817 182.852 125.08 182.861C125.342 182.876 125.505 183.249 125.686 183.216C126.884 182.953 124.882 182.116 124.708 181.649C124.245 180.594 126.136 181.237 126.62 180.737C126.744 180.61 126.287 180.527 126.318 180.377C126.432 179.796 127.142 179.701 126.856 178.876C126.815 178.729 125.863 177.898 126.774 177.83C126.907 177.817 127.336 178.087 127.509 177.873C127.769 177.556 128.023 176.893 127.924 176.462C127.851 176.147 127.01 176.361 127.308 176.039C127.439 175.892 127.864 176.26 128.072 175.968C128.286 175.675 128.324 174.849 128.307 174.538C128.295 174.227 127.685 174.394 127.645 174.367C127.607 174.343 127.567 174.308 127.527 174.267C127.323 174.029 127.118 173.583 127.119 173.536C127.045 170.745 128.068 168.171 127.73 165.454C127.704 165.241 127.063 165.383 127.053 165.35C126.785 164.62 128.487 165.196 129.057 164.686C127.758 164.759 127.993 164.458 127.85 163.944C127.781 163.696 127.277 163.831 127.226 163.808C126.462 163.441 127.449 163.185 127.651 163.119C128.394 162.876 127.516 162.611 128.012 162.445C128.505 162.28 129.236 162.661 129.226 162.167C128.761 162.029 127.546 162.395 127.349 162.021C126.603 160.608 127.557 157.97 127.656 156.834C127.755 155.701 127.669 155.334 127.838 154.674C128.141 153.48 127.24 153.918 126.827 153.177C126.789 153.109 126.773 153.051 126.776 153C126.815 152.341 128.681 152.791 129.117 152.693C129.597 152.615 129.114 152.477 129.387 152.371C129.659 152.278 129.957 152.555 130.082 152.301C130.193 152.074 129.522 151.177 129.092 150.903C128.158 150.363 126.936 150.459 127.656 149.613C127.698 149.569 128.175 149.949 128.308 149.774C129.018 148.831 129.741 147.951 130.631 147.297C131.036 147 131.471 146.755 131.93 146.592C132.131 146.523 132.343 147.162 132.458 147.133C133.633 146.909 132.708 146.187 132.92 144.752C133.408 146.311 134.112 147.045 134.825 146.874C135.275 146.778 135.057 146.106 135.336 145.56C135.429 145.393 135.854 145.841 135.9 145.508C136.058 144.599 135.756 143.61 136.333 143.569C136.425 143.562 136.545 143.595 136.701 143.677C136.742 143.701 136.613 144.295 136.753 144.331C137.657 144.567 137.765 143.431 138.742 143.293C139.508 143.185 140.87 143.878 141.742 143.991C141.723 145.81 142.547 145.393 142.881 144.139C143.447 144.19 144.058 144.119 144.605 144.293C144.794 144.352 144.67 144.879 144.694 144.935C145.058 145.828 145.304 144.608 145.426 144.56C146.75 144.095 147.829 145.02 149.092 144.116C149.137 144.083 149.21 142.82 149.547 143.742C149.569 143.806 149.152 144.381 149.746 144.425C150.059 144.449 150.516 144.647 151 144.745C151.409 144.834 151.851 144.819 152.189 144.51C152.375 144.353 152.673 143.289 153.147 144.021C153.214 144.12 153.219 144.487 153.325 144.673C153.68 145.264 153.557 143.988 154.058 144.99C154.554 145.992 155.469 146.615 156.073 145.613C156.096 145.582 155.948 144.563 156.188 144.487C156.58 144.367 157.207 144.322 157.596 144.117C157.781 144.019 157.375 143.52 157.402 143.493C158.412 142.563 159.484 142.52 160.77 141.7C160.882 141.628 160.937 141.324 161.043 141.043C161.16 140.734 161.334 140.453 161.779 140.482C162.716 140.516 164.688 143.028 165.091 141.29C165.28 140.522 162.325 137.917 164.541 138.052C164.973 136.141 166.502 134.628 166.007 132.535C165.985 132.439 164.921 132.077 164.947 131.894C164.989 131.614 165.504 131.474 165.542 131.262C165.559 131.174 165.569 131.087 165.574 131C165.616 130.209 165.268 129.47 165.329 128.695C165.354 128.368 165.882 128.483 165.911 128.093C165.94 127.704 165.245 127.444 165.581 126.917C165.837 126.518 167.258 126.12 167.424 125.591C166.022 125.571 166.051 125.208 165.681 124.562C165.609 124.438 165.121 124.571 165.062 124.513C164.81 124.274 165.215 124.053 164.941 123.826C164.875 123.771 164.396 123.768 164.316 123.723C164.282 123.705 164.253 123.686 164.227 123.667C163.717 123.384 164.649 122.86 164.806 122.718C165.45 122.225 164.795 122.156 164.99 121.808C165.173 121.433 165.645 121.793 165.698 121.376C165.801 120.484 165.22 119.507 164.716 118.828C164.511 118.554 164.153 119.135 164.111 119.105C163.872 118.92 163.751 118.635 163.566 118.434C163.348 118.195 163.041 118.083 162.469 118.514C164.123 115.641 161.987 118.51 161.647 117.561C161.62 117.487 162.236 116.048 162.643 116.012C163.059 115.983 163.214 116.657 163.79 116.657C163.912 116.637 165.391 115.985 165.542 116.014C165.699 116.021 165.8 116.07 165.856 116.144C166.185 116.587 164.951 117.781 164.89 117.872C164.101 119.047 165.74 118.642 165.968 118.805C166.913 119.37 166.958 120.301 167.528 120.987C167.893 121.445 169.394 121.184 169.445 121.704C169.514 122.558 168.975 123.164 168.657 123.667C168.33 124.034 168.251 124.393 169.18 124.917C169.573 125.141 171.238 124.919 169.929 125.719C169.846 125.769 168.648 126.363 169.406 126.707C169.501 126.75 169.987 126.749 170.028 126.805C170.291 127.186 169.905 127.441 170.09 127.856C170.275 128.271 170.551 128.77 170.386 129.244C170.288 129.529 169.384 129.896 169.162 130.033C168.584 130.382 169.389 130.755 168.97 131C168.927 131.031 168.87 131.06 168.798 131.087C168.018 131.357 166.85 130.838 166.334 131.496C167.593 131.56 168.884 131.668 170.149 131.769C170.03 133.591 169.308 135.256 168.801 136.948C168.738 137.16 169.454 137.161 169.399 137.401C169.153 138.424 168.354 139.054 168.031 140.074C167.784 140.864 167.907 142.033 167.518 142.883C166.034 142.488 165.65 143.757 164.893 144.343C164.705 144.49 164.516 144.378 164.333 144.333C164.264 144.316 164.195 144.308 164.127 144.327C163.201 144.574 164.356 145.228 164.316 145.541C164.082 146.896 162.158 144.748 161.333 145.443C161.301 145.474 161.546 147.169 161.491 147.314C161.238 148.211 161.109 146.924 160.692 147.046C159.926 147.261 159.322 147.173 158.711 147.951C158.544 148.176 158.305 149.321 157.555 148.804C157.458 148.736 157.318 148.246 157.259 148.236C156.213 148.077 156.677 149.593 156.246 150.279C155.803 150.966 154.658 150.075 154.442 149.787C153.847 149.059 154.721 149.379 154.73 149.291C154.811 148.293 154.258 148.582 153.798 148.57C153.483 147.037 152.932 147.206 153.323 148.561C153.369 148.709 153.697 148.515 153.798 148.57C153.66 150.151 152.83 150.458 151.964 149.063C151.59 148.441 151.844 147.705 151 147.881C150.958 147.891 150.913 147.903 150.865 147.918C150.457 148.048 150.615 149.126 150.254 149.421C149.43 150.092 148.36 149.085 147.51 149.244C147.202 149.301 147.502 149.892 147.292 149.952C146.733 150.112 146.24 149.669 145.678 149.896C145.627 149.917 145.751 150.535 145.577 150.543C144.253 150.615 143.101 150.219 141.719 150.208C141.051 150.203 139.857 150.544 139.165 150.475C138.274 150.39 137.231 149.871 136.333 149.7C136.194 149.641 136.054 149.633 135.942 149.703C135.661 149.883 135.845 150.486 135.849 150.914C135.939 151.723 135.215 150.444 135.009 150.293C135 150.287 135.169 150.052 134.916 149.817C134.559 149.252 135.006 150.291 135.009 150.293C134.917 150.164 134.4 150.31 134.397 150.475C134.394 150.559 134.778 151.002 134.774 151.034C134.759 151.169 134.747 151.291 134.736 151.402C134.689 151.903 134.618 152.15 134.299 152.44C134.285 152.445 133.657 152.257 133.632 152.276C133.31 152.515 133.844 152.845 134.309 153C134.384 153.098 134.457 153.199 134.523 153.302C134.998 154.045 134.839 154.635 133.714 155.075C133.856 155.636 133.359 156.441 133.057 156.904C132.755 157.367 134.031 157.432 134.056 157.472C134.863 158.743 134.133 159.478 134.019 160.796C133.963 161.423 134.148 162.667 134.287 163.345C134.4 163.882 134.101 164.205 134.292 164.699C134.318 164.766 134.885 164.699 134.907 164.719C135.587 165.271 134.198 165.006 133.95 165.119C133.049 165.532 132.569 165.787 132.993 166.494C133.09 166.657 135.089 167.131 135.206 167.428C135.354 167.815 134.638 167.669 134.811 168.073C134.825 168.108 135.267 168.101 135.248 168.35C135.163 169.508 134.906 170.771 134.95 171.975C134.955 172.14 135.656 171.929 135.674 172.166C135.724 172.845 135.734 173.563 135.66 174.267C135.613 174.924 135.5 175.567 135.317 176.164C135.198 176.538 134.732 176.249 134.579 176.317C133.658 176.702 134.823 177.551 134.824 177.686C134.916 180.638 133.074 182.319 132.127 185.002C132.095 185.135 132.552 186.962 131.258 186.715C131.167 186.707 129.907 186.385 130.26 187.253C130.28 187.31 130.977 187.441 130.553 187.855C130.213 188.183 129.927 188.894 129.262 189.195C129.104 189.266 128.925 189.314 128.724 189.324C128.381 189.354 127.181 188.836 127.236 190.029C127.274 190.094 127.623 192.569 126.392 191.592C126.191 191.428 125.366 190.092 125.093 191.234C125.035 191.456 125.486 191.592 125.22 192.016C124.797 192.675 123.802 192.739 123.314 193.738C123.24 193.912 123.039 195.177 122.235 194.613C122.112 194.523 122.065 193.976 121.79 194.017C120.5 194.204 119.288 194.902 117.938 194.768C117.467 194.717 117.555 193.839 117.077 193.678C116.597 193.52 115.708 193.383 115.261 193.79C114.802 194.199 115.391 195.544 114.629 195.671C114.531 195.686 114.432 195.7 114.333 195.711C111.037 196.099 107.918 194.597 105.167 193.121C104.741 192.889 104.884 193.511 104.232 193.181C102.731 192.427 100.561 191.145 99.1057 189.494C98.2369 188.529 97.6192 187.478 97.4335 186.565C97.0885 184.624 98.8631 186.081 98.4057 184.815C98.2097 184.233 96.5061 184.442 96.3783 184.314C95.1703 183.168 95.3779 181.857 94.7404 180.613C94.6091 180.349 94.0852 180.818 93.9794 180.584C93.6115 179.777 93.6738 178.814 93.4776 178.011C93.3891 177.649 92.917 177.796 92.9012 177.443C92.8633 176.602 93.0019 175.836 93.4309 175.029C93.4704 174.959 94.0958 175.406 94.0985 174.825C94.1003 174.646 94.1193 174.459 94.147 174.267C94.2649 173.672 94.4897 172.999 94.111 172.366C93.9703 172.134 92.8508 172.124 93.6239 171.626C93.7854 171.521 95.1297 171.655 93.9682 171.074C93.7752 170.976 92.2085 170 93.2184 169.521C93.4841 169.394 94.5842 169.072 94.4113 168.793C94.3837 168.755 93.7824 168.907 93.7237 168.675C93.5275 167.86 93.5916 167.006 93.4033 166.169C93.3518 165.946 92.7296 166.279 92.6727 165.945C92.5154 165.029 92.6739 163.885 92.8686 162.989C92.9416 162.659 93.4571 162.887 93.5132 162.863C94.4255 162.477 93.194 162.248 93.1222 162.12C92.6923 161.322 93.2707 160.714 93.1177 159.979C93.077 159.776 92.4898 159.92 92.4374 159.879C91.9258 159.46 92.9804 159.773 93.0966 159.507C93.4257 158.764 93.3785 157.936 93.3035 157.185C93.2751 156.909 92.5942 157.219 92.5766 156.971C92.4715 155.658 92.5128 154.298 92.7925 153C92.825 152.99 92.8604 152.979 92.8987 152.965C92.9689 152.939 93.4924 152.91 93.6113 152.894C94.4383 152.723 93.2833 152.76 93.179 152.802C92.6834 152.868 93.1242 152.729 93.0186 152.699C92.8507 152.677 92.7657 152.666 92.7095 152.624C92.6094 152.552 92.5562 152.324 92.3718 152.186C92.3594 152.177 92.3466 152.167 92.3333 152.158C89.3486 151.906 86.9753 151.447 84.083 151.572C83.8921 151.58 84.0846 152.277 83.9201 152.293C81.826 152.458 79.7639 152.196 77.6667 152.381C77.6231 152.384 77.5795 152.387 77.5359 152.389C77.2793 152.402 77.6473 153.068 77.2253 153.108C76.3573 153.196 75.2467 153.066 74.4176 152.725C74.0159 152.56 74.6567 152.086 74.2604 151.931C73.3459 151.568 72.3768 151.292 71.41 151.102C70.9953 151.019 71.4017 151.859 70.8678 151.695C67.6261 150.702 64.5387 148.908 62.5772 146.089C62.3432 145.753 62.1271 145.404 61.9304 145.043C61.8012 144.806 62.6995 143.75 62.1767 143.525C61.8556 143.735 61.5073 144.017 61.1785 144.259C57.9945 140.624 56.6468 135.697 56.8003 131C56.8174 130.577 56.8308 130.153 56.8392 129.729C56.8421 129.57 56.1139 129.844 56.1159 129.537C56.1267 127.764 55.9249 126.041 56.6487 124.227C56.7168 124.054 57.9044 124.132 57.8228 123.667C57.8195 123.635 57.8144 123.602 57.8073 123.567C57.7551 123.41 57.6789 122.032 57.4843 121.622C57.4519 121.563 56.815 121.738 56.8785 121.262C57.2513 118.55 58.8038 115.892 60.9429 114.276C60.9891 114.241 61.0355 114.206 61.0822 114.171C61.436 113.915 61.5459 114.69 61.7948 114.521C63.4873 113.368 65.3374 111.858 67.3957 111.95C68.7247 112.05 68.4751 113.244 69.1738 114.231C69.2675 114.368 69.8887 114.343 69.941 114.977C70.0618 116.558 69.9612 118.301 70.1298 119.984C70.162 120.344 70.4438 119.949 70.2865 120.831C70.2733 120.888 70.1133 121.189 70.1154 121.49C70.1165 121.697 70.2095 122.332 70.2115 122.598C70.2251 122.861 70.1165 122.334 70.1297 122.647C70.159 122.962 70.3271 123.673 70.3596 123.753ZM131.708 158.989C131.096 159.418 133.339 159.481 132.802 159.017C132.774 158.995 131.738 158.967 131.708 158.989ZM167.584 134.832C166.48 135.212 167.749 136.026 168.616 135.771C169.487 135.475 167.922 134.696 167.584 134.832ZM167.298 128.518C166.518 129.173 169.699 129.276 169.056 128.574C169.02 128.533 167.344 128.479 167.298 128.518ZM66.887 115.139C66.9047 115.161 67.3195 115.037 67.3203 115.008C67.319 114.248 66.4221 114.521 66.887 115.139ZM166.448 122.646C166.056 122.912 166.581 123.522 167.102 123.214C167.526 122.933 166.94 122.274 166.448 122.646ZM127.597 181.231C127.565 181.222 127.419 181.43 127.586 181.516C128.129 181.794 128.151 181.386 127.597 181.231ZM159.216 115.573C160.948 115.954 160.573 118.726 159.525 118.102C159.299 117.994 160.219 117.406 159.976 117.103C159.417 116.53 158.866 118.123 158.344 117.235C158.197 117.065 159.083 115.534 159.22 115.569C159.219 115.57 159.218 115.572 159.216 115.573ZM129.014 159.236C128.984 159.245 128.956 159.589 128.986 159.597C129.698 159.783 129.755 159.09 129.014 159.236ZM115.666 187.795C115.642 187.739 114.905 187.731 114.884 187.785C114.514 188.977 116.141 188.991 115.666 187.795ZM141.755 144.039C142.131 143.323 142.58 143.238 142.88 144.138C142.506 144.09 142.131 144.083 141.755 144.039Z" fill="#6EC9F2"/>
</svg>
