<?xml version="1.0" encoding="UTF-8"?><svg id="Layer_1" xmlns="http://www.w3.org/2000/svg" viewBox="0 0 730.93 1245"><defs><style>.cls-1{fill:#fff;}.cls-2{fill:#131210;}.cls-3{fill:#2b2626;}.cls-4{fill:#6ec9f2;}</style></defs><polygon class="cls-1" points="730.3 728.74 1.57 728.74 1.57 0 730.29 0 730.3 728.74"/><path class="cls-2" d="M325.54,36.65V108.85s32.47,83.38,23.54,101.21c0,0,83.91,62.43,92.47,96.62,0,0,30.83,114.93,25.37,155.56-5.44,40.62-1.24,61.42-25.37,84.47-24.13,23.04-95.43,60.2-94.68,102.56,.44,23.67,11.26,54.78,25.68,79.02h357.74V36.65H325.54Z"/><path class="cls-3" d="M208.6,72.9s-1.08,13.78,5.35,15.75c6.43,1.98,36.14,12.37,56.92,8.92,20.8-3.47,54.66,12.24,54.66,12.24V37.65h-117.03l.09,35.24Z"/><path class="cls-1" d="M383.25,231.7s32.32-10.76,40.85,0c8.53,10.78,14.85,30.09,17.46,51.61-8.92-16.71-48.27-49.76-58.31-51.61Z"/><path class="cls-1" d="M646.13,592.1s12.89-78.19-40.59-129.71c-53.46-51.47-58.42,0-58.42,0,0,0-20.79,92.09,99.01,129.71Z"/><path class="cls-4" d="M1.57,.03V728.74H81.55c-1.9-4.99-3.4-10.31-4.23-15.84-4.46-29.68,1.48-71.28,14.11-95.03,12.63-23.77,31.93-49.02,36.38-66.84,4.47-17.82,22.28-65.35,10.41-96.52-11.89-31.22-26.74-52-41.59-62.38-14.84-10.41-37.12-35.65-37.12-63.86s13.35-51.99,20.79-57.92c7.42-5.95,40.1-5.95,56.93,0,16.83,5.93,111.88,58.41,125.73,73.26,13.87,14.85,11.89-4.96,11.89-4.96,0,0-13.87-17.82-12.87-26.72,.97-8.91,8.89-41.58,3.94-59.4-4.95-17.84-6.93-60.4-23.76-75.25-16.81-14.85-38.61-39.61-39.6-50.49-.98-10.91-6.92,3.95-9.89,13.86-2.97,9.9-18.22,30.68-25.45,51.48-7.23,20.79-10.45,75.97-8.2,79.33,2.22,3.35-18.96-10.02-18.96-10.02,0,0-5.8-59.41-1.84-82.69,3.96-23.26,35.15-69.79,46.54-83.16,11.38-13.35,44.56-42.06,56.91-42.56,12.38-.51,48.03,9.91,51.49,14.84,3.46,4.97,23.77,27.72,37.63,50.01,13.86,22.26,35.64,84.15,39.11,89.58,3.46,5.46,38.11-5.44,43.57-6.92,5.44-1.49,10.4-5.94,17.82-3.96,7.42,1.97,38.62,17.33,38.62,17.33,0,0,5.92,3.96,7.91,15.35,1.97,11.39,2.47,36.14,4.96,43.55,2.47,7.43,17.08,29.48,28.22,42.08,11.13,12.63,34.88,67.58,42.31,75.01,7.44,7.42,12.64,20.79,29.71,26.72,17.08,5.95,63.86,34.91,76.49,82.43,12.62,47.52,25.24,89.86,21.54,110.64-3.7,20.8-10.39,25.99-15.6,24.5-5.19-1.48-55.69-13.35-64.6-22.26-8.91-8.92-36.4,0-30.44,5.94,5.94,5.93,30.44,66.82,41.57,80.94,4.48,5.64,11.44,17.64,18.19,29.94h100.14V37.65s-.01-37.62-.01-37.62H1.57Z"/><path class="cls-1" d="M174.35,281.02s12.39,6.01,17.14,10.09c4.77,4.08,3.31-28.64,3.31-28.64l-20.46,18.55Z"/><path class="cls-1" d="M86.48,262.47s13.41-3.04,16.64-.27c3.25,2.77,2.31-18.01,2.31-18.01l-18.95,18.28Z"/><g><path class="cls-2" d="M62.33,1185.53c-8.65-4.59-16.47-6.72-24.71-6.72-17.28,0-30.3,13.12-30.3,30.71s12.92,30.5,31.01,30.5c7.84,0,15.24-2.15,24.7-7.1v5.56c-8.04,4.27-16.57,6.51-24.59,6.51-21.15,0-36.91-15.15-36.91-35.47s17.4-35.7,36.4-35.7c7.72,0,15.96,1.93,24.41,5.79v5.92Z"/><path class="cls-2" d="M135.95,1174.76c16.99,0,22.99,8.62,22.99,17.88,0,8.02-4.36,13.63-13.23,16.88,3.27,1.72,6,5.68,9.27,10.57l15.65,23.98h-6.29l-12.11-19.01c-8.33-13.12-10.97-14.24-19.32-14.24h-9.34v33.25h-5.38v-69.32h17.77Zm-12.39,31.62h11.49c12.19,0,18.09-5.31,18.09-13.63,0-7.84-5.58-13.53-18.28-13.53h-11.29v27.16Z"/><path class="cls-2" d="M259.1,1179.22h-32.42v27.77h31.61v4.45h-31.61v28.16h33.23v4.47h-38.63v-69.32h37.82v4.46Z"/><path class="cls-2" d="M375.11,1244.08h-5.59l-10.98-23.98h-33.86l-10.98,23.98h-5.59l32.02-69.85h2.96l32.01,69.85Zm-33.55-61.09l-14.84,32.64h29.78l-14.94-32.64Z"/><path class="cls-2" d="M467.97,1179.22h-26.04v64.85h-5.37v-64.85h-26.02v-4.46h57.43v4.46Z"/><path class="cls-2" d="M526.45,1244.08h-5.39v-69.32h5.39v69.32Z"/><path class="cls-2" d="M610.02,1244.79h-1.53l-29.16-70.03h5.39l24.59,58.63,24.41-58.63h5.38l-29.08,70.03Z"/><path class="cls-2" d="M730.12,1179.22h-32.42v27.77h31.6v4.45h-31.6v28.16h33.23v4.47h-38.63v-69.32h37.82v4.46Z"/></g><path class="cls-2" d="M163.27,729.28c-19.18-34.04-33.34-89.4,9.12-158.95-62.16,54.8-59.24,119.18-48.75,158.95h39.64Z"/><path class="cls-2" d="M310.74,729.28c-29.03-47.01-62.57-131.6-3.22-216.88-84.41,74.46-60.17,166.36-36.49,216.88h39.71Z"/><g><path class="cls-4" d="M167.88,1044.07h-42.51v36.36h41.44v5.88h-41.44v36.9h43.57v5.87h-50.63v-90.86h49.56v5.85Z"/><path class="cls-4" d="M323.93,1129.09h-5.87l-69.02-79.39v79.39h-7.05v-90.86h5.99l68.88,79.4v-79.4h7.06v90.86Z"/><path class="cls-4" d="M446.27,1050.47c-9.3-5.31-14.13-6.93-20.38-6.93-10.93,0-19.19,7.48-19.19,17.34,0,24.23,43.3,12.63,43.3,44.49,0,13.99-11.59,24.93-26.36,24.93-7.49,0-15.34-2.67-23.34-8v-8.28c10.13,7.35,15.85,9.73,22.92,9.73,10.81,0,19.18-7.85,19.18-18.11,0-25.84-43.29-14.52-43.29-44.49,0-13.47,11.72-24.13,26.11-24.13,7.07,0,14.01,1.87,21.06,5.73v7.72Z"/><path class="cls-4" d="M574.35,1044.07h-42.5v36.36h41.42v5.88h-41.42v36.9h43.57v5.87h-50.65v-90.86h49.58v5.85Z"/><path class="cls-4" d="M730.38,1129.09h-5.85l-69.02-79.39v79.39h-7.08v-90.86h6l68.88,79.4v-79.4h7.06v90.86Z"/></g><g><path class="cls-4" d="M60.22,1063.82c0,23.42-3.35,40.83-13.71,51.18-13.72,13.72-23.42,16.72-44.83,14.72l-1.68-16.72c26.44,6.01,42.48-9.7,42.48-44.49v-299.14h17.74v294.45Z"/><path class="cls-4" d="M222.12,1000.54c-67.57,0-120.43-51.54-120.43-117.09s52.86-117.1,120.43-117.1,121.11,51.54,121.11,117.1-53.19,117.09-121.11,117.09Zm.69-217.78c-57.23,0-102.05,43.81-102.05,100.68s44.82,100.69,102.05,100.69,101.36-43.81,101.36-100.69-44.17-100.68-101.36-100.68Z"/><path class="cls-4" d="M493.77,800.15c-23.43-13.38-35.48-17.39-51.2-17.39-27.43,0-48.17,18.73-48.17,43.48,0,60.89,108.7,31.79,108.7,111.73,0,35.14-29.09,62.57-66.25,62.57-18.7,0-38.44-6.69-58.52-20.08v-20.74c25.42,18.42,39.82,24.41,57.54,24.41,27.1,0,48.18-19.74,48.18-45.48,0-64.91-108.72-36.46-108.72-111.75,0-33.79,29.43-60.56,65.56-60.56,17.73,0,35.12,4.72,52.87,14.4v19.41Z"/><path class="cls-4" d="M730.93,997.52h-17.73v-108.07h-152.22v108.07h-17.73v-228.16s17.72,0,17.72,0v105.38h152.22v-105.38h17.73v228.16Z"/></g></svg>