<svg width="220" height="230" viewBox="0 0 220 230" fill="none" xmlns="http://www.w3.org/2000/svg">
<path d="M169.361 229.742C167.514 229.976 165.093 229.726 163.253 229.381C162.676 229.275 162.968 228.798 162.57 228.703C161.792 228.517 161.067 228.751 160.297 228.53C160.042 228.454 160.36 227.699 160.092 227.637C158.627 227.303 157.241 227.495 155.757 227.335C148.447 226.542 141.262 226.258 133.862 225.914C131.422 225.801 128.457 225.115 125.936 225.415C125.642 225.451 125.818 226.114 125.762 226.169C124.884 227.006 125.176 225.667 124.603 225.489C122.328 224.787 119.798 224.725 117.608 224.981C116.677 225.092 117.611 226.41 116.673 225.67C116.608 225.62 116.844 224.916 116.589 224.841C116.01 224.672 114.91 224.798 114.462 224.742C113.596 224.631 113.453 224.638 112.635 224.63C111.516 224.613 110.185 224.263 108.985 224.422C108.729 224.458 109.068 225.18 108.659 225.303C108.25 225.426 107.168 225.365 106.804 225.195C106.439 225.024 106.594 224.457 106.53 224.327C105.998 223.229 104.747 224.749 104.586 224.787C101.65 225.428 99.1319 224.562 96.3759 224.564C94.2837 224.568 92.0465 224.854 90.0557 224.814C87.6839 224.765 85.6737 224.374 83.3696 224.441C83.1265 224.447 83.4114 225.296 83.1144 225.306C79.959 225.404 76.8255 225.312 73.6837 224.739C73.3686 224.68 73.7747 223.935 73.4599 223.832C71.5326 223.22 68.4831 221.748 67.3384 224.994C66.0328 224.867 64.4479 224.736 63.2799 224.082C62.5269 223.661 63.2583 222.849 62.3332 223.195C62.1246 223.272 62.3959 223.983 62.083 224.045C60.7657 224.306 59.3265 224.075 58.0234 224.442C57.7583 224.518 57.8307 225.156 57.7556 225.27C57.1244 226.2 56.0736 224.664 55.8445 224.552C54.1002 223.72 52.8264 224.047 51.2015 224.027C50.8244 224.022 51.2702 224.878 50.9073 224.903C49.0254 225.026 47.076 224.953 45.2333 224.573C44.8234 224.486 45.2004 223.757 45.0045 223.678C44.1408 223.341 43.9494 224.718 43.1211 224.42C42.9465 224.359 43.0449 223.735 43.013 223.666C42.5145 222.59 42.0814 224.115 41.9531 224.149C40.3312 224.609 39.2944 223.017 37.7275 223.242C37.5401 223.271 37.9627 224.061 37.4358 224.093C33.9254 224.311 30.2126 224.094 26.7378 223.462C26.1976 223.365 26.5832 222.772 26.5493 222.699C25.9951 221.556 25.6366 223.087 25.4605 223.145C25.0759 223.259 24.6984 223.244 24.3334 223.201C23.2603 223.086 22.3777 222.711 21.4484 223.928C16.1756 222.818 10.8288 220.786 7.44737 216.553C6.63075 215.526 5.95758 214.391 5.48372 213.175C5.45233 213.098 6.14823 212.775 6.08527 212.628C5.37752 210.834 4.62891 211.802 2.70337 211.309C2.2078 211.161 3.30635 209.468 3.39783 209.351C3.69163 208.871 4.84645 208.698 4.88579 208.566C5.21271 207.546 1.83981 209.132 1.38929 207.932C1.3821 207.894 2.07926 207.814 2.10811 207.694C2.2017 207.326 1.84417 207.116 1.97452 206.749C2.28237 205.896 3.95868 205.237 2.71156 204.504C2.55391 204.403 0.528461 205.077 0.416352 203.95C0.357888 203.509 0.086087 201.554 0.214284 200.996C0.323156 200.443 1.01931 200.789 1.04644 200.747C1.47934 199.99 1.81137 199.793 2.19787 199.667C2.55952 199.556 2.9774 199.508 3.6175 199.195C4.94014 198.547 1.78552 198.727 1.43342 198.462C1.08232 198.198 1.82221 197.249 2.07942 197.015C2.33674 196.782 2.76767 197.073 2.91328 196.866C3.86465 195.491 1.34744 196.262 0.846757 195.81C-0.338778 194.742 2.00069 193.91 2.22993 192.933C2.29184 192.669 1.75901 192.884 1.70918 192.649C1.51888 191.716 2.24886 191.155 1.57954 190.094C1.47047 189.921 0.0639191 189.063 1.09615 188.507C1.24499 188.429 1.82798 188.652 1.95857 188.255C2.15455 187.661 2.28198 186.591 2.08711 185.953C1.94293 185.481 0.982299 186.022 1.28072 185.428C1.41396 185.165 1.97594 185.653 2.17939 185.158C2.38279 184.666 2.3581 183.406 2.3387 182.927C2.31886 182.448 1.59018 182.71 1.54109 182.671C1.25988 182.437 0.908511 181.519 0.909378 181.438C0.820425 177.345 2.0487 173.571 1.64216 169.586C1.61132 169.273 0.842905 169.481 0.830277 169.434C0.50833 168.363 2.55135 169.207 3.23518 168.459C1.67585 168.567 1.9582 168.126 1.78718 167.372C1.70351 167.008 1.09973 167.206 1.03792 167.173C0.120845 166.634 1.30537 166.259 1.54768 166.162C2.43905 165.805 1.38584 165.417 1.98164 165.174C2.57299 164.931 3.44965 165.49 3.43842 164.767C2.88024 164.564 1.42155 165.101 1.18513 164.552C0.290898 162.48 1.43539 158.612 1.55427 156.947C1.67306 155.284 1.57007 154.747 1.7718 153.778C2.13655 152.028 1.0543 152.67 0.558916 151.583C0.0635951 150.493 2.72646 151.023 3.2989 150.867C3.87108 150.713 3.28208 150.545 3.59663 150.354C3.9111 150.163 4.30032 150.576 4.4184 150.127C4.53637 149.679 3.51842 148.452 2.91987 148.293C1.65179 147.957 0.320893 148.509 0.788529 147.322C0.816281 147.254 1.51647 147.476 1.58723 147.214C2.12627 145.138 2.15968 142.981 2.63642 140.907C2.70307 140.621 3.48201 140.876 3.52961 140.71C4.02783 138.982 2.71445 139.6 1.25545 138.652C3.19707 138.865 4.38496 138.341 4.39643 137.029C4.404 136.241 3.556 136.376 2.95832 135.866C2.77815 135.713 3.36042 135.155 2.96162 135.054C1.65798 134.721 0.198648 135.246 0.77974 133.894C0.807356 133.834 1.52095 134.023 1.56416 133.818C1.84703 132.493 0.483449 132.334 0.318316 130.901C0.188743 129.778 1.02024 127.781 1.15547 126.502C3.33842 126.529 2.83855 125.321 1.33345 124.831C1.39507 124.001 1.30998 123.105 1.51802 122.303C1.58894 122.027 2.22097 122.208 2.28926 122.173C3.36052 121.64 1.89623 121.279 1.83882 121.1C1.28078 119.158 2.3906 117.577 1.30598 115.724C1.26692 115.658 -0.249423 115.551 0.857743 115.056C0.934061 115.024 1.62397 115.636 1.67732 114.764C1.73079 113.893 2.54366 112.249 1.84102 111.039C1.67186 110.746 0.440897 110.006 1.40266 109.411C1.53326 109.332 1.96815 109.419 2.21016 109.304C2.98127 108.935 1.44862 108.733 2.75068 108.298C4.05268 107.864 5.02779 106.96 4.12946 105.74C4.10334 105.701 2.88858 105.412 2.90779 105.028C2.93949 104.416 3.19255 103.546 3.18464 102.906C3.18041 102.6 2.4261 102.796 2.4123 102.743C1.98961 100.683 2.66208 99.2172 2.95393 97.0108C3.00892 96.6063 1.9803 95.444 2.79353 94.661C3.68376 93.8012 7.38696 94.6847 6.5047 92.7085C6.15181 91.9114 1.45362 90.9022 3.88776 89.4698C3.2846 86.6916 4.53038 84.1225 3.66914 81.3366C3.63098 81.2113 2.31975 80.8152 2.3376 80.5206C2.36663 80.0834 2.97947 79.8434 3.01985 79.5312C3.20444 78.2229 2.68011 77.0258 2.76167 75.7644C2.7913 75.2856 3.42498 75.453 3.4604 74.8818C3.49522 74.311 2.66079 73.9304 3.06379 73.1569C3.37097 72.5727 5.07653 71.9886 5.27533 71.2132C3.59299 71.1836 3.62764 70.651 3.18354 69.7045C3.09738 69.5225 2.51183 69.7176 2.44087 69.6316C2.13908 69.2813 2.62437 68.9571 2.29585 68.6245C2.21695 68.5436 1.64242 68.5398 1.54548 68.4736C0.699381 67.9112 1.99173 66.9845 2.21675 66.8254C3.07131 66.2154 2.32407 65.9303 2.66059 65.4625C2.99707 64.9954 3.4177 65.6938 3.62189 65.1482C4.04424 64.0172 3.95145 62.564 3.97785 61.4154C3.98484 60.9571 3.21793 61.2698 3.20112 61.2042C3.00661 60.2565 3.82238 59.2981 2.29475 58.7726C6.24464 58.1156 1.91163 58.2012 2.70234 56.8465C2.76629 56.7398 4.63417 56.6041 4.90839 57.0137C5.18235 57.4234 4.59848 58.0446 5.02594 58.613C5.12626 58.7476 6.87658 59.5186 6.9826 59.6238C7.81123 60.4478 5.01995 60.5646 4.86664 60.6082C3.21216 61.1026 5.09779 62.0448 5.22809 62.293C5.82511 63.4281 5.43256 64.3924 5.8587 65.3418C6.13412 65.9627 7.96252 66.0235 7.90655 66.511C7.72157 68.1318 5.17095 68.6976 7.3825 70.225C7.85418 70.5525 9.85256 70.227 8.28118 71.4005C8.18212 71.4742 6.74459 72.3455 7.65386 72.8489C7.76851 72.9121 8.35091 72.9101 8.39983 72.9935C8.7163 73.5522 8.25232 73.9249 8.47454 74.5336C8.69676 75.1422 9.02803 75.8741 8.8305 76.5691C8.71238 76.9879 7.62728 77.5253 7.36163 77.7258C6.59634 78.2919 7.85109 78.8988 6.92437 79.2496C5.99299 79.6032 4.57854 78.9118 3.97675 79.8392C5.48987 79.8735 7.04293 79.9524 8.56463 80.0077C8.51135 82.0401 8.02207 84.0398 8.08892 86.079C8.09872 86.3318 8.91218 86.0732 8.94365 86.3442C9.07288 87.4877 8.493 88.4864 8.72393 89.6722C8.90579 90.5901 9.76707 91.5965 9.98406 92.5563C8.25263 93.1426 8.84041 94.5668 8.68218 95.6014C8.62751 95.9638 8.16508 95.9396 8.01421 96.1973C7.45626 97.1697 8.98631 96.714 9.2271 96.9806C10.2548 98.1243 6.79156 98.2222 6.87713 99.5706C6.88049 99.642 8.72652 100.515 8.84148 100.635C9.5911 101.4 8.19895 100.762 8.06255 101.24C7.8133 102.113 7.37244 102.72 7.91314 103.745C8.07329 104.043 9.22391 104.76 8.33392 105.34C8.21738 105.416 7.6072 105.374 7.57147 105.436C6.97581 106.548 8.89308 106.577 9.54241 107.212C10.1916 107.848 8.86808 108.829 8.48662 109.029C7.49983 109.551 8.0649 108.628 7.96807 108.6C6.81565 108.268 7.01406 108.984 6.91668 109.531C5.03678 109.61 5.14962 110.375 6.8233 110.098C7.00611 110.066 6.8308 109.64 6.91668 109.531C8.76112 110.011 8.99734 110.851 7.27374 111.78C6.46591 112.214 5.52402 111.803 5.86859 113.124C6.02414 113.723 7.31854 113.491 7.67144 114.02C8.47662 115.228 7.26916 116.798 7.45941 118.043C7.52848 118.495 8.23703 118.055 8.30865 118.364C8.50093 119.184 7.96929 119.907 8.24163 120.73C8.2672 120.805 9.00891 120.622 9.01836 120.879C9.1045 122.819 8.62943 124.51 8.61626 126.536C8.61024 127.515 9.01931 129.266 8.93706 130.28C8.7989 132.038 7.72034 134.201 7.98235 135.703C8.15007 136.682 8.89193 136.467 9.39739 136.887C10.3772 137.697 8.62215 139.131 8.35039 139.324C8.3414 139.33 8.16651 138.487 7.7857 138.936C6.99221 139.198 8.34695 139.314 8.35039 139.324C8.17484 139.45 8.00643 141.134 8.14825 141.469C8.22575 141.65 8.92862 141.549 8.95574 141.643C9.58474 143.895 9.76338 146.15 9.43474 148.434C9.42054 148.474 8.63434 148.413 8.61077 148.508C8.2612 149.83 9.22298 150.676 9.79399 151.767C10.3648 152.857 10.1736 153.721 8.8239 154.367C8.99384 155.189 8.39715 156.369 8.03509 157.048C7.67304 157.728 9.20344 157.822 9.23369 157.882C10.2021 159.746 9.32608 160.823 9.18975 162.756C9.12231 163.676 9.34429 165.499 9.51165 166.494C9.64646 167.281 9.28781 167.755 9.51714 168.479C9.54777 168.577 10.2292 168.478 10.2554 168.508C11.0707 169.317 9.40486 168.928 9.10735 169.095C8.02544 169.701 7.44922 170.075 7.95818 171.111C8.07474 171.35 10.4733 172.046 10.6136 172.481C10.7915 173.048 9.93181 172.834 10.1401 173.427C10.1571 173.477 10.6875 173.467 10.6641 173.833C10.5625 175.531 10.2539 177.383 10.3071 179.148C10.3123 179.39 11.1536 179.08 11.175 179.429C11.2747 181.064 11.2436 182.855 10.8498 184.448C10.7502 184.84 10.1612 184.594 9.98625 184.679C8.92799 185.202 10.4656 185.942 10.4949 186.065C11.2338 188.98 9.84229 191.212 10.5048 194.184C10.5437 194.346 12.1921 195.591 10.7784 196.147C10.6843 196.185 9.23794 196.734 10.2269 197.22C10.2887 197.25 11.0333 196.908 10.9574 197.506C10.8884 198.051 11.2957 198.899 10.7478 199.667C10.6949 199.714 10.6332 199.762 10.5616 199.81C10.305 199.962 8.87198 200.483 10.0663 200.931C10.1497 201.002 12.8087 201.381 11.0851 201.908C10.8028 201.995 8.91552 202.287 10.0019 202.739C10.212 202.816 10.5797 202.52 10.9046 202.76C11.4005 203.106 11.0856 203.854 12.0718 204.091C12.2494 204.144 13.5752 204.011 12.7957 204.668C12.6752 204.775 12.0543 204.938 12.0601 205.127C12.096 206.044 12.8939 206.603 13.0207 207.549C13.0729 207.89 12.1438 208.354 12.1329 208.802C12.1184 209.248 12.3941 209.998 12.9966 209.959C13.5882 209.909 14.5294 208.527 14.9559 208.784C15.0106 208.817 15.0645 208.849 15.1177 208.882C16.8191 209.928 17.9885 211.732 19.98 212.562C20.2763 212.681 20.2094 212.048 20.6437 212.169C21.6176 212.438 23.0516 212.478 24.3334 212.576C25.7304 212.647 27.0301 212.858 27.9624 213.352C29.8394 214.347 27.4773 215.104 28.9116 215.509C29.6038 215.702 30.3526 213.803 30.5197 213.744C32.1519 213.136 33.2862 213.977 34.7553 213.719C35.0587 213.666 34.7612 212.896 35.0194 212.859C35.9013 212.726 36.8282 213.069 37.6709 213.006C38.049 212.976 37.9793 212.389 38.3272 212.434C39.1596 212.536 39.8957 212.783 40.7072 213.334C40.7811 213.384 40.2824 214.115 40.8983 214.142C41.8951 214.184 43.1323 214.728 44.279 214.167C44.6193 213.998 44.6326 212.654 45.3641 213.582C45.5175 213.776 45.3217 215.389 46.1737 213.995C46.317 213.764 47.7482 211.884 48.4506 213.095C48.6359 213.414 49.1088 214.734 49.518 214.527C49.5735 214.494 49.3512 213.772 49.6903 213.702C50.8852 213.466 52.1376 213.543 53.3652 213.317C53.693 213.256 53.2048 212.509 53.6934 212.441C55.037 212.252 56.7145 212.442 58.0284 212.676C58.5128 212.763 58.178 213.382 58.2132 213.449C58.78 214.544 59.1151 213.066 59.3032 212.98C60.4732 212.464 61.3642 213.158 62.4426 212.975C62.7402 212.926 62.5292 212.221 62.5885 212.158C63.2029 211.544 62.7452 212.81 63.1341 212.949C64.2236 213.344 65.4382 213.288 66.54 213.198C66.9447 213.163 66.4898 212.346 66.8531 212.325C69.0027 212.184 71.2375 212.263 73.3355 212.713C73.7305 212.799 73.482 213.428 73.5643 213.572C74.1317 214.578 74.9633 213.206 75.1547 213.076C76.0248 212.479 76.3627 213.036 77.1311 212.932C80.8847 212.415 85.5193 212.783 89.0625 213.011C93.6796 213.304 97.2623 213.902 101.665 213.747C101.945 213.738 101.663 212.901 101.904 212.882C105.018 212.68 108.085 213.008 111.205 212.766C111.461 212.747 111.092 211.954 111.503 211.898C112.346 211.777 113.414 211.82 114.267 212.074C114.682 212.196 114.125 212.877 114.543 212.986C115.518 213.241 116.562 213.297 117.563 213.17C117.989 213.114 117.346 212.303 117.9 212.293C121.671 212.213 125.375 212.073 129.186 213.124C129.448 213.196 129.677 214.845 130.233 214.529C130.274 214.071 130.272 213.533 130.29 213.044C135.781 212.78 141.215 213.352 146.72 213.44C146.952 213.444 146.551 212.57 147.001 212.572C149.602 212.585 152.127 212.343 154.788 213.212C155.052 213.297 154.917 214.834 155.694 214.602C155.832 214.559 157.003 214.354 157.306 214.02C157.347 213.97 157.134 213.253 157.511 213.232C159.705 213.123 162.004 213.286 164.195 213.725C164.548 213.797 164.172 214.561 164.424 214.619C166.21 215.025 168.152 214.444 169.859 215.138C171.001 215.605 170.578 216.926 171.185 218.226C171.271 218.409 171.978 218.438 172.015 219.195C172.109 221.097 171.766 223.18 171.907 225.208C171.936 225.645 172.884 225.174 172.323 226.229C172.284 226.3 171.597 226.65 171.428 227.008C171.31 227.256 171.522 228.025 171.282 228.342C171.042 228.659 170.778 228.014 170.379 228.386C169.981 228.763 170.156 229.638 169.361 229.742ZM6.41681 160.106C5.68185 160.735 8.3737 160.828 7.72967 160.148C7.69534 160.115 6.45286 160.074 6.41681 160.106ZM5.99164 84.0284C4.80434 84.8504 6.55014 85.4129 7.4671 84.833C8.38307 84.2532 6.35155 83.7779 5.99164 84.0284ZM5.12482 75.5042C4.18869 76.4649 8.00584 76.6162 7.23419 75.5872C7.19058 75.5273 5.17918 75.448 5.12482 75.5042ZM168.37 218.596C168.379 218.632 168.887 218.667 168.899 218.631C169.17 217.776 168.153 217.707 168.37 218.596ZM4.1811 67.0454C3.66474 67.3453 4.26081 68.2089 4.9029 67.8362C5.41944 67.5362 4.82341 66.6719 4.1811 67.0454ZM3.54389 192.907C3.50378 192.917 3.46766 193.281 3.6944 193.274C4.4247 193.249 4.21859 192.742 3.54389 192.907ZM4.13715 52.6687C3.99347 54.7928 0.840318 56.0806 1.19612 53.7675C1.2605 53.3486 2.20164 54.6703 2.48591 54.1371C3.00381 53.1616 1.02402 52.5138 2.08491 51.5183C2.27909 51.3381 4.15235 52.5475 4.14155 52.6724C4.14008 52.6712 4.13862 52.6699 4.13715 52.6687ZM3.18354 160.468C3.14795 160.481 3.11419 160.985 3.14948 160.997C4.00407 161.271 4.07256 160.254 3.18354 160.468ZM6.95308 213.883C6.90545 213.958 7.67142 214.949 7.75659 214.926C9.18461 214.439 7.74662 212.565 6.95308 213.883ZM1.2137 126.482C0.353978 125.931 0.252756 125.273 1.33235 124.834C1.27504 125.381 1.2666 125.932 1.2137 126.482Z" fill="#6EC9F2"/>
<path d="M207.499 130.847C206.724 130.404 206.103 129.429 205.74 128.579C205.625 128.313 206.059 128.072 205.995 127.873C205.869 127.486 205.465 127.412 205.367 127.002C205.337 126.864 205.976 126.435 205.931 126.303C205.684 125.584 205.091 125.263 204.716 124.66C202.866 121.689 200.697 119.119 198.5 116.436C198.225 116.099 197.983 115.679 197.731 115.254C197.427 114.665 197.054 114.067 196.475 113.827C196.365 113.782 195.994 114.336 195.943 114.365C195.164 114.808 196.094 113.839 196.033 113.563C195.79 112.47 194.969 111.828 194.105 111.61C193.737 111.519 193.377 112.837 193.446 112.02C193.449 111.964 193.882 111.401 193.833 111.286C193.72 111.024 193.277 110.925 193.147 110.795C192.895 110.538 192.84 110.518 192.552 110.368C192.163 110.16 191.815 109.621 191.306 109.588C191.198 109.584 191.051 110.303 190.859 110.358C190.668 110.413 190.305 110.21 190.228 110.003C190.153 109.795 190.398 109.281 190.418 109.149C190.573 108.038 189.6 109.319 189.538 109.341C188.264 109.615 187.53 108.56 186.425 108.387C185.597 108.261 184.689 108.463 183.912 108.395C183.626 108.369 183.353 108.317 183.083 108.26C182.479 108.133 181.885 107.983 181.251 108.082C181.155 108.097 181.339 108.933 181.226 108.953C180.023 109.159 178.857 109.269 177.513 109.034C177.377 109.01 177.341 108.248 177.19 108.182C176.299 107.776 174.458 106.862 175.228 110.056C174.706 110.126 174.092 110.254 173.381 109.873C172.919 109.63 172.831 108.767 172.636 109.252C172.592 109.361 173.014 109.944 172.929 110.057C172.573 110.531 171.949 110.616 171.691 111.204C171.64 111.324 171.999 111.852 172.034 111.965C172.323 112.877 171.162 111.8 171.016 111.764C169.97 111.462 169.721 112.05 169.195 112.441C169.072 112.533 169.746 113.09 169.651 113.199C169.152 113.757 168.548 114.199 167.76 114.445C167.583 114.5 167.176 113.876 167.063 113.877C167.062 113.877 167.06 113.877 167.059 113.877C166.545 113.928 167.449 114.96 166.967 115.022C166.866 115.037 166.457 114.563 166.398 114.525C165.473 113.928 166.409 115.149 166.39 115.215C166.18 116.075 164.713 115.292 164.356 115.968C164.314 116.05 165.012 116.469 164.861 116.665C163.858 117.977 162.48 119.048 160.887 119.747C160.641 119.856 160.348 119.31 160.285 119.269C159.295 118.644 160.259 119.845 160.242 119.944C160.077 120.695 158.741 120.215 159.719 121.816C157.331 123.31 156.123 125.965 153.043 126.735C153.005 126.746 152.516 126.169 152.443 126.193C151.556 126.482 152.497 127.198 153.122 128.6C153.278 128.953 151.757 128.027 151.64 127.964C151.214 127.729 150.52 126.836 150.424 126.805C149.655 126.568 152.322 129.148 151.964 129.508C151.948 129.515 151.512 128.985 151.434 128.967C151.19 128.91 151.289 129.195 151.031 129.12C150.437 128.945 149.087 127.745 149.509 128.808C149.564 128.944 151.114 130.371 150.723 130.621C150.566 130.72 150.026 131.311 149.771 131.373C149.516 131.435 149.145 130.847 149.113 130.837C148.052 130.63 147.951 130.206 146.799 129.481C145.65 128.759 147.94 130.931 148.101 131.267C148.262 131.602 147.426 131.392 147.167 131.287C146.909 131.182 146.7 130.781 146.528 130.747C145.403 130.527 147.437 132.053 147.641 132.556C148.128 133.747 146.199 132.367 145.715 132.527C145.584 132.57 146.032 132.876 145.989 132.989C145.816 133.431 145.115 133.1 145.239 133.923C145.259 134.057 145.97 135.334 145.057 134.788C144.926 134.708 144.588 134.222 144.364 134.261C144.03 134.318 143.587 134.581 143.514 134.929C143.461 135.187 144.318 135.688 143.912 135.672C143.73 135.665 143.494 135.107 143.187 135.126C142.881 135.145 142.483 135.578 142.338 135.749C142.195 135.921 142.796 136.35 142.818 136.397C142.94 136.673 142.886 137.225 142.858 137.251C141.572 138.663 139.459 139.039 138.432 140.641C138.351 140.766 138.963 141.24 138.956 141.265C138.831 141.846 137.664 140.123 136.934 139.886C138.072 140.953 137.727 140.899 137.599 141.268C137.539 141.447 138.031 141.809 138.064 141.864C138.535 142.69 137.573 141.976 137.37 141.836C136.622 141.324 137.239 142.197 136.737 141.855C136.239 141.517 135.803 140.713 135.573 140.96C135.901 141.421 137.109 142.276 137.095 142.624C137.044 143.939 134.96 144.405 134.327 144.871C133.694 145.335 133.59 145.585 133.128 145.761C132.293 146.081 133.27 146.634 133.262 147.343C133.253 148.052 131.545 145.995 131.088 145.642C130.633 145.288 130.994 145.76 130.708 145.6C130.423 145.441 130.284 145.03 130.053 145.094C129.821 145.158 130.137 146.283 130.508 146.758C131.293 147.766 132.417 148.525 131.695 148.585C131.652 148.588 131.23 148.02 131.094 148.056C130.028 148.36 129.293 149.048 128.272 149.394C128.131 149.441 127.665 148.806 127.576 148.827C126.654 149.045 127.786 149.77 128.506 151.114C127.203 149.671 126.19 149.004 125.749 149.428C125.484 149.683 126.128 150.238 126.383 150.829C126.46 151.007 125.864 150.779 126.113 151.094C126.925 152.126 128.13 152.985 127.273 153.02C127.234 153.02 126.791 152.453 126.693 152.49C126.056 152.727 126.968 153.743 126.612 154.333C126.334 154.795 125.087 154.865 124.57 155.191C123.035 153.639 122.99 154.39 123.893 155.616C123.576 155.846 123.341 156.202 122.929 156.319C122.788 156.36 122.401 155.854 122.341 155.817C121.407 155.235 122.324 156.39 122.305 156.489C122.06 157.524 120.753 157.261 120.909 158.639C120.915 158.688 121.952 159.795 121.006 159.176C120.942 159.132 120.656 158.443 120.331 158.693C120.005 158.942 118.889 158.909 118.986 159.805C119.01 160.021 119.636 161.136 118.76 160.652C118.641 160.586 118.362 160.25 118.153 160.116C117.486 159.693 118.503 160.843 117.44 160.066C116.376 159.288 115.388 158.897 115.621 159.934C115.627 159.966 116.39 160.92 116.25 161.033C116.026 161.212 115.56 161.32 115.355 161.537C115.257 161.641 115.855 162.11 115.847 162.137C115.467 163.115 114.508 163.123 113.574 163.644C113.402 163.738 113.746 164.849 112.912 164.532C111.999 164.186 109.672 161.276 109.644 162.552C109.631 163.064 112.62 166.719 110.427 165.47C109.937 166.813 108.209 166.779 107.9 168.307C107.885 168.375 108.682 169.433 108.572 169.517C108.408 169.641 107.895 169.287 107.764 169.361C107.202 169.662 107.178 170.427 106.704 170.786C106.525 170.923 106.132 170.419 105.919 170.583C105.706 170.746 106.171 171.462 105.631 171.432C105.221 171.407 103.822 170.394 103.426 170.509C104.606 171.708 104.406 171.859 104.408 172.485C104.408 172.606 104.887 172.956 104.909 173.035C105.007 173.364 104.557 173.127 104.679 173.469C104.708 173.552 105.113 173.959 105.16 174.05C105.573 174.833 104.353 174.225 104.142 174.118C103.336 173.715 103.771 174.338 103.379 174.254C102.987 174.17 102.92 173.642 102.595 173.678C101.924 173.752 101.51 174.297 101.113 174.657C100.957 174.803 101.602 175.242 101.592 175.276C101.417 175.726 100.524 175.465 101.431 176.719C98.4217 174.142 101.514 177.178 100.508 177.065C100.428 177.055 99.0621 175.779 99.0033 175.45C98.9447 175.122 99.5623 175.33 99.4475 174.84C99.421 174.725 98.4375 173.233 98.3972 173.123C98.083 172.265 100.095 174.201 100.218 174.295C101.551 175.302 100.528 173.658 100.518 173.484C100.47 172.687 101.066 172.647 101.077 172.032C101.087 171.633 99.8146 170.32 100.015 170.199C100.68 169.795 102.67 171.412 101.61 169.345C101.385 168.903 99.8642 167.597 101.362 168.322C101.457 168.367 102.76 169.097 102.283 168.288C102.223 168.186 101.811 167.775 101.804 167.712C101.764 167.304 102.215 167.51 102.259 167.152C102.302 166.794 102.309 166.318 102.678 166.229C102.9 166.174 103.844 166.764 104.098 166.886C104.826 167.241 104.139 166.153 104.91 166.693C105.685 167.235 106.457 168.463 107.188 168.583C106.13 167.502 105.058 166.377 104 165.283C104.708 164.651 105.713 164.337 106.338 163.618C106.415 163.527 105.754 163.037 105.821 162.926C106.107 162.457 106.846 162.538 107.074 161.984C107.248 161.552 106.971 160.612 107.134 160.142C108.552 161.173 108.606 160.287 109.059 160.058C109.217 159.977 109.536 160.312 109.727 160.334C110.443 160.408 109.21 159.476 109.128 159.218C108.779 158.114 111.26 160.531 111.644 160.026C111.665 160 110.648 158.407 110.606 158.286C110.328 157.504 111.102 158.698 111.356 158.637C111.82 158.525 112.332 158.637 112.288 157.917C112.273 157.705 111.695 156.655 112.516 157.093C112.624 157.15 113.041 157.596 113.087 157.601C113.875 157.655 112.528 156.29 112.279 155.621C112.029 154.953 113.289 155.565 113.624 155.769C114.495 156.294 113.791 156.199 113.85 156.277C114.555 157.201 114.651 156.825 114.9 156.714C116.255 158.017 116.428 157.685 115.153 156.593C115.013 156.474 114.997 156.738 114.9 156.714C113.754 155.251 113.864 154.807 115.389 155.719C116.104 156.147 116.634 156.949 116.826 156.27C116.913 155.962 115.922 155.123 115.847 154.699C115.676 153.732 117.047 154.068 117.323 153.523C117.423 153.325 116.777 152.969 116.828 152.817C116.963 152.41 117.577 152.548 117.656 152.084C117.663 152.041 117.078 151.577 117.156 151.486C117.735 150.785 118.628 150.563 119.306 149.904C119.633 149.586 119.921 148.719 120.313 148.443C120.991 147.961 122.466 148.011 122.776 147.33C122.981 146.889 122.385 146.435 122.166 145.939C121.741 144.979 123.454 145.747 123.71 145.876C123.718 145.88 123.564 146.282 123.982 146.403C124.629 146.878 123.709 145.881 123.71 145.876C123.876 145.958 124.55 145.522 124.56 145.312C124.565 145.197 124.035 144.733 124.047 144.683C124.345 143.496 124.962 142.626 125.947 142.105C125.971 142.102 126.507 142.678 126.554 142.663C127.237 142.475 126.837 141.515 126.792 140.752C126.748 139.989 127.168 139.839 128.336 140.581C128.487 140.189 129.298 140.222 129.778 140.254C130.257 140.286 129.207 139.173 129.205 139.132C129.135 137.833 130.109 138.097 130.843 137.556C131.194 137.3 131.638 136.542 131.848 136.096C132.012 135.741 132.422 135.838 132.499 135.437C132.509 135.383 131.995 134.934 131.986 134.906C131.677 134.062 132.726 135.368 132.992 135.524C133.956 136.089 134.487 136.373 134.469 135.672C134.465 135.511 132.999 133.585 133.043 133.342C133.104 133.03 133.641 133.708 133.69 133.365C133.694 133.337 133.316 132.965 133.453 132.861C134.085 132.373 134.914 131.98 135.458 131.361C135.534 131.277 134.837 130.784 134.937 130.654C135.405 130.045 136.018 129.476 136.822 129.229C137.022 129.171 137.357 129.668 137.509 129.764C138.429 130.34 137.586 129.008 137.606 128.947C138.045 127.463 139.765 127.711 140.276 126.263C140.302 126.182 139.547 124.606 140.73 125.422C140.809 125.476 142.013 126.318 141.474 125.458C141.44 125.405 140.801 124.991 141.051 124.848C141.302 124.704 141.268 124.035 142.117 124.343C142.385 124.439 143.608 125.257 143.051 124.188C143.01 124.114 141.567 121.881 142.976 123.008C143.208 123.194 144.527 124.561 144.144 123.567C144.068 123.375 143.663 123.182 143.63 122.841C143.577 122.317 144.249 122.365 143.94 121.477C143.885 121.321 143.188 120.195 144.052 120.714C144.188 120.795 144.585 121.295 144.726 121.254C145.399 121.062 145.553 120.309 146.303 120.179C146.567 120.132 147.212 120.937 147.569 120.969C147.925 121 148.439 120.86 148.278 120.359C148.116 119.858 146.776 118.889 146.938 118.542C147.643 117.034 149.416 116.616 150.62 115.61C150.799 115.461 150.25 115.184 150.483 114.934C151.343 114.013 152.492 112.089 154.143 112.195C155.465 112.279 155.221 113.593 155.981 113.406C156.345 113.315 155.25 111.725 155.262 111.628C155.371 110.66 156.34 110.881 156.642 110.214C156.704 110.076 156.062 109.63 156.121 109.519C156.317 109.134 156.866 109.071 157.099 108.749C157.203 108.603 156.764 108.21 156.911 108.127C157.257 107.925 157.675 107.857 158.332 107.979C158.392 107.99 158.744 108.671 158.967 108.488C159.325 108.189 160.117 108.165 160.099 107.39C160.093 107.206 159.493 106.564 159.7 106.518C159.764 106.497 159.882 106.513 160.078 106.585C160.282 106.657 161.321 107.893 160.712 106.545C160.599 106.328 159.973 104.34 161.108 104.959C161.406 105.121 162.48 105.937 162.525 105.627C162.528 105.581 161.961 105.116 162.07 104.931C162.465 104.291 163.104 103.885 163.567 103.267C163.691 103.099 163.009 102.673 163.213 102.44C163.777 101.796 164.761 101.371 165.572 101.153C165.873 101.074 166.016 101.71 166.07 101.756C166.921 102.521 166.339 101.151 166.399 101.017C166.767 100.21 167.584 100.56 168.082 100.102C168.222 99.9772 167.792 99.4048 167.796 99.3323C167.868 98.6112 168.173 99.8719 168.448 99.8923C169.218 99.956 169.855 99.6075 170.439 99.2693C170.654 99.1443 170.086 98.4938 170.286 98.3893C171.47 97.7549 172.841 97.3763 174.205 97.4712C174.461 97.4908 174.478 98.1383 174.564 98.264C175.145 99.1474 175.282 97.7018 175.372 97.5466C175.754 96.8438 176.082 97.3425 176.518 97.1479C178.453 96.2744 181.039 96.2696 183.083 96.5029C183.316 96.5279 183.542 96.5549 183.761 96.5825C186.58 96.951 188.602 97.8497 191.171 98.331C191.335 98.364 191.38 97.5111 191.527 97.53C193.432 97.8197 195.098 98.755 196.932 99.3198C197.083 99.3685 197.202 98.5507 197.46 98.607C197.993 98.718 198.586 99.0563 198.941 99.5288C199.114 99.7572 198.492 100.2 198.669 100.416C199.075 100.919 199.591 101.275 200.177 101.479C200.428 101.565 200.51 100.666 200.808 100.836C202.842 101.979 204.84 103.328 205.82 105.69C205.888 105.854 204.849 107.14 205.297 107.135C205.634 106.824 206.01 106.439 206.36 106.096C206.455 106.176 206.55 106.258 206.643 106.34C208.524 107.944 209.873 110.047 211.56 111.855C211.634 111.934 212.12 111.184 212.267 111.334C213.115 112.201 214.119 112.862 214.382 114.354C214.409 114.501 213.278 115.543 213.698 115.635C213.774 115.651 214.305 115.892 214.641 115.756C214.69 115.734 215.127 115.156 215.266 115.266C216.067 115.912 216.709 116.786 217.121 117.818C217.187 117.986 216.522 118.402 216.564 118.526C216.866 119.402 217.918 119.632 217.99 120.685C218.036 121.392 216.963 122.187 216.243 123.306C216.142 123.464 216.355 123.718 215.832 124.265C214.518 125.641 212.932 127.001 211.545 128.481C211.246 128.799 211.891 128.779 210.959 129.341C210.896 129.378 210.422 129.399 210.113 129.596C209.9 129.732 209.425 130.346 209.122 130.491C208.819 130.636 209.188 130.093 208.793 130.225C208.396 130.36 207.835 131.036 207.499 130.847ZM131.93 140.39C132.657 140.703 130.784 138.769 131.015 139.448C131.029 139.484 131.894 140.376 131.93 140.39ZM107.145 165.777C108.256 166.345 107.207 164.925 106.367 164.468C105.528 164.012 106.808 165.605 107.145 165.777ZM104.947 169.2C105.926 169.546 103.277 166.797 103.483 167.681C103.494 167.732 104.89 169.18 104.947 169.2ZM215.053 122.64C215.031 122.668 215.174 122.86 215.203 122.839C215.897 122.324 215.611 121.94 215.053 122.64ZM102.825 172.657C103.289 172.923 103.153 172.217 102.576 171.886C102.112 171.619 102.248 172.326 102.825 172.657ZM144.777 131.606C144.809 131.631 144.954 131.537 144.792 131.379C144.267 130.871 144.246 131.184 144.777 131.606ZM98.1159 177.428C98.9179 176.83 101.572 178.635 100.558 179.146C100.374 179.238 100.145 178.137 99.7677 178.112C99.0799 178.067 100.266 179.681 99.1877 179.259C98.991 179.181 98.0652 177.458 98.1141 177.424C98.1147 177.426 98.1153 177.427 98.1159 177.428ZM134.336 142.557C134.365 142.578 134.555 142.436 134.534 142.407C134.02 141.712 133.637 141.999 134.336 142.557ZM152.968 125.769C153.031 125.814 153.467 125.478 153.43 125.416C152.644 124.226 151.759 124.902 152.968 125.769ZM124.522 155.157C124.948 155.946 124.803 156.235 123.895 155.616C124.116 155.476 124.303 155.301 124.522 155.157Z" fill="#6EC9F2"/>
<path d="M139.022 74.4587C139.199 75.5314 138.785 76.9048 138.259 77.8705C138.096 78.1733 137.656 77.9246 137.522 78.1241C137.26 78.5086 137.404 78.9535 137.092 79.3171C136.986 79.4356 136.29 79.0933 136.197 79.2183C135.69 79.8955 135.676 80.6504 135.276 81.3504C133.312 84.7552 131.186 87.7776 128.442 90.3001C127.531 91.1414 126.015 91.6364 125.255 92.6369C125.165 92.7555 125.65 93.2168 125.662 93.2767C125.838 94.209 125.117 93.07 124.788 93.1019C123.475 93.2311 122.468 93.8302 121.678 94.5818C121.343 94.9019 122.389 95.8229 121.62 95.4068C121.568 95.3785 121.326 94.7074 121.182 94.7015C120.858 94.6895 120.453 95.0437 120.234 95.0897C119.814 95.1746 119.757 95.2094 119.4 95.366C118.905 95.575 118.194 95.4935 117.722 95.841C117.62 95.9177 118.027 96.5366 117.883 96.7214C117.738 96.9072 117.214 97.0249 116.992 96.9173C116.77 96.8109 116.667 96.2472 116.598 96.1331C116.031 95.1646 115.924 96.7821 115.848 96.8413C114.643 97.8444 113.24 97.2334 111.967 97.3887C110.993 97.5097 109.954 97.8502 109 97.8154C108.992 97.8151 108.984 97.8148 108.976 97.8145C107.833 97.761 106.915 97.3081 105.83 97.2396C105.715 97.2311 105.741 98.0907 105.597 98.0812C104.058 97.9775 102.534 97.5355 101.277 96.5256C101.152 96.4238 101.565 95.7743 101.458 95.6312C100.763 94.7656 100.198 92.9391 98.3447 95.6487C97.8271 95.2707 97.2009 94.799 97.0471 93.96C96.9514 93.4213 97.6462 92.8842 97.1133 92.9757C96.993 92.9945 96.7394 93.6705 96.5831 93.6502C95.9189 93.5596 95.4815 93.0017 94.7709 92.9507C94.6248 92.9413 94.2841 93.4806 94.188 93.5531C93.3891 94.1272 93.8844 92.5787 93.8749 92.4293C93.734 91.2698 93.0937 91.1564 92.5438 90.6282C92.4178 90.5053 91.9924 91.2773 91.8474 91.1786C91.1004 90.6547 90.4869 89.9134 90.2001 89.0036C90.1385 88.8004 90.8062 88.4577 90.8064 88.3376C90.8099 87.822 89.6942 88.6339 89.6769 88.1389C89.673 88.0365 90.1898 87.6833 90.2341 87.6289C90.9374 86.7853 89.6188 87.5714 89.5526 87.5402C88.7183 87.2025 89.7423 85.8894 89.1794 85.437C89.1091 85.3805 88.5509 85.9728 88.3917 85.7838C87.325 84.5246 86.7133 82.8135 86.7481 81.1134C86.7524 80.8495 87.3699 80.8057 87.4326 80.7647C88.4193 80.1417 86.9308 80.5236 86.8483 80.4634C86.2434 79.994 87.312 79.0891 85.4417 79.1644C85.3529 76.9405 84.518 74.8376 85.1194 72.6667C85.2681 72.1379 85.5041 71.6284 85.8596 71.1374C85.8806 71.1062 86.6293 71.2129 86.6679 71.1519C87.1471 70.4258 85.9679 70.4947 84.603 69.7854C84.2617 69.5967 86.0324 69.4097 86.1626 69.4009C86.6432 69.3419 87.7352 69.6301 87.8307 69.6019C88.5813 69.3884 84.9042 68.8748 84.9912 68.3646C85 68.3505 85.6609 68.5342 85.735 68.5052C85.9671 68.4174 85.7235 68.2434 85.9781 68.1656C86.5684 67.9857 88.3468 68.2798 87.4131 67.6549C87.2933 67.5722 85.2203 67.1818 85.4253 66.7637C85.5052 66.6001 85.682 65.8201 85.88 65.6495C86.0748 65.4783 86.6785 65.8231 86.7114 65.8159C87.7377 65.5398 88.0275 65.8609 89.3692 66.0316C90.7017 66.2221 87.6981 65.2574 87.4046 65.0301C87.112 64.8013 87.9515 64.6647 88.2265 64.6692C88.5019 64.6703 88.8601 64.939 89.0267 64.9119C90.1154 64.7463 87.6651 64.0981 87.2762 63.7244C86.3704 62.8125 88.6715 63.3992 89.0476 63.1437C89.1516 63.07 88.6317 62.9218 88.631 62.8087C88.6397 62.3574 89.3937 62.4849 89.0221 61.7668C88.9581 61.6552 87.9247 60.6199 88.9446 60.923C89.0903 60.9691 89.5445 61.3462 89.7432 61.2666C90.0405 61.1477 90.3847 60.8356 90.3702 60.5036C90.3601 60.2567 89.4297 59.9219 89.8224 59.8701C89.9967 59.8493 90.3471 60.3356 90.6332 60.2749C90.9169 60.2152 91.2 59.7726 91.3055 59.6001C91.409 59.4275 90.7603 59.079 90.7304 59.0369C90.5639 58.7881 90.5347 58.2498 90.5591 58.2214C91.6469 56.7006 93.6736 56.4045 94.7236 55.0283C94.8094 54.9194 94.2573 54.3775 94.2654 54.3547C94.4387 53.805 95.4194 55.6347 96.0816 55.9845C95.0897 54.781 95.4096 54.8876 95.5666 54.5576C95.6422 54.3975 95.216 53.9619 95.1906 53.9038C94.8439 53.02 95.6779 53.8813 95.8489 54.0571C96.4867 54.6975 96.0218 53.7388 96.4457 54.1711C96.8608 54.6042 97.1663 55.4555 97.3994 55.285C97.1604 54.7735 96.1569 53.6893 96.2257 53.3595C96.5083 52.0798 98.6212 52.2199 99.3055 52.0479C100.008 51.8518 100.186 51.6715 100.648 51.7017C101.48 51.7696 100.836 50.8591 101.132 50.2258C101.442 49.5949 102.063 52.1981 102.31 52.7183C102.549 53.2416 102.427 52.6616 102.597 52.937C102.765 53.2135 102.734 53.6324 102.933 53.6924C103.125 53.7529 103.285 52.6446 103.194 52.0497C102.989 50.7912 102.399 49.5703 103.038 49.8837C103.075 49.9029 103.158 50.6048 103.286 50.6446C104.284 50.9422 105.188 50.802 106.107 51.1609C106.233 51.2116 106.23 51.9975 106.302 52.0361C107.041 52.4484 106.638 51.1749 106.911 49.6821C107 51.6248 107.316 52.7832 107.807 52.7647C108.109 52.7556 108.012 51.9121 108.196 51.3064C108.253 51.1237 108.495 51.6993 108.526 51.3C108.639 49.9955 108.384 48.5367 109 49.1123C109 49.1125 109 49.1128 109.001 49.113C109.01 49.1227 109.006 49.2177 109 49.3386C108.992 49.4975 108.983 49.7011 109 49.8141C109.007 49.8589 109.017 49.8895 109.034 49.8975C109.603 50.1848 109.699 48.8219 110.368 48.69C110.9 48.5866 111.725 49.5006 112.255 49.7158C111.948 51.8762 112.48 51.4495 112.954 50.0057C113.302 50.1282 113.704 50.1216 114.002 50.4016C114.103 50.4972 113.887 51.0963 113.887 51.1662C113.862 52.259 114.341 50.8693 114.434 50.8331C115.401 50.5009 115.711 51.7558 116.821 51.0019C116.859 50.9743 117.429 49.5671 117.254 50.6837C117.238 50.7595 116.749 51.3125 117.084 51.4957C117.428 51.6825 117.74 52.6915 118.496 52.2718C118.675 52.168 119.517 51.2057 119.322 52.1855C119.294 52.3176 119.065 52.6889 118.999 52.9267C118.783 53.6822 119.568 52.3629 119.121 53.5995C118.674 54.8371 118.477 55.8371 119.332 55.3006C119.357 55.2851 120.08 54.3016 120.206 54.4019C120.404 54.5604 120.564 54.9637 120.781 55.1005C120.886 55.166 121.243 54.497 121.268 54.4976C122.224 54.6384 122.332 55.5616 122.825 56.3582C122.909 56.5003 123.962 56.0543 123.65 56.8763C123.294 57.7645 120.514 60.2236 121.604 60.0573C122.016 59.97 125.735 57.0543 124.319 59.126C125.512 59.5685 125.116 61.1086 126.413 61.5354C126.47 61.5541 127.665 60.9893 127.717 61.1068C127.789 61.2794 127.315 61.681 127.345 61.8097C127.454 62.356 128.147 62.5321 128.309 63.0377C128.37 63.2277 127.771 63.4461 127.838 63.6658C127.902 63.8821 128.728 63.6764 128.487 64.1301C128.303 64.4764 126.817 65.3414 126.733 65.6699C128.301 65.0608 128.347 65.2655 128.894 65.4709C129 65.5108 129.524 65.2377 129.603 65.2469C129.937 65.2838 129.523 65.5716 129.879 65.5969C129.964 65.6037 130.509 65.422 130.61 65.4185C131.494 65.389 130.384 66.1737 130.185 66.2947C129.438 66.7813 130.187 66.6845 129.914 66.9637C129.639 67.236 129.16 67.0731 129.019 67.3361C128.726 67.8731 128.94 68.3948 128.996 68.8391C129.022 69.0149 129.754 68.7557 129.775 68.7775C130.038 69.126 129.288 69.618 130.83 69.6203C126.949 70.4094 131.244 69.7988 130.52 70.4658C130.461 70.5181 128.607 70.7482 128.319 70.6258C128.031 70.5059 128.584 70.2061 128.132 70.0527C128.026 70.0101 126.255 69.9967 126.145 69.9847C125.286 69.8544 128.029 69.3452 128.177 69.2997C129.774 68.8233 127.85 68.8098 127.706 68.7599C127.038 68.4821 127.34 68.0636 126.84 67.8443C126.516 67.7024 124.751 68.1852 124.763 68.0255C124.804 67.5151 127.141 66.4631 124.888 66.7417C124.407 66.8055 122.581 67.6198 123.916 66.7208C124.003 66.67 125.225 65.8583 124.323 66.0639C124.21 66.0908 123.675 66.3228 123.62 66.3192C123.263 66.2925 123.64 65.9997 123.36 65.9255C123.081 65.8528 122.69 65.8099 122.772 65.5385C122.822 65.3774 123.699 64.7192 123.9 64.532C124.479 63.9965 123.29 64.4451 124.034 63.8819C124.773 63.3023 126.126 62.809 126.461 62.1953C125.157 62.963 123.812 63.7412 122.502 64.5154C122.235 63.9709 122.288 63.1837 121.844 62.7192C121.788 62.6637 121.195 63.2254 121.12 63.1817C120.815 63.0018 121.068 62.4002 120.657 62.2851C120.336 62.1983 119.51 62.5778 119.174 62.5476C120.286 61.2089 119.555 61.3191 119.436 61.0028C119.392 60.89 119.704 60.5485 119.743 60.3821C119.877 59.7599 118.988 61.0146 118.773 61.147C117.869 61.7306 120.045 59.0333 119.623 58.8137C119.597 58.797 118.265 60.1053 118.175 60.1821C117.551 60.6549 118.524 59.6414 118.485 59.4445C118.413 59.0861 118.491 58.6044 117.925 58.8805C117.754 58.9603 116.967 59.8235 117.283 58.9746C117.324 58.8629 117.651 58.3476 117.652 58.3069C117.648 57.6099 116.671 59.2624 116.2 59.7423C115.735 60.225 116.119 58.9319 116.232 58.5615C116.539 57.6096 116.536 58.2435 116.588 58.1619C117.219 57.1919 116.92 57.258 116.802 57.0898C117.623 55.3984 117.317 55.3739 116.674 56.9224C116.603 57.091 116.807 56.9964 116.802 57.0898C115.826 58.6641 115.546 58.7893 115.981 57.0953C116.181 56.3004 116.688 55.4911 116.123 55.6252C115.869 55.6883 115.452 56.9161 115.164 57.1809C114.525 57.7916 114.481 56.4945 114.025 56.5524C113.867 56.5758 113.791 57.2939 113.679 57.3345C113.389 57.4472 113.318 56.8751 113.001 57.0751C112.974 57.0944 112.842 57.8262 112.767 57.817C112.205 57.7649 111.812 57.202 111.206 57.1024C110.912 57.0534 110.355 57.4065 110.067 57.3065C109.741 57.1948 109.374 56.7022 109 56.4427C108.795 56.299 108.596 56.2263 108.432 56.3252C108.133 56.5044 108.237 57.2438 108.142 57.7547C107.981 58.7433 107.444 57.0301 107.342 56.7682C107.339 56.7591 107.58 56.5605 107.406 56.1944C107.246 55.4126 107.343 56.7646 107.342 56.7682C107.287 56.5953 106.746 56.4908 106.664 56.6482C106.62 56.7329 106.752 57.4239 106.729 57.4548C106.166 58.1745 105.63 58.4727 104.918 58.3324C104.903 58.3219 104.705 57.5608 104.672 57.5459C104.19 57.3208 104.227 58.3213 104.139 58.9576C104.048 59.596 103.79 59.4929 103.099 58.3175C102.943 58.5646 102.387 58.1593 102.038 57.9245C101.688 57.69 102.336 59.0782 102.335 59.1121C102.299 60.2127 101.645 59.5723 101.085 59.7524C100.821 59.8331 100.502 60.3111 100.374 60.6118C100.274 60.8498 99.9506 60.6439 99.9268 60.9521C99.9238 60.9933 100.364 61.5143 100.373 61.5401C100.707 62.314 99.757 60.9427 99.5347 60.7391C98.7244 60.0019 98.2511 59.6422 98.3339 60.2411C98.3465 60.3835 99.7777 62.3186 99.795 62.4928C99.8059 62.7237 99.265 62.0529 99.2885 62.3158C99.2902 62.3376 99.6551 62.7222 99.57 62.7708C99.1807 63.0008 98.6126 63.1495 98.3428 63.5466C98.3053 63.5986 98.9969 64.0841 98.9561 64.1651C98.765 64.5442 98.4764 64.8685 97.9199 64.9795C97.7805 65.0059 97.3317 64.6193 97.175 64.5384C96.2171 64.0629 97.3789 65.0941 97.3902 65.131C97.6134 66.1462 96.1122 65.992 96.3749 67.0113C96.387 67.0777 97.7846 67.9967 96.4261 67.5882C96.3372 67.557 94.9343 67.1687 95.8097 67.6493C95.8651 67.6778 96.5913 67.8622 96.4668 67.9772C96.3404 68.0983 96.7331 68.4778 95.8905 68.426C95.6266 68.404 94.1919 68.1541 95.2355 68.686C95.3034 68.7382 97.7363 69.6956 95.9754 69.3446C95.6857 69.2874 93.8463 68.8091 94.7315 69.2936C94.9043 69.3835 95.3358 69.3973 95.5659 69.5763C95.9226 69.8432 95.3732 69.9892 96.1669 70.3584C96.3065 70.428 97.5529 70.7828 96.5683 70.753C96.4139 70.7499 95.7929 70.6162 95.7124 70.6753C95.3257 70.9643 95.7082 71.3631 95.2468 71.675C95.0845 71.7896 94.0661 71.6565 93.7835 71.7837C93.5006 71.9101 93.2251 72.2031 93.691 72.3653C94.1571 72.5214 95.792 72.3931 95.9208 72.5913C95.9374 72.6165 95.9527 72.6416 95.9669 72.6667C96.4323 73.4623 95.5985 74.3102 95.6215 75.1872C95.6249 75.3169 96.1788 75.105 96.2249 75.2801C96.3972 75.9564 97.2317 76.8059 96.3155 77.8203C95.5914 78.6687 94.6391 78.3552 94.4282 78.897C94.337 79.1752 96.1566 78.5865 96.2266 78.595C96.9566 78.722 96.3439 79.365 96.7677 79.5916C96.8542 79.6352 97.4839 79.186 97.5486 79.2244C97.7732 79.3476 97.601 79.725 97.7716 79.8737C97.8492 79.9386 98.3316 79.6022 98.3402 79.6976C98.3676 79.9231 98.2652 80.209 97.9442 80.7041C97.916 80.7508 97.2437 81.0699 97.3219 81.2231C97.4468 81.4649 97.2418 82.086 97.8807 81.9739C98.0728 81.9397 99.092 81.0658 98.5163 81.8177C98.396 81.974 97.1538 83.006 98.3525 82.2554C98.5613 82.1423 100.17 81.1134 99.4218 82.0789C99.225 82.3339 98.3842 83.3606 98.6156 83.2964C98.6494 83.2832 99.1109 82.7254 99.2253 82.7386C99.6175 82.7913 99.8116 83.0709 100.204 83.1065C100.309 83.1135 100.695 82.4632 100.831 82.488C101.202 82.5527 101.401 82.9443 101.536 83.3239C101.585 83.4647 101.163 83.9248 101.132 83.9846C100.634 84.9724 101.545 83.8038 101.629 83.7559C102.155 83.4865 101.973 84.1899 102.307 84.1733C102.397 84.169 102.705 83.5326 102.749 83.4857C103.181 83.0262 102.456 84.069 102.472 84.2387C102.519 84.7195 102.833 84.8204 103.127 84.8618C103.234 84.8758 103.485 84.0899 103.574 84.1088C104.102 84.2041 104.547 84.4668 104.896 85.0569C104.962 85.1695 104.709 85.7483 104.684 85.8914C104.523 86.897 105.149 85.6532 105.224 85.5389C105.599 85.0264 105.529 85.5833 105.745 85.5314C106.773 85.2632 107.808 85.7667 108.731 86.0082C108.821 86.0324 108.911 86.0574 109 86.0829C110.059 86.3873 111.043 86.7838 112.086 86.4092C112.157 86.384 111.901 85.5837 111.956 85.5521C112.662 85.1848 113.496 85.2575 114.127 84.7267C114.178 84.6851 113.784 83.9904 113.85 83.9009C113.983 83.7123 114.218 83.6509 114.511 83.7877C114.655 83.8524 114.837 84.5224 114.98 84.5729C115.315 84.6899 115.586 84.6078 115.746 84.3685C115.811 84.266 115.265 83.6446 115.377 83.5688C116.131 83.0284 116.7 82.4399 118.123 82.5598C118.219 82.5693 119.393 83.7297 119.292 83.3887C118.984 83.0504 118.61 82.6629 118.274 82.3071C119.085 81.1606 120.374 80.4142 121.15 79.163C121.181 79.112 120.363 78.7886 120.418 78.692C120.733 78.1208 120.743 77.5014 121.785 77.1563C121.888 77.1205 123.329 77.6597 123.18 77.3733C123.153 77.3226 123.058 76.9437 122.76 76.7711C122.715 76.7468 122.012 76.5945 122.019 76.4956C122.074 75.9218 122.359 75.4046 122.884 74.8929C122.97 74.8095 123.709 75.0295 123.777 74.9682C124.258 74.5141 123.735 73.9088 124.452 73.4503C124.933 73.1323 126.248 73.3084 127.553 73.1345C127.738 73.1088 127.771 72.8569 128.527 72.8485C130.43 72.8243 132.511 72.9952 134.539 72.9559C134.977 72.947 134.508 72.4744 135.563 72.7565C135.634 72.7758 135.981 73.1286 136.336 73.2251C136.582 73.2924 137.354 73.1943 137.668 73.3314C137.981 73.4713 137.333 73.5949 137.696 73.8239C138.063 74.0573 138.944 73.9957 139.022 74.4587ZM100.416 56.9357C99.8673 56.3989 101.162 58.7594 101.035 58.0938C101.027 58.0588 100.443 56.962 100.416 56.9357ZM123.929 62.0087C124.718 61.0714 123.197 61.9556 122.577 62.6578C121.945 63.3433 123.684 62.2851 123.929 62.0087ZM126.237 64.1794C126.911 63.4332 123.498 65.144 124.333 65.0885C124.381 65.0856 126.197 64.2216 126.237 64.1794ZM127.872 74.1594C127.908 74.1593 127.956 73.9779 127.921 73.971C127.074 73.8197 126.98 74.1651 127.872 74.1594ZM128.279 66.7791C128.739 66.5157 128.068 66.3763 127.501 66.7101C127.043 66.9712 127.705 67.0979 128.279 66.7791ZM90.2376 63.7011C90.1996 63.6871 90.1049 63.8027 90.3115 63.8964C90.9764 64.1979 90.8732 63.9357 90.2376 63.7011ZM129.191 72.2148C129.315 71.4339 132.413 70.617 132.116 71.6672C132.06 71.8485 131.093 71.3275 130.82 71.569C130.322 71.9819 132.308 72.2171 131.248 72.6589C131.055 72.7257 129.178 72.2507 129.187 72.2135C129.188 72.2139 129.19 72.2144 129.191 72.2148ZM98.7363 54.1697C98.7146 54.1408 98.52 54.2115 98.5334 54.2448C98.8638 55.0395 99.2405 54.9059 98.7363 54.1697ZM86.5639 71.7623C86.4863 71.7702 86.4012 72.2717 86.4722 72.2897C87.8627 72.5583 88.036 71.6115 86.5639 71.7623ZM112.256 49.7747C112.614 48.9565 112.949 48.9075 112.953 50.0044C112.726 49.9069 112.487 49.8607 112.256 49.7747Z" fill="#6EC9F2"/>
<path d="M72.7722 0.258215C76.3642 0.0237403 81.0727 0.274451 84.6511 0.618566C85.7726 0.725292 85.2047 1.20237 85.9789 1.29752C87.493 1.48301 88.9036 1.24904 90.3998 1.47C90.8957 1.54557 90.2785 2.30125 90.7984 2.36319C93.6477 2.69716 96.3432 2.50468 99.2295 2.66531C113.447 3.45785 127.422 3.74153 141.813 4.08584C146.558 4.19872 152.327 4.88454 157.228 4.58462C157.8 4.54893 157.459 3.88563 157.568 3.83096C159.275 2.99403 158.707 4.3331 159.822 4.51101C164.247 5.21347 169.167 5.27457 173.425 5.01858C175.237 4.90773 173.42 3.59024 175.244 4.32974C175.371 4.3797 174.911 5.08408 175.408 5.1592C176.535 5.32817 178.672 5.20227 179.545 5.25808C181.228 5.3692 181.507 5.36211 183.098 5.37014C185.274 5.38724 187.862 5.73738 190.197 5.57778C190.695 5.54162 190.035 4.81955 190.83 4.69668C191.422 4.60537 192.739 4.61594 193.667 4.69751C194.053 4.72547 194.381 4.7708 194.597 4.82213C195.44 5.02927 195.044 5.58259 195.185 5.71943C196.272 6.83561 199.226 5.83217 199.644 5.92936C206.497 7.00751 211.159 11.5943 214.544 16.7643C217.168 20.7036 218.89 25.7485 218.815 30.3334C218.815 30.3652 218.815 30.3971 218.814 30.4289C218.765 35.0417 218.374 38.9513 218.441 43.4326C218.447 43.9055 219.296 43.3513 219.306 43.9289C219.404 50.0659 219.312 56.1601 218.739 62.2706C218.68 62.8834 217.935 62.0936 217.832 62.7058C217.22 66.4543 215.748 72.3853 218.994 74.6116C218.867 77.1507 218.736 80.2333 218.082 82.5048C217.661 83.9694 216.849 82.5469 217.195 84.346C217.272 84.7518 217.983 84.2241 218.045 84.8326C218.306 87.3947 218.075 90.1938 218.442 92.7283C218.518 93.2438 219.156 93.103 219.27 93.2491C220.2 94.4767 218.663 96.5203 218.552 96.9658C217.719 100.358 218.047 102.836 218.027 105.996C218.022 106.729 218.878 105.863 218.903 106.568C219.026 110.228 218.953 114.02 218.573 117.604C218.486 118.401 217.757 117.668 217.678 118.049C217.341 119.728 218.718 120.101 218.42 121.712C218.359 122.051 217.735 121.86 217.666 121.922C216.59 122.891 218.115 123.734 218.149 123.983C218.609 127.138 217.017 129.154 217.242 132.202C217.271 132.566 218.061 131.744 218.093 132.769C218.311 139.596 218.094 146.817 217.462 153.575C217.365 154.626 216.772 153.876 216.698 153.942C215.556 155.02 217.087 155.717 217.145 156.06C217.211 156.489 217.234 156.915 217.233 157.333C217.227 159.846 216.193 161.839 217.196 163.935C214.044 174.004 204.205 181.939 193.667 181.214C191.42 181.065 189.175 180.846 186.932 180.523C186.788 180.504 187.046 179.75 186.758 179.716C183.291 179.292 183.957 180.464 181.663 181.898C181.085 182.258 179.326 180.527 179.171 180.4C178.604 179.933 179.192 178.811 179.002 178.721C177.432 178.01 177.688 181.72 175.569 181.721C175.503 181.715 175.781 181.032 175.603 180.964C175.051 180.751 174.503 181.022 173.963 180.787C172.725 180.243 172.285 178.44 170.395 179.49C170.156 179.626 170.521 181.73 168.63 181.631C167.875 181.589 164.538 181.625 163.602 181.489C162.668 181.353 163.309 180.675 163.243 180.645C160.725 179.749 161.68 179.377 160.418 178.049C159.157 176.727 159.507 179.881 158.993 180.233C158.478 180.584 156.632 179.845 156.178 179.587C155.725 179.33 156.291 178.899 155.887 178.753C153.214 177.802 154.714 180.319 153.833 180.82C151.757 182.006 150.14 179.666 148.239 179.437C147.724 179.375 148.144 179.908 147.686 179.958C145.872 180.148 144.781 179.418 142.717 180.087C142.38 180.196 140.712 181.603 139.632 180.571C139.479 180.422 139.913 179.839 139.14 179.708C137.985 179.512 135.904 179.385 134.663 179.58C133.746 179.724 134.797 180.684 133.643 180.386C133.131 180.253 134.081 179.691 133.118 179.487C132.159 179.284 129.71 179.309 128.777 179.328C127.847 179.348 128.356 180.077 128.281 180.126C127.826 180.407 126.04 180.758 125.882 180.757C117.922 180.846 110.581 179.618 102.831 180.025C102.223 180.055 102.628 180.824 102.535 180.836C100.453 181.158 102.095 179.115 100.64 178.432C100.85 179.991 99.9917 179.709 98.525 179.88C97.8182 179.963 98.2031 180.567 98.1386 180.629C97.0905 181.546 96.3607 180.361 96.1727 180.119C95.4785 179.228 94.7231 180.281 94.2507 179.685C93.7786 179.094 94.8651 178.217 93.4585 178.228C93.064 178.787 94.1083 180.245 93.0403 180.482C89.0108 181.376 81.4891 180.231 78.2492 180.112C75.0158 179.994 73.9714 180.097 72.0872 179.895C68.6838 179.53 69.9311 180.612 67.8178 181.108C67.211 181.25 66.8623 181.133 66.6667 180.88C66.1329 180.247 66.6475 178.777 66.4245 178.367C66.1378 177.791 65.8039 178.37 65.4511 178.035C65.1129 177.699 65.8994 177.361 65.0845 177.186C64.2996 177.046 61.8894 177.631 61.4104 178.097C60.4384 179.135 61.1924 180.795 58.8766 179.558C58.7499 179.484 59.4199 178.979 58.9281 178.729C55.046 176.773 51.4327 173.988 49.3173 170.365C49.0331 169.87 49.9593 169.813 49.8084 169.526C48.3954 166.509 47.9771 168.226 45.7542 167.105C47.7138 166.647 48.2272 165.258 47.5455 162.998C47.1678 161.606 46.4211 162.05 45.6377 161.185C45.3972 160.913 45.824 159.757 45.4142 159.605C44.0772 159.065 42.6155 160.291 43.1123 157.333C43.1125 157.332 43.1128 157.331 43.113 157.33C43.1227 157.289 43.2177 157.309 43.3386 157.333C43.4975 157.369 43.7011 157.414 43.8141 157.333C43.8589 157.304 43.8895 157.257 43.8974 157.183C44.1803 154.605 42.8167 154.297 42.6516 151.51C42.522 149.326 43.3535 145.442 43.4887 142.955C45.6717 143.007 45.1718 140.658 43.6667 139.705C43.7283 138.091 43.6432 136.348 43.8513 134.788C43.9222 134.251 44.5542 134.603 44.6225 134.536C45.6938 133.498 44.2295 132.796 44.1721 132.447C43.614 128.672 44.7239 125.595 43.6392 121.992C43.6002 121.864 42.0838 121.657 43.191 120.693C43.2673 120.631 43.9572 121.821 44.0106 120.126C44.064 118.431 44.8769 115.235 44.1743 112.881C44.0051 112.311 42.7741 110.871 43.7359 109.714C43.8665 109.56 44.3014 109.729 44.5434 109.506C45.3145 108.788 43.7819 108.395 45.0839 107.55C46.3859 106.705 47.361 104.948 46.4627 102.574C46.4366 102.499 45.2218 101.937 45.241 101.19C45.2727 99.9985 45.5258 98.3069 45.5179 97.0627C45.5137 96.4669 44.7594 96.8482 44.7456 96.7448C44.3229 92.7391 44.9953 89.8882 45.2872 85.597C45.3422 84.8103 44.3136 82.5498 45.1268 81.0269C46.017 79.3547 49.7202 81.073 48.8379 77.2295C48.4851 75.6792 43.7869 73.7165 46.221 70.9306C45.6179 65.5274 46.8636 60.5306 46.0024 55.1124C45.9642 54.8688 44.653 54.0983 44.6708 53.5255C44.6999 52.6751 45.3127 52.2083 45.3531 51.6011C45.5377 49.0567 45.0134 46.7283 45.0949 44.2752C45.1246 43.3438 45.7582 43.6695 45.7936 42.5586C45.8285 41.4485 44.994 40.7082 45.397 39.2038C45.7042 38.0676 47.4098 36.9316 47.6086 35.4235C45.9262 35.366 45.9609 34.3302 45.5168 32.4892C45.4306 32.1353 44.8451 32.5148 44.7741 32.3474C44.4723 31.6661 44.9576 31.0356 44.6291 30.3887C44.6186 30.3678 44.5994 30.3496 44.5737 30.3334C44.4061 30.2222 43.963 30.1978 43.8802 30.0763C43.0244 28.8521 44.5538 26.9917 44.8388 26.7507C45.8857 25.693 45.2961 24.9983 45.8808 24.1773C46.4717 23.3976 46.4712 24.8165 46.9805 23.8789C48.0251 21.9673 49.2157 19.5355 50.5817 17.8568C51.1198 17.1895 50.1603 17.1653 50.223 17.0589C51.2539 15.465 53.1415 14.8679 53.0109 13.0342C56.4297 15.4194 53.6248 11.9715 56.4607 11.2566C56.6889 11.2091 57.7478 12.7557 57.241 13.344C56.7473 13.9269 55.4809 14.0353 54.9282 15.0027C54.7664 15.2382 54.9058 17.4153 54.8858 17.595C54.5375 19.0641 52.3934 17.3348 52.211 17.2951C50.3377 16.8706 50.7535 19.4806 50.6735 19.8775C50.1016 21.8463 49.0891 23.1979 49.0066 24.8887C48.9691 25.9913 50.7393 26.5017 50.5376 27.1991C50.1867 28.5094 49.2975 29.3406 48.955 30.3334C48.6916 31.2501 48.743 32.1949 49.7158 33.5015C50.1874 34.1385 52.1858 33.5055 50.6144 35.7878C50.5154 35.9312 49.0778 37.6257 49.9871 38.6047C50.1018 38.7277 50.6842 38.7238 50.7331 38.8859C51.0496 39.9726 50.5856 40.6974 50.8078 41.8813C51.03 43.065 51.3613 44.4885 51.1637 45.8401C51.0456 46.6546 49.9605 47.6998 49.6949 48.0897C48.9296 49.1907 50.1843 50.3713 49.2576 51.0533C48.3262 51.7412 46.9118 50.3964 46.31 52.2001C47.8231 52.2669 49.3762 52.4204 50.8979 52.5278C50.8446 56.4806 50.3553 60.3698 50.4222 64.3358C50.432 64.8275 51.2454 64.3246 51.2769 64.8517C51.4061 67.0756 50.8263 69.018 51.0572 71.3242C51.239 73.1094 52.1003 75.0669 52.3173 76.9336C50.5859 78.0738 51.1737 80.8437 51.0154 82.8559C50.9608 83.5608 50.4983 83.5137 50.3475 84.0149C49.7895 85.9061 51.3196 85.0199 51.5604 85.5383C52.588 87.7626 49.1248 87.9531 49.2104 90.5755C49.2137 90.7144 51.0598 92.4127 51.1747 92.6466C51.9244 94.1328 50.5322 92.8926 50.3958 93.8227C50.1465 95.521 49.7057 96.7011 50.2464 98.6936C50.4065 99.2746 51.5572 100.668 50.6672 101.797C50.5506 101.945 49.9404 101.863 49.9047 101.982C49.3091 104.145 51.2263 104.202 51.8757 105.438C52.5248 106.674 51.2013 108.582 50.8199 108.971C49.8331 109.987 50.3982 108.192 50.3013 108.137C49.1489 107.491 49.3473 108.883 49.2499 109.947C47.37 110.101 47.4829 111.588 49.1566 111.049C49.3394 110.988 49.1641 110.16 49.2499 109.947C51.0944 110.88 51.3306 112.515 49.607 114.321C48.7992 115.166 47.8573 114.367 48.2018 116.935C48.3574 118.1 49.6518 117.65 50.0047 118.678C50.8099 121.028 49.6024 124.081 49.7927 126.503C49.8617 127.382 50.5703 126.526 50.6419 127.127C50.8342 128.721 50.3025 130.127 50.5749 131.729C50.6005 131.874 51.3422 131.519 51.3516 132.017C51.4378 135.792 50.9627 139.079 50.9495 143.021C50.9435 144.925 51.3526 148.33 51.2703 150.303C51.1813 152.504 50.7024 155.032 50.4426 157.333C50.2979 158.315 50.3137 159.267 50.5384 160.044C50.9738 161.459 51.6572 160.962 52.2873 161.393C53.4701 162.133 52.6731 164.541 52.625 164.976C52.615 164.998 51.899 163.954 51.8568 164.726C51.3323 165.449 52.6188 164.971 52.625 164.976C52.5137 165.238 53.767 167.444 54.2421 167.707C54.4758 167.864 54.9134 167.292 55.0219 167.377C57.5937 169.373 60.2477 170.774 63.1909 171.826C63.2417 171.852 62.9764 172.598 63.1037 172.652C64.4568 173.228 65.6165 172.835 66.6667 172.343C67.1545 172.179 67.6502 172.014 68.1749 171.873C70.2951 171.302 71.9765 171.493 73.2316 172.843C74.8313 172.673 77.1265 173.27 78.4472 173.632C79.7679 173.994 79.9522 172.463 80.0684 172.433C83.693 171.465 85.7882 172.341 89.5486 172.477C91.3363 172.544 94.8825 172.322 96.8182 172.155C98.348 172.02 99.2696 172.379 100.679 172.15C100.87 172.119 100.677 171.438 100.735 171.411C102.309 170.596 101.553 172.262 101.877 172.559C103.055 173.641 103.782 174.218 105.797 173.709C106.262 173.592 107.615 171.193 108.462 171.053C109.564 170.875 109.148 171.735 110.301 171.527C110.4 171.51 110.379 170.979 111.091 171.003C114.395 171.104 117.996 171.413 121.429 171.36C121.898 171.354 121.297 170.513 121.975 170.492C125.154 170.392 128.639 170.423 131.736 170.817C132.498 170.917 132.02 171.506 132.186 171.681C133.202 172.739 134.643 171.201 134.881 171.172C140.552 170.433 144.892 171.824 150.672 171.162C150.986 171.123 153.408 169.475 154.489 170.888C154.563 170.982 155.632 172.429 156.577 171.44C156.636 171.378 155.97 170.633 157.132 170.709C158.295 170.785 160.165 170.288 161.763 171.106C162.269 171.364 163.465 172.806 164.974 171.656C165.072 171.576 167.402 168.975 168.233 170.77C168.368 171.065 168.227 172.964 170.028 171.99C170.372 171.802 169.748 171.378 170.654 171.114C172.043 170.706 173.884 171.215 175.591 170.369C175.889 170.219 177.156 168.93 178.173 169.908C178.332 170.062 178.03 170.696 178.567 170.766C181.12 171.107 183.794 170.683 186.387 171.121C187.305 171.275 186.836 172.3 187.793 172.575C188.75 172.849 190.679 173.113 191.681 172.645C192.683 172.177 191.588 170.543 193.089 170.413C193.282 170.396 193.474 170.381 193.667 170.366C197.474 169.927 201.506 169.025 204.282 165.852C204.679 165.374 203.919 165.426 204.42 164.705C205.637 162.962 206.488 160.009 206.606 157.333C206.699 154.969 206.914 152.801 207.352 151.194C208.347 147.543 209.104 152.137 209.509 149.347C209.702 148.001 207.803 146.545 207.744 146.22C207.136 143.045 207.977 140.839 207.719 137.982C207.666 137.392 206.896 137.971 206.859 137.469C206.726 135.753 207.069 133.951 207.006 132.312C206.976 131.576 206.389 131.712 206.434 131.035C206.536 129.416 206.783 127.985 207.334 126.406C207.384 126.262 208.115 127.232 208.142 126.035C208.184 124.096 208.728 121.69 208.167 119.459C207.998 118.798 206.654 118.772 207.582 117.349C207.776 117.051 209.389 117.432 207.995 115.775C207.764 115.496 205.884 112.712 207.095 111.346C207.414 110.986 208.734 110.066 208.527 109.27C208.494 109.162 207.772 109.595 207.702 108.935C207.466 106.611 207.543 104.175 207.317 101.788C207.256 101.15 206.509 102.1 206.441 101.15C206.252 98.5364 206.442 95.2738 206.676 92.7185C206.763 91.7764 207.382 92.4276 207.449 92.359C208.544 91.2567 207.066 90.6049 206.98 90.239C206.464 87.9635 207.158 86.2308 206.975 84.1333C206.926 83.5545 206.221 83.9649 206.158 83.8497C205.544 82.6547 206.81 83.5449 206.949 82.7884C207.344 80.6694 207.288 78.3072 207.198 76.1643C207.163 75.3772 206.346 76.2619 206.325 75.5555C206.184 71.3746 206.263 67.0282 206.713 62.9479C206.799 62.1796 207.428 62.663 207.572 62.5029C208.578 61.3993 207.206 59.7819 207.076 59.4097C206.479 57.7175 207.036 57.0602 206.932 55.5658C206.415 48.2655 206.783 39.2516 207.011 32.3606C207.033 31.6736 207.057 30.9984 207.083 30.3334C207.362 25.2802 205.197 20.5678 200.519 18.0289C200.2 17.8635 200.112 18.7687 199.843 18.6452C197.891 17.7412 195.835 17.1778 193.667 17.1506C191.08 17.1315 188.489 17.1303 185.878 17.2342C185.38 17.2526 186.098 18.046 185.299 18.1022C183.659 18.2228 181.582 18.1797 179.924 17.9264C179.116 17.8043 180.2 17.1235 179.386 17.0145C177.491 16.7593 175.46 16.7027 173.513 16.8299C172.685 16.8858 173.934 17.6973 172.858 17.7066C165.523 17.7872 158.319 17.9269 150.907 16.8761C150.399 16.8039 149.953 15.1547 148.872 15.4709C148.791 15.9286 148.796 16.4671 148.76 16.9563C138.082 17.2198 127.514 16.6481 116.806 16.5597C116.354 16.5561 117.135 17.43 116.261 17.4276C111.202 17.4147 106.289 17.6568 101.115 16.7882C100.601 16.7032 100.865 15.1659 99.3518 15.3984C99.0849 15.4409 96.8062 15.6459 96.217 15.9796C96.137 16.0299 96.5527 16.7475 95.8185 16.7684C91.5512 16.8774 87.0795 16.7136 82.8196 16.2751C82.1321 16.203 82.8643 15.4389 82.3746 15.3808C78.9011 14.9752 75.123 15.5561 71.8039 14.8623C69.5822 14.3951 70.4048 13.0742 69.2242 11.774C69.0572 11.5906 67.6815 11.5615 67.6104 10.8051C67.4277 8.90281 68.0941 6.81987 67.8206 4.79226C67.7629 4.35553 65.9204 4.82591 67.0113 3.77053C67.0875 3.6999 68.4233 3.34963 68.7523 2.9916C68.9813 2.74408 68.5686 1.97473 69.0359 1.65787C69.5032 1.3413 70.0168 1.98621 70.7916 1.61392C71.5661 1.23703 71.2255 0.361819 72.7722 0.258215ZM84.394 175.25C85.6169 175.985 85.7974 173.293 84.4747 173.937C84.4107 173.971 84.3309 175.214 84.394 175.25ZM48.3249 60.3476C47.1376 61.9464 48.8834 63.0404 49.8003 61.9126C50.7163 60.7849 48.6848 59.8605 48.3249 60.3476ZM47.4581 43.769C46.5219 45.6375 50.3391 45.9317 49.5674 43.9304C49.5238 43.814 47.5124 43.6598 47.4581 43.769ZM74.6991 11.4038C74.6822 11.3681 73.6932 11.3332 73.6696 11.3687C73.143 12.2236 75.1205 12.2927 74.6991 11.4038ZM46.7162 27.4692C46.1068 27.9599 46.5953 29.6231 47.2828 28.9748C47.816 28.4903 47.4466 26.903 46.7162 27.4692ZM148.187 178.123C148.207 178.163 148.916 178.199 148.901 177.972C148.853 177.242 147.867 177.448 148.187 178.123ZM64.5002 10.2519C60.7487 10.5852 56.9961 8.70619 61.8814 7.6919C62.7387 7.56266 60.285 9.09928 61.4231 9.11931C63.3719 9.18702 64.5091 7.0514 66.6292 8.08488C66.9489 8.25689 64.6691 10.2129 64.4937 10.257C64.4958 10.2553 64.498 10.2536 64.5002 10.2519ZM85.0982 178.483C85.1227 178.519 86.1041 178.553 86.1277 178.517C86.6592 177.663 84.682 177.594 85.0982 178.483ZM189.558 179.787C189.612 179.863 191.89 179.934 191.964 179.864C193.152 178.467 188.548 178.319 189.558 179.787ZM43.547 142.915C42.6872 141.845 42.586 140.563 43.6656 139.71C43.6083 140.774 43.5998 141.845 43.547 142.915Z" fill="#6EC9F2"/>
</svg>
