<svg width="50" height="50" viewBox="0 0 50 50" fill="none" xmlns="http://www.w3.org/2000/svg">
<g id="icon 1" clip-path="url(#clip0_3_4)">
<g id="Layer-1">
<g id="Group">
<path id="Vector" d="M-0.00012207 -9.15527e-05H50.0007V49.9967H-0.00012207V-9.15527e-05Z" fill="white"/>
</g>
<g id="Group_2">
<path id="Vector_2" d="M22.228 2.51401V7.46715C22.228 7.46715 24.4558 13.1879 23.8435 14.4108C23.8435 14.4108 29.6012 18.6941 30.1887 21.0395C30.1887 21.0395 32.3039 28.9245 31.9299 31.7124C31.5563 34.4992 31.8444 35.9263 30.1887 37.5077C28.533 39.0886 23.6408 41.6378 23.6922 44.5439C23.7222 46.1681 24.4651 48.302 25.4542 49.9653H50.0007L49.9999 2.51401H22.228Z" fill="#131210"/>
</g>
<g id="Group_3">
<path id="Vector_3" d="M14.2042 5.00049C14.2042 5.00049 14.1301 5.94606 14.5716 6.08087C15.013 6.21665 17.051 6.9297 18.4772 6.69252C19.9045 6.45438 22.228 7.53215 22.228 7.53215V2.58258H14.198L14.2042 5.00049Z" fill="#2B2626"/>
</g>
<g id="Group_4">
<path id="Vector_4" d="M26.188 15.8961C26.188 15.8961 28.4055 15.1579 28.991 15.8961C29.5766 16.6359 30.0098 17.9606 30.1889 19.4371C29.5766 18.2909 26.8764 16.0232 26.188 15.8961Z" fill="white"/>
</g>
<g id="Group_5">
<path id="Vector_5" d="M44.2255 40.6223C44.2255 40.6223 45.1097 35.2576 41.4404 31.7232C37.7725 28.192 37.4319 31.7232 37.4319 31.7232C37.4319 31.7232 36.0056 38.0418 44.2255 40.6223Z" fill="white"/>
</g>
<g id="Group_6">
<path id="Vector_6" d="M-0.000175476 0.000244141V49.9969H5.48787C5.35772 49.6547 5.25431 49.2894 5.19771 48.9097C4.89155 46.8735 5.29905 44.0192 6.16598 42.3893C7.03236 40.7585 8.35667 39.0262 8.66228 37.8034C8.96891 36.581 10.1908 33.3198 9.37641 31.1812C8.56046 29.0394 7.54175 27.6134 6.5225 26.9013C5.50434 26.1872 3.97529 24.4555 3.97529 22.5196C3.97529 20.5826 4.89107 18.9527 5.40142 18.5459C5.91026 18.1374 8.15289 18.1374 9.30793 18.5459C10.463 18.9527 16.9841 22.5535 17.9349 23.5722C18.8868 24.5909 18.7509 23.2316 18.7509 23.2316C18.7509 23.2316 17.7991 22.0087 17.8681 21.3986C17.9349 20.7874 18.4783 18.5459 18.1387 17.323C17.7991 16.099 17.6633 13.1789 16.5082 12.1597C15.3548 11.1405 13.8591 9.44229 13.7913 8.69526C13.7238 7.94671 13.3163 8.9664 13.1126 9.64654C12.9089 10.3256 11.8624 11.7512 11.3665 13.1789C10.8705 14.605 10.6497 18.3915 10.8036 18.6214C10.9559 18.8514 9.50293 17.9337 9.50293 17.9337C9.50293 17.9337 9.10477 13.8575 9.37641 12.2605C9.64805 10.6646 11.7878 7.47193 12.5693 6.55461C13.3504 5.63886 15.6264 3.66892 16.4743 3.63448C17.3238 3.59949 19.7696 4.31406 20.0073 4.65259C20.245 4.99372 21.6383 6.55461 22.589 8.08414C23.5398 9.61155 25.0341 13.8575 25.2724 14.2305C25.5096 14.605 27.8875 13.8575 28.2615 13.7556C28.635 13.6533 28.9752 13.3481 29.4845 13.484C29.9939 13.6193 32.1341 14.6729 32.1341 14.6729C32.1341 14.6729 32.5406 14.9445 32.6769 15.726C32.8122 16.5075 32.8462 18.2053 33.017 18.714C33.1867 19.2239 34.189 20.7365 34.9535 21.6012C35.7175 22.4681 37.3469 26.2377 37.8563 26.748C38.3667 27.2568 38.7237 28.174 39.8947 28.5816C41.0667 28.9896 44.2761 30.9764 45.1428 34.2371C46.0086 37.4973 46.8746 40.4025 46.6209 41.8281C46.3672 43.2553 45.9078 43.6113 45.5507 43.5094C45.1947 43.408 41.7294 42.5931 41.1182 41.9819C40.507 41.3697 38.6208 41.9819 39.0293 42.3893C39.4368 42.7963 41.1182 46.9738 41.8816 47.9425C42.1893 48.3294 42.6662 49.1525 43.1299 49.9969H50.0006L49.9998 2.58137V0.000244141H-0.000175476Z" fill="#6EC9F2"/>
</g>
<g id="Group_7">
<path id="Vector_7" d="M11.8539 19.2797C11.8539 19.2797 12.7039 19.6918 13.0301 19.9721C13.3573 20.252 13.2575 18.0069 13.2575 18.0069L11.8539 19.2797Z" fill="white"/>
</g>
<g id="Group_8">
<path id="Vector_8" d="M5.82442 18.007C5.82442 18.007 6.74484 17.7985 6.96606 17.9884C7.1894 18.1782 7.12456 16.7527 7.12456 16.7527L5.82442 18.007Z" fill="white"/>
</g>
<g id="Group_9">
<path id="Vector_9" d="M11.0935 50.0337C9.77735 47.698 8.80547 43.8998 11.7191 39.1283C7.45381 42.8879 7.65451 47.305 8.37381 50.0337H11.0935Z" fill="#131210"/>
</g>
<g id="Group_10">
<path id="Vector_10" d="M21.2124 50.0339C19.2202 46.8087 16.9193 41.0052 20.9911 35.1543C15.1993 40.2628 16.8626 46.568 18.4875 50.0339H21.2124Z" fill="#131210"/>
</g>
</g>
</g>
<defs>
<clipPath id="clip0_3_4">
<rect width="50" height="50" fill="white"/>
</clipPath>
</defs>
</svg>
